CothamSans.ufo
<glyph name="exclam" format="1">
  <advance width="319"/>
  <unicode hex="0021"/>
  <outline>
    <contour>
      <point x="122" y="496" type="line"/>
      <point x="122" y="740" type="line"/>
      <point x="214" y="740" type="line"/>
      <point x="214" y="496" type="line"/>
      <point x="201" y="220" type="line"/>
      <point x="135" y="220" type="line"/>
    </contour>
    <contour>
      <point x="97" y="68" type="curve" smooth="yes"/>
      <point x="97" y="90.667"/>
      <point x="104" y="109.334"/>
      <point x="118" y="124.001" type="curve" smooth="yes"/>
      <point x="132" y="138.668"/>
      <point x="149.667" y="146.001"/>
      <point x="171" y="146.001" type="curve" smooth="yes"/>
      <point x="193.667" y="146.001"/>
      <point x="212.334" y="138.668"/>
      <point x="227.001" y="124.001" type="curve" smooth="yes"/>
      <point x="241.668" y="109.334"/>
      <point x="249.001" y="90.667"/>
      <point x="249.001" y="68" type="curve" smooth="yes"/>
      <point x="249.001" y="46.667"/>
      <point x="241.668" y="29"/>
      <point x="227.001" y="15" type="curve" smooth="yes"/>
      <point x="212.334" y="1"/>
      <point x="193.667" y="-6"/>
      <point x="171" y="-6" type="curve" smooth="yes"/>
      <point x="149.667" y="-6"/>
      <point x="132" y="1"/>
      <point x="118" y="15" type="curve" smooth="yes"/>
      <point x="104" y="29"/>
      <point x="97" y="46.667"/>
    </contour>
  </outline>
</glyph>
<glyph name="numbersign" format="1">
  <advance width="868"/>
  <unicode hex="0023"/>
  <outline>
    <contour>
      <point x="305" y="757" type="line"/>
      <point x="399" y="757" type="line"/>
      <point x="139" y="0" type="line"/>
      <point x="45" y="0" type="line"/>
    </contour>
    <contour>
      <point x="604" y="757" type="line"/>
      <point x="698" y="757" type="line"/>
      <point x="438" y="0" type="line"/>
      <point x="344" y="0" type="line"/>
    </contour>
    <contour>
      <point x="8" y="470" type="line"/>
      <point x="40" y="559" type="line"/>
      <point x="750" y="557" type="line"/>
      <point x="719" y="469" type="line"/>
    </contour>
    <contour>
      <point x="-1" y="211" type="line"/>
      <point x="31" y="300" type="line"/>
      <point x="741" y="298" type="line"/>
      <point x="710" y="210" type="line"/>
    </contour>
  </outline>
</glyph>
<glyph name="ampersand" format="1">
  <advance width="833"/>
  <unicode hex="0026"/>
  <outline>
    <contour>
      <point x="658" y="-1" type="line"/>
      <point x="597.004" y="59.998" type="line"/>
      <point x="571.004" y="38.665"/>
      <point x="539.337" y="21.498"/>
      <point x="502.004" y="8.49805" type="curve" smooth="yes"/>
      <point x="464.671" y="-4.50195"/>
      <point x="420.338" y="-11.002"/>
      <point x="369.005" y="-11.002" type="curve" smooth="yes"/>
      <point x="335.005" y="-11.002"/>
      <point x="303.338" y="-5.83496"/>
      <point x="274.005" y="4.49805" type="curve" smooth="yes"/>
      <point x="244.672" y="14.8311"/>
      <point x="219.172" y="29.1641"/>
      <point x="197.505" y="47.4971" type="curve" smooth="yes"/>
      <point x="175.838" y="65.8301"/>
      <point x="159.005" y="87.3301"/>
      <point x="147.005" y="111.997" type="curve" smooth="yes"/>
      <point x="135.005" y="136.664"/>
      <point x="129.005" y="162.997"/>
      <point x="129.005" y="190.997" type="curve" smooth="yes"/>
      <point x="129.005" y="214.997"/>
      <point x="132.838" y="236.664"/>
      <point x="140.505" y="255.997" type="curve" smooth="yes"/>
      <point x="148.172" y="275.33"/>
      <point x="158.172" y="292.997"/>
      <point x="170.505" y="308.997" type="curve" smooth="yes"/>
      <point x="182.838" y="324.997"/>
      <point x="197.005" y="339.664"/>
      <point x="213.005" y="352.997" type="curve" smooth="yes"/>
      <point x="229.005" y="366.33"/>
      <point x="245.672" y="378.997"/>
      <point x="263.005" y="390.997" type="curve"/>
      <point x="237.672" y="418.997"/>
      <point x="216.672" y="447.997"/>
      <point x="200.005" y="477.997" type="curve" smooth="yes"/>
      <point x="183.338" y="507.997"/>
      <point x="175.005" y="538.997"/>
      <point x="175.005" y="570.997" type="curve" smooth="yes"/>
      <point x="175.005" y="594.33"/>
      <point x="179.338" y="616.83"/>
      <point x="188.005" y="638.497" type="curve" smooth="yes"/>
      <point x="196.672" y="660.164"/>
      <point x="209.005" y="679.497"/>
      <point x="225.005" y="696.497" type="curve" smooth="yes"/>
      <point x="241.005" y="713.497"/>
      <point x="260.505" y="726.997"/>
      <point x="283.505" y="736.997" type="curve" smooth="yes"/>
      <point x="306.505" y="746.997"/>
      <point x="332.005" y="751.997"/>
      <point x="360.005" y="751.997" type="curve" smooth="yes"/>
      <point x="382.672" y="751.997"/>
      <point x="404.172" y="748.33"/>
      <point x="424.505" y="740.997" type="curve" smooth="yes"/>
      <point x="444.838" y="733.664"/>
      <point x="462.671" y="723.164"/>
      <point x="478.004" y="709.497" type="curve" smooth="yes"/>
      <point x="493.337" y="695.83"/>
      <point x="505.67" y="679.497"/>
      <point x="515.003" y="660.497" type="curve" smooth="yes"/>
      <point x="524.336" y="641.497"/>
      <point x="529.003" y="619.997"/>
      <point x="529.003" y="595.997" type="curve" smooth="yes"/>
      <point x="529.003" y="572.664"/>
      <point x="525.17" y="551.664"/>
      <point x="517.503" y="532.997" type="curve" smooth="yes"/>
      <point x="509.836" y="514.33"/>
      <point x="499.503" y="496.83"/>
      <point x="486.503" y="480.497" type="curve" smooth="yes"/>
      <point x="473.503" y="464.164"/>
      <point x="458.336" y="448.664"/>
      <point x="441.003" y="433.997" type="curve" smooth="yes"/>
      <point x="423.67" y="419.33"/>
      <point x="405.003" y="404.33"/>
      <point x="385.003" y="388.997" type="curve"/>
      <point x="392.336" y="381.664"/>
      <point x="399.336" y="374.997"/>
      <point x="406.003" y="368.997" type="curve" smooth="yes"/>
      <point x="412.67" y="362.997"/>
      <point x="419.003" y="356.997"/>
      <point x="425.003" y="350.997" type="curve" smooth="yes"/>
      <point x="450.336" y="325.664"/>
      <point x="477.169" y="298.331"/>
      <point x="505.502" y="268.998" type="curve" smooth="yes"/>
      <point x="533.835" y="239.665"/>
      <point x="563.335" y="209.332"/>
      <point x="594.002" y="177.999" type="curve"/>
      <point x="604.669" y="196.666"/>
      <point x="612.336" y="215.499"/>
      <point x="617.003" y="234.499" type="curve" smooth="yes"/>
      <point x="621.67" y="253.499"/>
      <point x="624.003" y="270.999"/>
      <point x="624.003" y="286.999" type="curve" smooth="yes"/>
      <point x="624.003" y="302.999"/>
      <point x="620.67" y="320.832"/>
      <point x="614.003" y="340.499" type="curve" smooth="yes"/>
      <point x="607.336" y="360.166"/>
      <point x="596.669" y="378.666"/>
      <point x="582.002" y="395.999" type="curve" smooth="yes"/>
      <point x="574.669" y="404.666"/>
      <point x="567.002" y="412.833"/>
      <point x="559.002" y="420.5" type="curve" smooth="yes"/>
      <point x="551.002" y="428.167"/>
      <point x="543.335" y="433.667"/>
      <point x="536.002" y="437" type="curve"/>
      <point x="577.002" y="510" type="line"/>
      <point x="588.335" y="507.333"/>
      <point x="600.168" y="501"/>
      <point x="612.501" y="491" type="curve" smooth="yes"/>
      <point x="624.834" y="481"/>
      <point x="634.667" y="471.667"/>
      <point x="642" y="463" type="curve" smooth="yes"/>
      <point x="662.667" y="439"/>
      <point x="677.5" y="411.5"/>
      <point x="686.5" y="380.5" type="curve" smooth="yes"/>
      <point x="695.5" y="349.5"/>
      <point x="700" y="321"/>
      <point x="700" y="295" type="curve" smooth="yes"/>
      <point x="700" y="265.667"/>
      <point x="696.167" y="236.167"/>
      <point x="688.5" y="206.5" type="curve" smooth="yes"/>
      <point x="680.833" y="176.833"/>
      <point x="668.333" y="148.333"/>
      <point x="651" y="121" type="curve"/>
      <point x="672.333" y="99"/>
      <point x="693.833" y="77.667"/>
      <point x="715.5" y="57" type="curve" smooth="yes"/>
      <point x="737.167" y="36.333"/>
      <point x="758" y="17.333"/>
      <point x="778" y="0" type="curve"/>
    </contour>
    <contour>
      <point x="379.004" y="63.998" type="curve" smooth="yes"/>
      <point x="415.004" y="63.998"/>
      <point x="446.171" y="68.8301"/>
      <point x="472.504" y="78.4971" type="curve" smooth="yes"/>
      <point x="498.837" y="88.1641"/>
      <point x="521.67" y="100.664"/>
      <point x="541.003" y="115.997" type="curve"/>
      <point x="402.003" y="256.997" type="line" smooth="yes"/>
      <point x="388.67" y="268.997"/>
      <point x="374.837" y="281.497"/>
      <point x="360.504" y="294.497" type="curve" smooth="yes"/>
      <point x="346.171" y="307.497"/>
      <point x="331.338" y="321.33"/>
      <point x="316.005" y="335.997" type="curve"/>
      <point x="303.338" y="326.664"/>
      <point x="291.171" y="317.331"/>
      <point x="279.504" y="307.998" type="curve" smooth="yes"/>
      <point x="267.837" y="298.665"/>
      <point x="257.504" y="288.498"/>
      <point x="248.504" y="277.498" type="curve" smooth="yes"/>
      <point x="239.504" y="266.498"/>
      <point x="232.337" y="254.665"/>
      <point x="227.004" y="241.998" type="curve" smooth="yes"/>
      <point x="221.671" y="229.331"/>
      <point x="219.004" y="215.331"/>
      <point x="219.004" y="199.998" type="curve" smooth="yes"/>
      <point x="219.004" y="182.665"/>
      <point x="223.337" y="165.832"/>
      <point x="232.004" y="149.499" type="curve" smooth="yes"/>
      <point x="240.671" y="133.166"/>
      <point x="252.338" y="118.666"/>
      <point x="267.005" y="105.999" type="curve" smooth="yes"/>
      <point x="281.672" y="93.332"/>
      <point x="298.672" y="83.165"/>
      <point x="318.005" y="75.498" type="curve" smooth="yes"/>
      <point x="337.338" y="67.8311"/>
      <point x="357.671" y="63.998"/>
    </contour>
    <contour>
      <point x="260.004" y="575.997" type="curve" smooth="yes"/>
      <point x="260.004" y="552.664"/>
      <point x="267.172" y="529.665"/>
      <point x="281.505" y="506.998" type="curve" smooth="yes"/>
      <point x="295.838" y="484.331"/>
      <point x="312.671" y="462.331"/>
      <point x="332.004" y="440.998" type="curve"/>
      <point x="342.004" y="448.998"/>
      <point x="353.504" y="457.331"/>
      <point x="366.504" y="465.998" type="curve" smooth="yes"/>
      <point x="379.504" y="474.665"/>
      <point x="392.004" y="484.498"/>
      <point x="404.004" y="495.498" type="curve" smooth="yes"/>
      <point x="416.004" y="506.498"/>
      <point x="426.004" y="519.498"/>
      <point x="434.004" y="534.498" type="curve" smooth="yes"/>
      <point x="442.004" y="549.498"/>
      <point x="446.004" y="567.665"/>
      <point x="446.004" y="588.998" type="curve" smooth="yes"/>
      <point x="446.004" y="614.331"/>
      <point x="437.337" y="634.664"/>
      <point x="420.004" y="649.997" type="curve" smooth="yes"/>
      <point x="402.671" y="665.33"/>
      <point x="381.338" y="672.997"/>
      <point x="356.005" y="672.997" type="curve" smooth="yes"/>
      <point x="341.338" y="672.997"/>
      <point x="328.171" y="670.164"/>
      <point x="316.504" y="664.497" type="curve" smooth="yes"/>
      <point x="304.837" y="658.83"/>
      <point x="294.837" y="651.497"/>
      <point x="286.504" y="642.497" type="curve" smooth="yes"/>
      <point x="278.171" y="633.497"/>
      <point x="271.671" y="623.164"/>
      <point x="267.004" y="611.497" type="curve" smooth="yes"/>
      <point x="262.337" y="599.83"/>
      <point x="260.004" y="587.997"/>
    </contour>
  </outline>
</glyph>
<glyph name="quotesingle" format="1">
  <advance width="142"/>
  <unicode hex="0027"/>
  <outline>
    <contour>
      <point x="44" y="719" type="line"/>
      <point x="131" y="719" type="line"/>
      <point x="95" y="479" type="line"/>
      <point x="34" y="479" type="line"/>
    </contour>
  </outline>
</glyph>
<glyph name="parenleft" format="1">
  <advance width="400"/>
  <unicode hex="0028"/>
  <outline>
    <contour>
      <point x="160" y="278" type="curve" smooth="yes"/>
      <point x="160" y="222.667"/>
      <point x="165.833" y="169.334"/>
      <point x="177.5" y="118.001" type="curve" smooth="yes"/>
      <point x="189.167" y="66.668"/>
      <point x="203.167" y="19.835"/>
      <point x="219.5" y="-22.498" type="curve" smooth="yes"/>
      <point x="235.833" y="-64.8311"/>
      <point x="253" y="-101.331"/>
      <point x="271" y="-131.998" type="curve" smooth="yes"/>
      <point x="289" y="-162.665"/>
      <point x="304.667" y="-185.332"/>
      <point x="318" y="-199.999" type="curve"/>
      <point x="224" y="-200.999" type="line"/>
      <point x="209.333" y="-181.666"/>
      <point x="192.666" y="-156.333"/>
      <point x="173.999" y="-125" type="curve" smooth="yes"/>
      <point x="155.332" y="-93.667"/>
      <point x="137.665" y="-57.5"/>
      <point x="120.998" y="-16.5" type="curve" smooth="yes"/>
      <point x="104.331" y="24.5"/>
      <point x="90.1641" y="69.833"/>
      <point x="78.4971" y="119.5" type="curve" smooth="yes"/>
      <point x="66.8301" y="169.167"/>
      <point x="60.9971" y="222"/>
      <point x="60.9971" y="278" type="curve" smooth="yes"/>
      <point x="60.9971" y="334"/>
      <point x="66.8301" y="386.833"/>
      <point x="78.4971" y="436.5" type="curve" smooth="yes"/>
      <point x="90.1641" y="486.167"/>
      <point x="104.331" y="531.5"/>
      <point x="120.998" y="572.5" type="curve" smooth="yes"/>
      <point x="137.665" y="613.5"/>
      <point x="155.332" y="649.667"/>
      <point x="173.999" y="681" type="curve" smooth="yes"/>
      <point x="192.666" y="712.333"/>
      <point x="209.333" y="737.666"/>
      <point x="224" y="756.999" type="curve"/>
      <point x="318" y="755.999" type="line"/>
      <point x="304.667" y="741.332"/>
      <point x="289" y="718.665"/>
      <point x="271" y="687.998" type="curve" smooth="yes"/>
      <point x="253" y="657.331"/>
      <point x="235.833" y="620.831"/>
      <point x="219.5" y="578.498" type="curve" smooth="yes"/>
      <point x="203.167" y="536.165"/>
      <point x="189.167" y="489.332"/>
      <point x="177.5" y="437.999" type="curve" smooth="yes"/>
      <point x="165.833" y="386.666"/>
      <point x="160" y="333.333"/>
    </contour>
  </outline>
</glyph>
<glyph name="parenright" format="1">
  <advance width="400"/>
  <unicode hex="0029"/>
  <outline>
    <contour>
      <point x="240" y="278" type="curve" smooth="yes"/>
      <point x="240" y="333.333"/>
      <point x="234.167" y="386.666"/>
      <point x="222.5" y="437.999" type="curve" smooth="yes"/>
      <point x="210.833" y="489.332"/>
      <point x="196.833" y="536.165"/>
      <point x="180.5" y="578.498" type="curve" smooth="yes"/>
      <point x="164.167" y="620.831"/>
      <point x="146.834" y="657.331"/>
      <point x="128.501" y="687.998" type="curve" smooth="yes"/>
      <point x="110.168" y="718.665"/>
      <point x="94.668" y="741.332"/>
      <point x="82.001" y="755.999" type="curve"/>
      <point x="176.001" y="756.999" type="line"/>
      <point x="190.668" y="737.666"/>
      <point x="207.335" y="712.333"/>
      <point x="226.002" y="681" type="curve" smooth="yes"/>
      <point x="244.669" y="649.667"/>
      <point x="262.336" y="613.5"/>
      <point x="279.003" y="572.5" type="curve" smooth="yes"/>
      <point x="295.67" y="531.5"/>
      <point x="309.837" y="486.167"/>
      <point x="321.504" y="436.5" type="curve" smooth="yes"/>
      <point x="333.171" y="386.833"/>
      <point x="339.004" y="334"/>
      <point x="339.004" y="278" type="curve" smooth="yes"/>
      <point x="339.004" y="222"/>
      <point x="333.171" y="169.167"/>
      <point x="321.504" y="119.5" type="curve" smooth="yes"/>
      <point x="309.837" y="69.833"/>
      <point x="295.67" y="24.5"/>
      <point x="279.003" y="-16.5" type="curve" smooth="yes"/>
      <point x="262.336" y="-57.5"/>
      <point x="244.669" y="-93.667"/>
      <point x="226.002" y="-125" type="curve" smooth="yes"/>
      <point x="207.335" y="-156.333"/>
      <point x="190.668" y="-181.666"/>
      <point x="176.001" y="-200.999" type="curve"/>
      <point x="82.001" y="-199.999" type="line"/>
      <point x="94.668" y="-185.332"/>
      <point x="110.168" y="-162.665"/>
      <point x="128.501" y="-131.998" type="curve" smooth="yes"/>
      <point x="146.834" y="-101.331"/>
      <point x="164.167" y="-64.8311"/>
      <point x="180.5" y="-22.498" type="curve" smooth="yes"/>
      <point x="196.833" y="19.835"/>
      <point x="210.833" y="66.668"/>
      <point x="222.5" y="118.001" type="curve" smooth="yes"/>
      <point x="234.167" y="169.334"/>
      <point x="240" y="222.667"/>
    </contour>
  </outline>
</glyph>
<glyph name="asterisk" format="1">
  <advance width="241"/>
  <unicode hex="002A"/>
  <outline>
    <contour>
      <point x="117" y="500" type="line"/>
      <point x="71" y="432" type="line"/>
      <point x="18" y="455" type="line"/>
      <point x="83" y="529" type="line"/>
      <point x="-4" y="565" type="line"/>
      <point x="28" y="608" type="line"/>
      <point x="97" y="566" type="line"/>
      <point x="91" y="657" type="line"/>
      <point x="146" y="658" type="line"/>
      <point x="145" y="656" type="line"/>
      <point x="147" y="656" type="line"/>
      <point x="140" y="565" type="line"/>
      <point x="210" y="607" type="line"/>
      <point x="241" y="563" type="line"/>
      <point x="155" y="527" type="line"/>
      <point x="220" y="454" type="line"/>
      <point x="166" y="431" type="line"/>
    </contour>
  </outline>
</glyph>
<glyph name="comma" format="1">
  <advance width="228"/>
  <unicode hex="002C"/>
  <outline>
    <contour>
      <point x="28" y="73" type="curve" smooth="yes"/>
      <point x="28" y="92.333"/>
      <point x="34.834" y="108.999"/>
      <point x="48.501" y="122.999" type="curve" smooth="yes"/>
      <point x="62.168" y="136.999"/>
      <point x="79.001" y="143.999"/>
      <point x="99.001" y="143.999" type="curve" smooth="yes"/>
      <point x="115.668" y="143.999"/>
      <point x="129.501" y="140.832"/>
      <point x="140.501" y="134.499" type="curve" smooth="yes"/>
      <point x="151.501" y="128.166"/>
      <point x="160.668" y="120.333"/>
      <point x="168.001" y="111" type="curve" smooth="yes"/>
      <point x="180.668" y="94.333"/>
      <point x="187.001" y="73.333"/>
      <point x="187.001" y="48" type="curve" smooth="yes"/>
      <point x="187.001" y="6.66699"/>
      <point x="176.668" y="-33.333"/>
      <point x="156.001" y="-72" type="curve" smooth="yes"/>
      <point x="146.001" y="-90"/>
      <point x="133.001" y="-107.667"/>
      <point x="117.001" y="-125" type="curve" smooth="yes"/>
      <point x="101.001" y="-142.333"/>
      <point x="86.001" y="-156.333"/>
      <point x="72.001" y="-167" type="curve"/>
      <point x="34.001" y="-124" type="line"/>
      <point x="47.334" y="-111.333"/>
      <point x="59.334" y="-98.333"/>
      <point x="70.001" y="-85" type="curve" smooth="yes"/>
      <point x="79.334" y="-73.667"/>
      <point x="87.667" y="-60.5"/>
      <point x="95" y="-45.5" type="curve" smooth="yes"/>
      <point x="102.333" y="-30.5"/>
      <point x="106.333" y="-15.333"/>
      <point x="107" y="0" type="curve"/>
      <point x="101" y="0" type="line" smooth="yes"/>
      <point x="75.667" y="0"/>
      <point x="57.167" y="7.66699"/>
      <point x="45.5" y="23" type="curve" smooth="yes"/>
      <point x="33.833" y="38.333"/>
      <point x="28" y="55"/>
    </contour>
  </outline>
</glyph>
<glyph name="period" format="1">
  <advance width="228"/>
  <unicode hex="002E"/>
  <outline>
    <contour>
      <point x="25" y="68" type="curve" smooth="yes"/>
      <point x="25" y="90.667"/>
      <point x="32" y="109.334"/>
      <point x="46" y="124.001" type="curve" smooth="yes"/>
      <point x="60" y="138.668"/>
      <point x="77.667" y="146.001"/>
      <point x="99" y="146.001" type="curve" smooth="yes"/>
      <point x="121.667" y="146.001"/>
      <point x="140.334" y="138.668"/>
      <point x="155.001" y="124.001" type="curve" smooth="yes"/>
      <point x="169.668" y="109.334"/>
      <point x="177.001" y="90.667"/>
      <point x="177.001" y="68" type="curve" smooth="yes"/>
      <point x="177.001" y="46.667"/>
      <point x="169.668" y="29"/>
      <point x="155.001" y="15" type="curve" smooth="yes"/>
      <point x="140.334" y="1"/>
      <point x="121.667" y="-6"/>
      <point x="99" y="-6" type="curve" smooth="yes"/>
      <point x="77.667" y="-6"/>
      <point x="60" y="1"/>
      <point x="46" y="15" type="curve" smooth="yes"/>
      <point x="32" y="29"/>
      <point x="25" y="46.667"/>
    </contour>
  </outline>
</glyph>
<glyph name="zero" format="1">
  <advance width="672"/>
  <unicode hex="0030"/>
  <outline>
    <contour>
      <point x="337" y="674" type="curve" smooth="yes"/>
      <point x="268.333" y="674"/>
      <point x="216" y="649.666"/>
      <point x="180" y="600.999" type="curve" smooth="yes"/>
      <point x="144" y="552.332"/>
      <point x="126" y="476.665"/>
      <point x="126" y="373.998" type="curve" smooth="yes"/>
      <point x="126" y="319.998"/>
      <point x="130.5" y="273.831"/>
      <point x="139.5" y="235.498" type="curve" smooth="yes"/>
      <point x="148.5" y="197.165"/>
      <point x="162" y="165.832"/>
      <point x="180" y="141.499" type="curve" smooth="yes"/>
      <point x="198" y="117.166"/>
      <point x="220.167" y="99.499"/>
      <point x="246.5" y="88.499" type="curve" smooth="yes"/>
      <point x="272.833" y="77.499"/>
      <point x="303" y="71.999"/>
      <point x="337" y="71.999" type="curve" smooth="yes"/>
      <point x="407.667" y="71.999"/>
      <point x="461.334" y="96.499"/>
      <point x="498.001" y="145.499" type="curve" smooth="yes"/>
      <point x="534.668" y="194.499"/>
      <point x="553.001" y="270.666"/>
      <point x="553.001" y="373.999" type="curve" smooth="yes"/>
      <point x="553.001" y="476.666"/>
      <point x="534.668" y="552.333"/>
      <point x="498.001" y="601" type="curve" smooth="yes"/>
      <point x="461.334" y="649.667"/>
      <point x="407.667" y="674"/>
    </contour>
    <contour>
      <point x="337" y="755.999" type="curve" smooth="yes"/>
      <point x="385" y="755.999"/>
      <point x="428.334" y="747.833"/>
      <point x="467.001" y="731.5" type="curve" smooth="yes"/>
      <point x="505.668" y="715.167"/>
      <point x="538.668" y="690.834"/>
      <point x="566.001" y="658.501" type="curve" smooth="yes"/>
      <point x="593.334" y="626.168"/>
      <point x="614.334" y="586.168"/>
      <point x="629.001" y="538.501" type="curve" smooth="yes"/>
      <point x="643.668" y="490.834"/>
      <point x="651.001" y="436.001"/>
      <point x="651.001" y="374.001" type="curve" smooth="yes"/>
      <point x="651.001" y="310.668"/>
      <point x="643.334" y="255.001"/>
      <point x="628.001" y="207.001" type="curve" smooth="yes"/>
      <point x="612.668" y="159.001"/>
      <point x="591.168" y="119.001"/>
      <point x="563.501" y="87.001" type="curve" smooth="yes"/>
      <point x="535.834" y="55.001"/>
      <point x="502.834" y="30.834"/>
      <point x="464.501" y="14.501" type="curve" smooth="yes"/>
      <point x="426.168" y="-1.83203"/>
      <point x="383.668" y="-9.99902"/>
      <point x="337.001" y="-9.99902" type="curve" smooth="yes"/>
      <point x="231.001" y="-9.99902"/>
      <point x="153.001" y="22.168"/>
      <point x="103.001" y="86.501" type="curve" smooth="yes"/>
      <point x="53.001" y="150.834"/>
      <point x="28.001" y="246.667"/>
      <point x="28.001" y="374" type="curve" smooth="yes"/>
      <point x="28.001" y="436"/>
      <point x="35.168" y="490.833"/>
      <point x="49.501" y="538.5" type="curve" smooth="yes"/>
      <point x="63.834" y="586.167"/>
      <point x="84.334" y="626.167"/>
      <point x="111.001" y="658.5" type="curve" smooth="yes"/>
      <point x="137.668" y="690.833"/>
      <point x="170.168" y="715.166"/>
      <point x="208.501" y="731.499" type="curve" smooth="yes"/>
      <point x="246.834" y="747.832"/>
      <point x="289.667" y="755.999"/>
    </contour>
  </outline>
</glyph>
<glyph name="one" format="1">
  <advance width="672"/>
  <unicode hex="0031"/>
  <outline>
    <contour>
      <point x="92" y="83" type="line"/>
      <point x="288" y="82.998" type="line"/>
      <point x="288" y="570.998" type="line"/>
      <point x="272.667" y="555.665"/>
      <point x="254.5" y="544.832"/>
      <point x="233.5" y="538.499" type="curve" smooth="yes"/>
      <point x="212.5" y="532.166"/>
      <point x="191" y="528.999"/>
      <point x="169" y="528.999" type="curve" smooth="yes"/>
      <point x="161" y="528.999"/>
      <point x="149.667" y="529.999"/>
      <point x="135" y="531.999" type="curve" smooth="yes"/>
      <point x="120.333" y="533.999"/>
      <point x="107.333" y="538.332"/>
      <point x="96" y="544.999" type="curve"/>
      <point x="96" y="605.999" type="line"/>
      <point x="100.667" y="605.332"/>
      <point x="105.667" y="604.999"/>
      <point x="111" y="604.999" type="curve" smooth="yes"/>
      <point x="128" y="604.999" type="line" smooth="yes"/>
      <point x="142.667" y="604.999"/>
      <point x="159.167" y="606.832"/>
      <point x="177.5" y="610.499" type="curve" smooth="yes"/>
      <point x="195.833" y="614.166"/>
      <point x="213" y="621.333"/>
      <point x="229" y="632" type="curve" smooth="yes"/>
      <point x="245" y="642.667"/>
      <point x="258.5" y="657"/>
      <point x="269.5" y="675" type="curve" smooth="yes"/>
      <point x="280.5" y="693"/>
      <point x="286.667" y="716.667"/>
      <point x="288" y="746" type="curve"/>
      <point x="377" y="746" type="line"/>
      <point x="377" y="83" type="line"/>
      <point x="586" y="83" type="line"/>
      <point x="586" y="0" type="line"/>
      <point x="92" y="0" type="line"/>
    </contour>
  </outline>
</glyph>
<glyph name="two" format="1">
  <advance width="672"/>
  <unicode hex="0032"/>
  <outline>
    <contour>
      <point x="88" y="565" type="line"/>
      <point x="89.333" y="625.667"/>
      <point x="113.163" y="672.667"/>
      <point x="159.496" y="706" type="curve" smooth="yes"/>
      <point x="205.829" y="739.333"/>
      <point x="272.662" y="756"/>
      <point x="359.995" y="756" type="curve" smooth="yes"/>
      <point x="394.662" y="756"/>
      <point x="426.329" y="750.667"/>
      <point x="454.996" y="740" type="curve" smooth="yes"/>
      <point x="483.663" y="729.333"/>
      <point x="508.33" y="715"/>
      <point x="528.997" y="697" type="curve" smooth="yes"/>
      <point x="549.664" y="679"/>
      <point x="565.831" y="657.833"/>
      <point x="577.498" y="633.5" type="curve" smooth="yes"/>
      <point x="589.165" y="609.167"/>
      <point x="594.998" y="583.334"/>
      <point x="594.998" y="556.001" type="curve" smooth="yes"/>
      <point x="594.998" y="516.001"/>
      <point x="589.498" y="482.501"/>
      <point x="578.498" y="455.501" type="curve" smooth="yes"/>
      <point x="567.498" y="428.501"/>
      <point x="552.831" y="405.668"/>
      <point x="534.498" y="387.001" type="curve" smooth="yes"/>
      <point x="516.165" y="368.334"/>
      <point x="495.332" y="352.501"/>
      <point x="471.999" y="339.501" type="curve" smooth="yes"/>
      <point x="448.666" y="326.501"/>
      <point x="424.666" y="314.001"/>
      <point x="399.999" y="302.001" type="curve"/>
      <point x="399.999" y="303.001" type="line"/>
      <point x="355.999" y="283.001" type="line" smooth="yes"/>
      <point x="335.332" y="273.001"/>
      <point x="315.332" y="263.001"/>
      <point x="295.999" y="253.001" type="curve" smooth="yes"/>
      <point x="276.666" y="243.001"/>
      <point x="258.833" y="231.501"/>
      <point x="242.5" y="218.501" type="curve" smooth="yes"/>
      <point x="226.167" y="205.501"/>
      <point x="211.667" y="190.334"/>
      <point x="199" y="173.001" type="curve" smooth="yes"/>
      <point x="186.333" y="155.668"/>
      <point x="176.666" y="134.668"/>
      <point x="169.999" y="110.001" type="curve" smooth="yes"/>
      <point x="168.666" y="105.334"/>
      <point x="167.999" y="101.167"/>
      <point x="167.999" y="97.5" type="curve" smooth="yes"/>
      <point x="167.999" y="87" type="line"/>
      <point x="241.332" y="87"/>
      <point x="315.665" y="86.667"/>
      <point x="390.998" y="86" type="curve" smooth="yes"/>
      <point x="466.331" y="85.333"/>
      <point x="540.998" y="85"/>
      <point x="614.998" y="85" type="curve"/>
      <point x="614.998" y="0" type="line"/>
      <point x="63.998" y="0" type="line"/>
      <point x="63.998" y="8" type="line" smooth="yes"/>
      <point x="63.998" y="24.667"/>
      <point x="64.165" y="40.334"/>
      <point x="64.498" y="55.001" type="curve" smooth="yes"/>
      <point x="64.8311" y="69.668"/>
      <point x="65.8311" y="84.001"/>
      <point x="67.498" y="98.001" type="curve" smooth="yes"/>
      <point x="69.165" y="112.001"/>
      <point x="71.832" y="125.834"/>
      <point x="75.499" y="139.501" type="curve" smooth="yes"/>
      <point x="79.166" y="153.168"/>
      <point x="84.666" y="167.668"/>
      <point x="91.999" y="183.001" type="curve"/>
      <point x="90.999" y="183.001" type="line"/>
      <point x="100.999" y="203.668"/>
      <point x="114.166" y="222.501"/>
      <point x="130.499" y="239.501" type="curve" smooth="yes"/>
      <point x="146.832" y="256.501"/>
      <point x="165.165" y="272.168"/>
      <point x="185.498" y="286.501" type="curve" smooth="yes"/>
      <point x="205.831" y="300.834"/>
      <point x="227.331" y="313.834"/>
      <point x="249.998" y="325.501" type="curve" smooth="yes"/>
      <point x="272.665" y="337.168"/>
      <point x="295.332" y="348.001"/>
      <point x="317.999" y="358.001" type="curve" smooth="yes"/>
      <point x="343.332" y="369.334"/>
      <point x="367.499" y="381.001"/>
      <point x="390.499" y="393.001" type="curve" smooth="yes"/>
      <point x="413.499" y="405.001"/>
      <point x="433.666" y="418.168"/>
      <point x="450.999" y="432.501" type="curve" smooth="yes"/>
      <point x="468.332" y="446.834"/>
      <point x="481.999" y="463.167"/>
      <point x="491.999" y="481.5" type="curve" smooth="yes"/>
      <point x="501.999" y="499.833"/>
      <point x="506.999" y="521"/>
      <point x="506.999" y="545" type="curve" smooth="yes"/>
      <point x="506.999" y="569.667"/>
      <point x="501.166" y="590.5"/>
      <point x="489.499" y="607.5" type="curve" smooth="yes"/>
      <point x="477.832" y="624.5"/>
      <point x="463.499" y="638.333"/>
      <point x="446.499" y="649" type="curve" smooth="yes"/>
      <point x="429.499" y="659.667"/>
      <point x="411.832" y="667.334"/>
      <point x="393.499" y="672.001" type="curve" smooth="yes"/>
      <point x="375.166" y="676.668"/>
      <point x="358.999" y="679.001"/>
      <point x="344.999" y="679.001" type="curve" smooth="yes"/>
      <point x="324.999" y="679.001"/>
      <point x="304.999" y="676.834"/>
      <point x="284.999" y="672.501" type="curve" smooth="yes"/>
      <point x="264.999" y="668.168"/>
      <point x="246.832" y="661.001"/>
      <point x="230.499" y="651.001" type="curve" smooth="yes"/>
      <point x="214.166" y="641.001"/>
      <point x="200.333" y="627.668"/>
      <point x="189" y="611.001" type="curve" smooth="yes"/>
      <point x="177.667" y="594.334"/>
      <point x="171" y="573.667"/>
      <point x="169" y="549" type="curve"/>
    </contour>
  </outline>
</glyph>
<glyph name="three" format="1">
  <advance width="672"/>
  <unicode hex="0033"/>
  <outline>
    <contour>
      <point x="147" y="196" type="line"/>
      <point x="149.667" y="172"/>
      <point x="156.996" y="151.83"/>
      <point x="168.996" y="135.497" type="curve" smooth="yes"/>
      <point x="180.996" y="119.164"/>
      <point x="195.329" y="105.664"/>
      <point x="211.996" y="94.9971" type="curve" smooth="yes"/>
      <point x="228.663" y="84.3301"/>
      <point x="246.663" y="76.6631"/>
      <point x="265.996" y="71.9961" type="curve" smooth="yes"/>
      <point x="285.329" y="67.3291"/>
      <point x="303.996" y="64.9961"/>
      <point x="321.996" y="64.9961" type="curve" smooth="yes"/>
      <point x="383.996" y="64.9961"/>
      <point x="433.496" y="76.3291"/>
      <point x="470.496" y="98.9961" type="curve" smooth="yes"/>
      <point x="507.496" y="121.663"/>
      <point x="525.996" y="157.663"/>
      <point x="525.996" y="206.996" type="curve" smooth="yes"/>
      <point x="525.996" y="226.329"/>
      <point x="522.163" y="244.496"/>
      <point x="514.496" y="261.496" type="curve" smooth="yes"/>
      <point x="506.829" y="278.496"/>
      <point x="494.829" y="293.329"/>
      <point x="478.496" y="305.996" type="curve" smooth="yes"/>
      <point x="462.163" y="318.663"/>
      <point x="441.33" y="328.996"/>
      <point x="415.997" y="336.996" type="curve" smooth="yes"/>
      <point x="390.664" y="344.996"/>
      <point x="360.331" y="349.663"/>
      <point x="324.998" y="350.996" type="curve" smooth="yes"/>
      <point x="319.998" y="350.996" type="line"/>
      <point x="308.998" y="350.996" type="line"/>
      <point x="226.998" y="350.996" type="line"/>
      <point x="226.998" y="420.996" type="line"/>
      <point x="308.998" y="420.996" type="line" smooth="yes"/>
      <point x="341.665" y="421.663"/>
      <point x="369.665" y="425.83"/>
      <point x="392.998" y="433.497" type="curve" smooth="yes"/>
      <point x="416.331" y="441.164"/>
      <point x="435.498" y="451.331"/>
      <point x="450.498" y="463.998" type="curve" smooth="yes"/>
      <point x="465.498" y="476.665"/>
      <point x="476.665" y="490.998"/>
      <point x="483.998" y="506.998" type="curve" smooth="yes"/>
      <point x="491.331" y="522.998"/>
      <point x="494.998" y="539.665"/>
      <point x="494.998" y="556.998" type="curve" smooth="yes"/>
      <point x="494.998" y="579.665"/>
      <point x="489.165" y="598.832"/>
      <point x="477.498" y="614.499" type="curve" smooth="yes"/>
      <point x="465.831" y="630.166"/>
      <point x="451.498" y="642.833"/>
      <point x="434.498" y="652.5" type="curve" smooth="yes"/>
      <point x="417.498" y="662.167"/>
      <point x="399.665" y="669"/>
      <point x="380.998" y="673" type="curve" smooth="yes"/>
      <point x="362.331" y="677"/>
      <point x="345.998" y="679"/>
      <point x="331.998" y="679" type="curve" smooth="yes"/>
      <point x="312.665" y="679"/>
      <point x="292.998" y="676.833"/>
      <point x="272.998" y="672.5" type="curve" smooth="yes"/>
      <point x="252.998" y="668.167"/>
      <point x="234.831" y="661"/>
      <point x="218.498" y="651" type="curve" smooth="yes"/>
      <point x="202.165" y="641"/>
      <point x="188.332" y="627.667"/>
      <point x="176.999" y="611" type="curve" smooth="yes"/>
      <point x="165.666" y="594.333"/>
      <point x="158.999" y="573.666"/>
      <point x="156.999" y="548.999" type="curve"/>
      <point x="75.999" y="564.999" type="line"/>
      <point x="77.332" y="625.666"/>
      <point x="101.165" y="672.666"/>
      <point x="147.498" y="705.999" type="curve" smooth="yes"/>
      <point x="193.831" y="739.332"/>
      <point x="260.664" y="755.999"/>
      <point x="347.997" y="755.999" type="curve" smooth="yes"/>
      <point x="382.664" y="755.999"/>
      <point x="414.331" y="750.999"/>
      <point x="442.998" y="740.999" type="curve" smooth="yes"/>
      <point x="471.665" y="730.999"/>
      <point x="496.332" y="717.499"/>
      <point x="516.999" y="700.499" type="curve" smooth="yes"/>
      <point x="537.666" y="683.499"/>
      <point x="553.833" y="663.666"/>
      <point x="565.5" y="640.999" type="curve" smooth="yes"/>
      <point x="577.167" y="618.332"/>
      <point x="583" y="593.999"/>
      <point x="583" y="567.999" type="curve" smooth="yes"/>
      <point x="583" y="528.666"/>
      <point x="574.5" y="493.999"/>
      <point x="557.5" y="463.999" type="curve" smooth="yes"/>
      <point x="540.5" y="433.999"/>
      <point x="515.333" y="409.666"/>
      <point x="482" y="390.999" type="curve"/>
      <point x="524" y="373.666"/>
      <point x="556.333" y="349.499"/>
      <point x="579" y="318.499" type="curve" smooth="yes"/>
      <point x="601.667" y="287.499"/>
      <point x="613" y="250.999"/>
      <point x="613" y="208.999" type="curve" smooth="yes"/>
      <point x="613" y="175.666"/>
      <point x="606.333" y="145.333"/>
      <point x="593" y="118" type="curve" smooth="yes"/>
      <point x="579.667" y="90.667"/>
      <point x="560.834" y="67.5"/>
      <point x="536.501" y="48.5" type="curve" smooth="yes"/>
      <point x="512.168" y="29.5"/>
      <point x="483.168" y="14.833"/>
      <point x="449.501" y="4.5" type="curve" smooth="yes"/>
      <point x="415.834" y="-5.83301"/>
      <point x="378.667" y="-11"/>
      <point x="338" y="-11" type="curve" smooth="yes"/>
      <point x="254" y="-11"/>
      <point x="188.167" y="5.66699"/>
      <point x="140.5" y="39" type="curve" smooth="yes"/>
      <point x="92.833" y="72.333"/>
      <point x="68" y="119.333"/>
      <point x="66" y="180" type="curve"/>
    </contour>
  </outline>
</glyph>
<glyph name="four" format="1">
  <advance width="672"/>
  <unicode hex="0034"/>
  <outline>
    <contour>
      <point x="62" y="270" type="line"/>
      <point x="116.667" y="345.333"/>
      <point x="173.667" y="423.5"/>
      <point x="233" y="504.5" type="curve" smooth="yes"/>
      <point x="292.333" y="585.5"/>
      <point x="349.333" y="664"/>
      <point x="404" y="740" type="curve"/>
      <point x="494" y="740" type="line"/>
      <point x="494" y="270" type="line"/>
      <point x="618" y="270" type="line"/>
      <point x="618" y="187" type="line"/>
      <point x="494" y="187" type="line"/>
      <point x="494" y="0" type="line"/>
      <point x="404" y="0" type="line"/>
      <point x="404" y="187" type="line"/>
      <point x="62" y="187" type="line"/>
    </contour>
    <contour>
      <point x="404" y="623" type="line"/>
      <point x="155" y="270" type="line"/>
      <point x="404" y="270" type="line"/>
    </contour>
  </outline>
</glyph>
<glyph name="five" format="1">
  <advance width="672"/>
  <unicode hex="0035"/>
  <outline>
    <contour>
      <point x="127" y="746" type="line"/>
      <point x="559.001" y="746" type="line"/>
      <point x="559.001" y="666" type="line"/>
      <point x="202.001" y="666" type="line"/>
      <point x="186.001" y="460" type="line"/>
      <point x="210.668" y="474.667"/>
      <point x="236.668" y="485.5"/>
      <point x="264.001" y="492.5" type="curve" smooth="yes"/>
      <point x="291.334" y="499.5"/>
      <point x="315.667" y="503"/>
      <point x="337" y="503" type="curve" smooth="yes"/>
      <point x="373" y="504.333"/>
      <point x="407.5" y="500.333"/>
      <point x="440.5" y="491" type="curve" smooth="yes"/>
      <point x="473.5" y="481.667"/>
      <point x="502.833" y="466.5"/>
      <point x="528.5" y="445.5" type="curve" smooth="yes"/>
      <point x="554.167" y="424.5"/>
      <point x="574.667" y="397.833"/>
      <point x="590" y="365.5" type="curve" smooth="yes"/>
      <point x="605.333" y="333.167"/>
      <point x="613" y="294.667"/>
      <point x="613" y="250" type="curve" smooth="yes"/>
      <point x="613" y="212"/>
      <point x="606.333" y="177"/>
      <point x="593" y="145" type="curve" smooth="yes"/>
      <point x="579.667" y="113"/>
      <point x="560.834" y="85.5"/>
      <point x="536.501" y="62.5" type="curve" smooth="yes"/>
      <point x="512.168" y="39.5"/>
      <point x="483.168" y="21.5"/>
      <point x="449.501" y="8.5" type="curve" smooth="yes"/>
      <point x="415.834" y="-4.5"/>
      <point x="378.667" y="-11"/>
      <point x="338" y="-11" type="curve" smooth="yes"/>
      <point x="254" y="-11"/>
      <point x="188.167" y="5.66699"/>
      <point x="140.5" y="39" type="curve" smooth="yes"/>
      <point x="92.833" y="72.333"/>
      <point x="68" y="119.333"/>
      <point x="66" y="180" type="curve"/>
      <point x="147" y="196" type="line"/>
      <point x="149.667" y="172"/>
      <point x="157" y="151.833"/>
      <point x="169" y="135.5" type="curve" smooth="yes"/>
      <point x="181" y="119.167"/>
      <point x="195.333" y="105.667"/>
      <point x="212" y="95" type="curve" smooth="yes"/>
      <point x="228.667" y="84.333"/>
      <point x="246.667" y="76.666"/>
      <point x="266" y="71.999" type="curve" smooth="yes"/>
      <point x="285.333" y="67.332"/>
      <point x="304" y="64.999"/>
      <point x="322" y="64.999" type="curve" smooth="yes"/>
      <point x="384.667" y="64.999"/>
      <point x="434.334" y="80.499"/>
      <point x="471.001" y="111.499" type="curve" smooth="yes"/>
      <point x="507.668" y="142.499"/>
      <point x="526.001" y="187.999"/>
      <point x="526.001" y="247.999" type="curve" smooth="yes"/>
      <point x="526.001" y="275.999"/>
      <point x="520.668" y="300.832"/>
      <point x="510.001" y="322.499" type="curve" smooth="yes"/>
      <point x="499.334" y="344.166"/>
      <point x="485.167" y="362.499"/>
      <point x="467.5" y="377.499" type="curve" smooth="yes"/>
      <point x="449.833" y="392.499"/>
      <point x="429.5" y="403.832"/>
      <point x="406.5" y="411.499" type="curve" smooth="yes"/>
      <point x="383.5" y="419.166"/>
      <point x="359.667" y="422.999"/>
      <point x="335" y="422.999" type="curve" smooth="yes"/>
      <point x="319.667" y="422.999"/>
      <point x="303" y="420.832"/>
      <point x="285" y="416.499" type="curve" smooth="yes"/>
      <point x="267" y="412.166"/>
      <point x="249.667" y="405.833"/>
      <point x="233" y="397.5" type="curve" smooth="yes"/>
      <point x="216.333" y="389.167"/>
      <point x="201.5" y="379.167"/>
      <point x="188.5" y="367.5" type="curve" smooth="yes"/>
      <point x="175.5" y="355.833"/>
      <point x="166.333" y="343"/>
      <point x="161" y="329" type="curve"/>
      <point x="99" y="361" type="line"/>
      <point x="100" y="363" type="line"/>
      <point x="99" y="363" type="line"/>
    </contour>
  </outline>
</glyph>
<glyph name="six" format="1">
  <advance width="672"/>
  <unicode hex="0036"/>
  <outline>
    <contour>
      <point x="333" y="65" type="curve" smooth="yes"/>
      <point x="391.667" y="65"/>
      <point x="438.499" y="79.6689"/>
      <point x="473.499" y="109.002" type="curve" smooth="yes"/>
      <point x="508.499" y="138.335"/>
      <point x="525.999" y="181.335"/>
      <point x="525.999" y="238.002" type="curve" smooth="yes"/>
      <point x="525.999" y="265.335"/>
      <point x="521.499" y="289.668"/>
      <point x="512.499" y="311.001" type="curve" smooth="yes"/>
      <point x="503.499" y="332.334"/>
      <point x="491.332" y="350.167"/>
      <point x="475.999" y="364.5" type="curve" smooth="yes"/>
      <point x="460.666" y="378.833"/>
      <point x="442.333" y="389.833"/>
      <point x="421" y="397.5" type="curve" smooth="yes"/>
      <point x="399.667" y="405.167"/>
      <point x="376.667" y="409"/>
      <point x="352" y="409" type="curve" smooth="yes"/>
      <point x="288.667" y="409"/>
      <point x="240.167" y="392.167"/>
      <point x="206.5" y="358.5" type="curve" smooth="yes"/>
      <point x="172.833" y="324.833"/>
      <point x="155" y="279"/>
      <point x="153" y="221" type="curve"/>
      <point x="157.667" y="199"/>
      <point x="164.334" y="178.5"/>
      <point x="173.001" y="159.5" type="curve" smooth="yes"/>
      <point x="181.668" y="140.5"/>
      <point x="193.168" y="124"/>
      <point x="207.501" y="110" type="curve" smooth="yes"/>
      <point x="221.834" y="96"/>
      <point x="239.167" y="85"/>
      <point x="259.5" y="77" type="curve" smooth="yes"/>
      <point x="279.833" y="69"/>
      <point x="304.333" y="65"/>
    </contour>
    <contour>
      <point x="139.999" y="370.002" type="line"/>
      <point x="165.332" y="412.669"/>
      <point x="194.335" y="442.831"/>
      <point x="227.002" y="460.498" type="curve" smooth="yes"/>
      <point x="259.669" y="478.165"/>
      <point x="299.669" y="486.998"/>
      <point x="347.002" y="486.998" type="curve" smooth="yes"/>
      <point x="383.002" y="486.998"/>
      <point x="417.169" y="482.665"/>
      <point x="449.502" y="473.998" type="curve" smooth="yes"/>
      <point x="481.835" y="465.331"/>
      <point x="510.168" y="451.664"/>
      <point x="534.501" y="432.997" type="curve" smooth="yes"/>
      <point x="558.834" y="414.33"/>
      <point x="578.167" y="389.83"/>
      <point x="592.5" y="359.497" type="curve" smooth="yes"/>
      <point x="606.833" y="329.164"/>
      <point x="614" y="292.664"/>
      <point x="614" y="249.997" type="curve" smooth="yes"/>
      <point x="614" y="207.997"/>
      <point x="607.167" y="170.83"/>
      <point x="593.5" y="138.497" type="curve" smooth="yes"/>
      <point x="579.833" y="106.164"/>
      <point x="560.833" y="78.8311"/>
      <point x="536.5" y="56.498" type="curve" smooth="yes"/>
      <point x="512.167" y="34.165"/>
      <point x="483.167" y="17.332"/>
      <point x="449.5" y="5.99902" type="curve" smooth="yes"/>
      <point x="415.833" y="-5.33398"/>
      <point x="378.666" y="-11.001"/>
      <point x="337.999" y="-11.001" type="curve" smooth="yes"/>
      <point x="277.999" y="-11.001"/>
      <point x="229.332" y="-0.167969"/>
      <point x="191.999" y="21.499" type="curve" smooth="yes"/>
      <point x="154.666" y="43.166"/>
      <point x="125.499" y="71.833"/>
      <point x="104.499" y="107.5" type="curve" smooth="yes"/>
      <point x="83.499" y="143.167"/>
      <point x="69.332" y="184.167"/>
      <point x="61.999" y="230.5" type="curve" smooth="yes"/>
      <point x="54.666" y="276.833"/>
      <point x="50.999" y="324.666"/>
      <point x="50.999" y="373.999" type="curve" smooth="yes"/>
      <point x="50.999" y="422.666"/>
      <point x="55.999" y="469.833"/>
      <point x="65.999" y="515.5" type="curve" smooth="yes"/>
      <point x="75.999" y="561.167"/>
      <point x="92.499" y="601.834"/>
      <point x="115.499" y="637.501" type="curve" smooth="yes"/>
      <point x="138.499" y="673.168"/>
      <point x="168.832" y="701.835"/>
      <point x="206.499" y="723.502" type="curve" smooth="yes"/>
      <point x="244.166" y="745.169"/>
      <point x="290.333" y="756.002"/>
      <point x="345" y="756.002" type="curve" smooth="yes"/>
      <point x="425" y="756.002"/>
      <point x="486.5" y="739.335"/>
      <point x="529.5" y="706.002" type="curve" smooth="yes"/>
      <point x="572.5" y="672.669"/>
      <point x="594.667" y="625.669"/>
      <point x="596" y="565.002" type="curve"/>
      <point x="515" y="549.002" type="line"/>
      <point x="513" y="573.669"/>
      <point x="506.5" y="594.336"/>
      <point x="495.5" y="611.003" type="curve" smooth="yes"/>
      <point x="484.5" y="627.67"/>
      <point x="471.167" y="641.003"/>
      <point x="455.5" y="651.003" type="curve" smooth="yes"/>
      <point x="439.833" y="661.003"/>
      <point x="422.666" y="668.17"/>
      <point x="403.999" y="672.503" type="curve" smooth="yes"/>
      <point x="385.332" y="676.836"/>
      <point x="367.332" y="679.003"/>
      <point x="349.999" y="679.003" type="curve" smooth="yes"/>
      <point x="307.999" y="679.003"/>
      <point x="273.332" y="670.503"/>
      <point x="245.999" y="653.503" type="curve" smooth="yes"/>
      <point x="218.666" y="636.503"/>
      <point x="197.166" y="613.836"/>
      <point x="181.499" y="585.503" type="curve" smooth="yes"/>
      <point x="165.832" y="557.17"/>
      <point x="154.999" y="524.67"/>
      <point x="148.999" y="488.003" type="curve" smooth="yes"/>
      <point x="142.999" y="451.336"/>
      <point x="139.999" y="413.669"/>
      <point x="139.999" y="375.002" type="curve" smooth="yes"/>
    </contour>
  </outline>
</glyph>
<glyph name="seven" format="1">
  <advance width="672"/>
  <unicode hex="0037"/>
  <outline>
    <contour>
      <point x="178" y="0" type="line"/>
      <point x="178.667" y="30"/>
      <point x="182.502" y="62.166"/>
      <point x="189.502" y="96.499" type="curve" smooth="yes"/>
      <point x="196.502" y="130.832"/>
      <point x="205.669" y="165.665"/>
      <point x="217.002" y="200.998" type="curve" smooth="yes"/>
      <point x="238.335" y="265.665"/>
      <point x="266.168" y="329.665"/>
      <point x="300.501" y="392.998" type="curve" smooth="yes"/>
      <point x="334.834" y="456.331"/>
      <point x="372.001" y="513.998"/>
      <point x="412.001" y="565.998" type="curve" smooth="yes"/>
      <point x="425.334" y="583.331"/>
      <point x="438.501" y="599.998"/>
      <point x="451.501" y="615.998" type="curve" smooth="yes"/>
      <point x="464.501" y="631.998"/>
      <point x="477.668" y="647.331"/>
      <point x="491.001" y="661.998" type="curve"/>
      <point x="421.001" y="661.998"/>
      <point x="350.001" y="661.831"/>
      <point x="278.001" y="661.498" type="curve" smooth="yes"/>
      <point x="206.001" y="661.165"/>
      <point x="135.001" y="660.998"/>
      <point x="65.001" y="660.998" type="curve"/>
      <point x="65.001" y="745.998" type="line"/>
      <point x="616.001" y="745.998" type="line"/>
      <point x="616.001" y="671.998" type="line"/>
      <point x="598.001" y="652.665"/>
      <point x="578.001" y="629.832"/>
      <point x="556.001" y="603.499" type="curve" smooth="yes"/>
      <point x="534.001" y="577.166"/>
      <point x="512.668" y="549.999"/>
      <point x="492.001" y="521.999" type="curve" smooth="yes"/>
      <point x="453.334" y="469.332"/>
      <point x="418.334" y="415.832"/>
      <point x="387.001" y="361.499" type="curve" smooth="yes"/>
      <point x="355.668" y="307.166"/>
      <point x="330.001" y="250.333"/>
      <point x="310.001" y="191" type="curve" smooth="yes"/>
      <point x="300.001" y="161"/>
      <point x="291.168" y="128.667"/>
      <point x="283.501" y="94" type="curve" smooth="yes"/>
      <point x="275.834" y="59.333"/>
      <point x="271.667" y="28"/>
      <point x="271" y="0" type="curve"/>
    </contour>
  </outline>
</glyph>
<glyph name="eight" format="1">
  <advance width="672"/>
  <unicode hex="0038"/>
  <outline>
    <contour>
      <point x="337" y="-9" type="curve" smooth="yes"/>
      <point x="291" y="-9"/>
      <point x="249.498" y="-4.33008"/>
      <point x="212.498" y="5.00293" type="curve" smooth="yes"/>
      <point x="175.498" y="14.3359"/>
      <point x="144.165" y="28.1689"/>
      <point x="118.498" y="46.502" type="curve" smooth="yes"/>
      <point x="92.8311" y="64.835"/>
      <point x="72.998" y="87.668"/>
      <point x="58.998" y="115.001" type="curve" smooth="yes"/>
      <point x="44.998" y="142.334"/>
      <point x="37.998" y="173.667"/>
      <point x="37.998" y="209" type="curve" smooth="yes"/>
      <point x="37.998" y="244.333"/>
      <point x="47.165" y="277.166"/>
      <point x="65.498" y="307.499" type="curve" smooth="yes"/>
      <point x="83.8311" y="337.832"/>
      <point x="111.998" y="362.999"/>
      <point x="149.998" y="382.999" type="curve"/>
      <point x="89.3311" y="416.332"/>
      <point x="58.998" y="471.332"/>
      <point x="58.998" y="547.999" type="curve" smooth="yes"/>
      <point x="58.998" y="615.999"/>
      <point x="83.8311" y="667.666"/>
      <point x="133.498" y="702.999" type="curve" smooth="yes"/>
      <point x="183.165" y="738.332"/>
      <point x="250.998" y="755.999"/>
      <point x="336.998" y="755.999" type="curve" smooth="yes"/>
      <point x="380.331" y="755.999"/>
      <point x="419.498" y="751.499"/>
      <point x="454.498" y="742.499" type="curve" smooth="yes"/>
      <point x="489.498" y="733.499"/>
      <point x="519.331" y="720.332"/>
      <point x="543.998" y="702.999" type="curve" smooth="yes"/>
      <point x="568.665" y="685.666"/>
      <point x="587.665" y="663.999"/>
      <point x="600.998" y="637.999" type="curve" smooth="yes"/>
      <point x="614.331" y="611.999"/>
      <point x="620.998" y="581.999"/>
      <point x="620.998" y="547.999" type="curve" smooth="yes"/>
      <point x="620.998" y="511.332"/>
      <point x="612.331" y="479.499"/>
      <point x="594.998" y="452.499" type="curve" smooth="yes"/>
      <point x="577.665" y="425.499"/>
      <point x="553.665" y="403.332"/>
      <point x="522.998" y="385.999" type="curve"/>
      <point x="560.331" y="368.666"/>
      <point x="589.331" y="345.166"/>
      <point x="609.998" y="315.499" type="curve" smooth="yes"/>
      <point x="630.665" y="285.832"/>
      <point x="640.998" y="250.332"/>
      <point x="640.998" y="208.999" type="curve" smooth="yes"/>
      <point x="640.998" y="172.999"/>
      <point x="633.831" y="141.499"/>
      <point x="619.498" y="114.499" type="curve" smooth="yes"/>
      <point x="605.165" y="87.499"/>
      <point x="584.832" y="64.832"/>
      <point x="558.499" y="46.499" type="curve" smooth="yes"/>
      <point x="532.166" y="28.166"/>
      <point x="500.333" y="14.333"/>
      <point x="463" y="5" type="curve" smooth="yes"/>
      <point x="425.667" y="-4.33301"/>
      <point x="383.667" y="-9"/>
    </contour>
    <contour>
      <point x="336.998" y="73.0029" type="curve" smooth="yes"/>
      <point x="403.665" y="73.0029"/>
      <point x="454.666" y="84.501"/>
      <point x="489.999" y="107.501" type="curve" smooth="yes"/>
      <point x="525.332" y="130.501"/>
      <point x="542.999" y="164.334"/>
      <point x="542.999" y="209.001" type="curve" smooth="yes"/>
      <point x="542.999" y="255.001"/>
      <point x="525.332" y="289.168"/>
      <point x="489.999" y="311.501" type="curve" smooth="yes"/>
      <point x="454.666" y="333.834"/>
      <point x="403.666" y="345.001"/>
      <point x="336.999" y="345.001" type="curve" smooth="yes"/>
      <point x="304.332" y="345.001"/>
      <point x="275.499" y="341.334"/>
      <point x="250.499" y="334.001" type="curve" smooth="yes"/>
      <point x="225.499" y="326.668"/>
      <point x="204.499" y="316.835"/>
      <point x="187.499" y="304.502" type="curve" smooth="yes"/>
      <point x="170.499" y="292.169"/>
      <point x="157.666" y="277.836"/>
      <point x="148.999" y="261.503" type="curve" smooth="yes"/>
      <point x="140.332" y="245.17"/>
      <point x="135.999" y="227.67"/>
      <point x="135.999" y="209.003" type="curve" smooth="yes"/>
      <point x="135.999" y="164.336"/>
      <point x="153.166" y="130.503"/>
      <point x="187.499" y="107.503" type="curve" smooth="yes"/>
      <point x="221.832" y="84.5029"/>
      <point x="271.665" y="73.0029"/>
    </contour>
    <contour>
      <point x="336.999" y="674.001" type="curve" smooth="yes"/>
      <point x="278.332" y="674.001"/>
      <point x="233.667" y="663.334"/>
      <point x="203" y="642.001" type="curve" smooth="yes"/>
      <point x="172.333" y="620.668"/>
      <point x="157" y="589.335"/>
      <point x="157" y="548.002" type="curve" smooth="yes"/>
      <point x="157" y="504.002"/>
      <point x="170" y="472.502"/>
      <point x="196" y="453.502" type="curve" smooth="yes"/>
      <point x="222" y="434.502"/>
      <point x="260" y="423.669"/>
      <point x="310" y="421.002" type="curve" smooth="yes"/>
      <point x="314" y="421.669"/>
      <point x="318.333" y="422.002"/>
      <point x="323" y="422.002" type="curve" smooth="yes"/>
      <point x="337" y="422.002" type="line"/>
      <point x="350" y="422.002" type="line" smooth="yes"/>
      <point x="354" y="422.002"/>
      <point x="358.333" y="421.669"/>
      <point x="363" y="421.002" type="curve" smooth="yes"/>
      <point x="415" y="424.335"/>
      <point x="454.667" y="436.335"/>
      <point x="482" y="457.002" type="curve" smooth="yes"/>
      <point x="509.333" y="477.669"/>
      <point x="523" y="508.002"/>
      <point x="523" y="548.002" type="curve" smooth="yes"/>
      <point x="523" y="589.335"/>
      <point x="507.167" y="620.668"/>
      <point x="475.5" y="642.001" type="curve" smooth="yes"/>
      <point x="443.833" y="663.334"/>
      <point x="397.666" y="674.001"/>
    </contour>
  </outline>
</glyph>
<glyph name="nine" format="1">
  <advance width="672"/>
  <unicode hex="0039"/>
  <outline>
    <contour>
      <point x="332" y="680" type="curve" smooth="yes"/>
      <point x="273.333" y="680"/>
      <point x="226.501" y="665.332"/>
      <point x="191.501" y="635.999" type="curve" smooth="yes"/>
      <point x="156.501" y="606.666"/>
      <point x="139.001" y="563.666"/>
      <point x="139.001" y="506.999" type="curve" smooth="yes"/>
      <point x="139.001" y="479.666"/>
      <point x="143.501" y="455.333"/>
      <point x="152.501" y="434" type="curve" smooth="yes"/>
      <point x="161.501" y="412.667"/>
      <point x="173.668" y="394.667"/>
      <point x="189.001" y="380" type="curve" smooth="yes"/>
      <point x="204.334" y="365.333"/>
      <point x="222.667" y="354.333"/>
      <point x="244" y="347" type="curve" smooth="yes"/>
      <point x="265.333" y="339.667"/>
      <point x="288.333" y="336"/>
      <point x="313" y="336" type="curve" smooth="yes"/>
      <point x="376.333" y="336"/>
      <point x="424.833" y="352.833"/>
      <point x="458.5" y="386.5" type="curve" smooth="yes"/>
      <point x="492.167" y="420.167"/>
      <point x="510" y="466"/>
      <point x="512" y="524" type="curve"/>
      <point x="507.333" y="546"/>
      <point x="500.666" y="566.5"/>
      <point x="491.999" y="585.5" type="curve" smooth="yes"/>
      <point x="483.332" y="604.5"/>
      <point x="471.832" y="621"/>
      <point x="457.499" y="635" type="curve" smooth="yes"/>
      <point x="443.166" y="649"/>
      <point x="425.833" y="660"/>
      <point x="405.5" y="668" type="curve" smooth="yes"/>
      <point x="385.167" y="676"/>
      <point x="360.667" y="680"/>
    </contour>
    <contour>
      <point x="525.001" y="374.999" type="line"/>
      <point x="499.668" y="332.332"/>
      <point x="470.665" y="302.173"/>
      <point x="437.998" y="284.506" type="curve" smooth="yes"/>
      <point x="405.331" y="266.839"/>
      <point x="365.331" y="258.006"/>
      <point x="317.998" y="258.006" type="curve" smooth="yes"/>
      <point x="281.998" y="258.006"/>
      <point x="247.831" y="262.339"/>
      <point x="215.498" y="271.006" type="curve" smooth="yes"/>
      <point x="183.165" y="279.673"/>
      <point x="154.832" y="293.34"/>
      <point x="130.499" y="312.007" type="curve" smooth="yes"/>
      <point x="106.166" y="330.674"/>
      <point x="86.833" y="355.007"/>
      <point x="72.5" y="385.007" type="curve" smooth="yes"/>
      <point x="58.167" y="415.007"/>
      <point x="51" y="451.674"/>
      <point x="51" y="495.007" type="curve" smooth="yes"/>
      <point x="51" y="537.007"/>
      <point x="57.833" y="574.174"/>
      <point x="71.5" y="606.507" type="curve" smooth="yes"/>
      <point x="85.167" y="638.84"/>
      <point x="104.167" y="666.173"/>
      <point x="128.5" y="688.506" type="curve" smooth="yes"/>
      <point x="152.833" y="710.839"/>
      <point x="181.833" y="727.672"/>
      <point x="215.5" y="739.005" type="curve" smooth="yes"/>
      <point x="249.167" y="750.338"/>
      <point x="286.334" y="756.005"/>
      <point x="327.001" y="756.005" type="curve" smooth="yes"/>
      <point x="387.001" y="756.005"/>
      <point x="435.668" y="745.172"/>
      <point x="473.001" y="723.505" type="curve" smooth="yes"/>
      <point x="510.334" y="701.838"/>
      <point x="539.501" y="673.171"/>
      <point x="560.501" y="637.504" type="curve" smooth="yes"/>
      <point x="581.501" y="601.837"/>
      <point x="595.668" y="560.837"/>
      <point x="603.001" y="514.504" type="curve" smooth="yes"/>
      <point x="610.334" y="468.171"/>
      <point x="614.001" y="420.338"/>
      <point x="614.001" y="371.005" type="curve" smooth="yes"/>
      <point x="614.001" y="322.338"/>
      <point x="609.001" y="275.171"/>
      <point x="599.001" y="229.504" type="curve" smooth="yes"/>
      <point x="589.001" y="183.837"/>
      <point x="572.501" y="143.17"/>
      <point x="549.501" y="107.503" type="curve" smooth="yes"/>
      <point x="526.501" y="71.8359"/>
      <point x="496.168" y="43.1689"/>
      <point x="458.501" y="21.502" type="curve" smooth="yes"/>
      <point x="420.834" y="-0.165039"/>
      <point x="374.667" y="-10.998"/>
      <point x="320" y="-10.998" type="curve" smooth="yes"/>
      <point x="240" y="-10.998"/>
      <point x="178.5" y="5.66895"/>
      <point x="135.5" y="39.002" type="curve" smooth="yes"/>
      <point x="92.5" y="72.335"/>
      <point x="70.333" y="119.335"/>
      <point x="69" y="180.002" type="curve"/>
      <point x="150" y="196.002" type="line"/>
      <point x="152" y="171.335"/>
      <point x="158.5" y="150.668"/>
      <point x="169.5" y="134.001" type="curve" smooth="yes"/>
      <point x="180.5" y="117.334"/>
      <point x="193.833" y="104.001"/>
      <point x="209.5" y="94.001" type="curve" smooth="yes"/>
      <point x="225.167" y="84.001"/>
      <point x="242.334" y="76.834"/>
      <point x="261.001" y="72.501" type="curve" smooth="yes"/>
      <point x="279.668" y="68.168"/>
      <point x="297.668" y="66.001"/>
      <point x="315.001" y="66.001" type="curve" smooth="yes"/>
      <point x="357.001" y="66.001"/>
      <point x="391.668" y="74.501"/>
      <point x="419.001" y="91.501" type="curve" smooth="yes"/>
      <point x="446.334" y="108.501"/>
      <point x="467.834" y="131.168"/>
      <point x="483.501" y="159.501" type="curve" smooth="yes"/>
      <point x="499.168" y="187.834"/>
      <point x="510.001" y="220.167"/>
      <point x="516.001" y="256.5" type="curve" smooth="yes"/>
      <point x="522.001" y="292.833"/>
      <point x="525.001" y="330.666"/>
      <point x="525.001" y="369.999" type="curve" smooth="yes"/>
    </contour>
  </outline>
</glyph>
<glyph name="colon" format="1">
  <advance width="335"/>
  <unicode hex="003A"/>
  <outline>
    <contour>
      <point x="95" y="401" type="curve" smooth="yes"/>
      <point x="95" y="423.667"/>
      <point x="102" y="442.334"/>
      <point x="116" y="457.001" type="curve" smooth="yes"/>
      <point x="130" y="471.668"/>
      <point x="147.667" y="479.001"/>
      <point x="169" y="479.001" type="curve" smooth="yes"/>
      <point x="191.667" y="479.001"/>
      <point x="210.334" y="471.668"/>
      <point x="225.001" y="457.001" type="curve" smooth="yes"/>
      <point x="239.668" y="442.334"/>
      <point x="247.001" y="423.667"/>
      <point x="247.001" y="401" type="curve" smooth="yes"/>
      <point x="247.001" y="379.667"/>
      <point x="239.668" y="362"/>
      <point x="225.001" y="348" type="curve" smooth="yes"/>
      <point x="210.334" y="334"/>
      <point x="191.667" y="327"/>
      <point x="169" y="327" type="curve" smooth="yes"/>
      <point x="147.667" y="327"/>
      <point x="130" y="334"/>
      <point x="116" y="348" type="curve" smooth="yes"/>
      <point x="102" y="362"/>
      <point x="95" y="379.667"/>
    </contour>
    <contour>
      <point x="95" y="68" type="curve" smooth="yes"/>
      <point x="95" y="90.667"/>
      <point x="102" y="109.334"/>
      <point x="116" y="124.001" type="curve" smooth="yes"/>
      <point x="130" y="138.668"/>
      <point x="147.667" y="146.001"/>
      <point x="169" y="146.001" type="curve" smooth="yes"/>
      <point x="191.667" y="146.001"/>
      <point x="210.334" y="138.668"/>
      <point x="225.001" y="124.001" type="curve" smooth="yes"/>
      <point x="239.668" y="109.334"/>
      <point x="247.001" y="90.667"/>
      <point x="247.001" y="68" type="curve" smooth="yes"/>
      <point x="247.001" y="46.667"/>
      <point x="239.668" y="29"/>
      <point x="225.001" y="15" type="curve" smooth="yes"/>
      <point x="210.334" y="1"/>
      <point x="191.667" y="-6"/>
      <point x="169" y="-6" type="curve" smooth="yes"/>
      <point x="147.667" y="-6"/>
      <point x="130" y="1"/>
      <point x="116" y="15" type="curve" smooth="yes"/>
      <point x="102" y="29"/>
      <point x="95" y="46.667"/>
    </contour>
  </outline>
</glyph>
<glyph name="semicolon" format="1">
  <advance width="338"/>
  <unicode hex="003B"/>
  <outline>
    <contour>
      <point x="92" y="73" type="curve" smooth="yes"/>
      <point x="92" y="92.333"/>
      <point x="98.834" y="108.999"/>
      <point x="112.501" y="122.999" type="curve" smooth="yes"/>
      <point x="126.168" y="136.999"/>
      <point x="143.001" y="143.999"/>
      <point x="163.001" y="143.999" type="curve" smooth="yes"/>
      <point x="179.668" y="143.999"/>
      <point x="193.501" y="140.832"/>
      <point x="204.501" y="134.499" type="curve" smooth="yes"/>
      <point x="215.501" y="128.166"/>
      <point x="224.668" y="120.333"/>
      <point x="232.001" y="111" type="curve" smooth="yes"/>
      <point x="244.668" y="94.333"/>
      <point x="251.001" y="73.333"/>
      <point x="251.001" y="48" type="curve" smooth="yes"/>
      <point x="251.001" y="6.66699"/>
      <point x="240.668" y="-33.333"/>
      <point x="220.001" y="-72" type="curve" smooth="yes"/>
      <point x="210.001" y="-90"/>
      <point x="197.001" y="-107.667"/>
      <point x="181.001" y="-125" type="curve" smooth="yes"/>
      <point x="165.001" y="-142.333"/>
      <point x="150.001" y="-156.333"/>
      <point x="136.001" y="-167" type="curve"/>
      <point x="98.001" y="-124" type="line"/>
      <point x="111.334" y="-111.333"/>
      <point x="123.334" y="-98.333"/>
      <point x="134.001" y="-85" type="curve" smooth="yes"/>
      <point x="143.334" y="-73.667"/>
      <point x="151.667" y="-60.5"/>
      <point x="159" y="-45.5" type="curve" smooth="yes"/>
      <point x="166.333" y="-30.5"/>
      <point x="170.333" y="-15.333"/>
      <point x="171" y="0" type="curve"/>
      <point x="165" y="0" type="line" smooth="yes"/>
      <point x="139.667" y="0"/>
      <point x="121.167" y="7.66699"/>
      <point x="109.5" y="23" type="curve" smooth="yes"/>
      <point x="97.833" y="38.333"/>
      <point x="92" y="55"/>
    </contour>
    <contour>
      <point x="93.001" y="400.999" type="curve" smooth="yes"/>
      <point x="93.001" y="423.666"/>
      <point x="100.001" y="442.333"/>
      <point x="114.001" y="457" type="curve" smooth="yes"/>
      <point x="128.001" y="471.667"/>
      <point x="145.668" y="479"/>
      <point x="167.001" y="479" type="curve" smooth="yes"/>
      <point x="189.668" y="479"/>
      <point x="208.335" y="471.667"/>
      <point x="223.002" y="457" type="curve" smooth="yes"/>
      <point x="237.669" y="442.333"/>
      <point x="245.002" y="423.666"/>
      <point x="245.002" y="400.999" type="curve" smooth="yes"/>
      <point x="245.002" y="379.666"/>
      <point x="237.669" y="361.999"/>
      <point x="223.002" y="347.999" type="curve" smooth="yes"/>
      <point x="208.335" y="333.999"/>
      <point x="189.668" y="326.999"/>
      <point x="167.001" y="326.999" type="curve" smooth="yes"/>
      <point x="145.668" y="326.999"/>
      <point x="128.001" y="333.999"/>
      <point x="114.001" y="347.999" type="curve" smooth="yes"/>
      <point x="100.001" y="361.999"/>
      <point x="93.001" y="379.666"/>
    </contour>
  </outline>
</glyph>
<glyph name="question" format="1">
  <advance width="534"/>
  <unicode hex="003F"/>
  <outline>
    <contour>
      <point x="27" y="565" type="line"/>
      <point x="28.333" y="625.667"/>
      <point x="51.332" y="672.672"/>
      <point x="95.999" y="706.005" type="curve" smooth="yes"/>
      <point x="140.666" y="739.338"/>
      <point x="204.999" y="756.005"/>
      <point x="288.999" y="756.005" type="curve" smooth="yes"/>
      <point x="321.666" y="756.005"/>
      <point x="352.333" y="751.338"/>
      <point x="381" y="742.005" type="curve" smooth="yes"/>
      <point x="409.667" y="732.672"/>
      <point x="434.667" y="720.005"/>
      <point x="456" y="704.005" type="curve" smooth="yes"/>
      <point x="477.333" y="688.005"/>
      <point x="494" y="669.172"/>
      <point x="506" y="647.505" type="curve" smooth="yes"/>
      <point x="518" y="625.838"/>
      <point x="524" y="602.671"/>
      <point x="524" y="578.004" type="curve" smooth="yes"/>
      <point x="524" y="546.004"/>
      <point x="518" y="520.171"/>
      <point x="506" y="500.504" type="curve" smooth="yes"/>
      <point x="494" y="480.837"/>
      <point x="478" y="465.004"/>
      <point x="458" y="453.004" type="curve" smooth="yes"/>
      <point x="438" y="441.004"/>
      <point x="415.333" y="431.337"/>
      <point x="390" y="424.004" type="curve" smooth="yes"/>
      <point x="364.667" y="416.671"/>
      <point x="339" y="409.004"/>
      <point x="313" y="401.004" type="curve" smooth="yes"/>
      <point x="296.333" y="395.671"/>
      <point x="281.333" y="390.671"/>
      <point x="268" y="386.004" type="curve" smooth="yes"/>
      <point x="254.667" y="381.337"/>
      <point x="243.167" y="375.67"/>
      <point x="233.5" y="369.003" type="curve" smooth="yes"/>
      <point x="223.833" y="362.336"/>
      <point x="216.5" y="354.669"/>
      <point x="211.5" y="346.002" type="curve" smooth="yes"/>
      <point x="206.5" y="337.335"/>
      <point x="204" y="327.002"/>
      <point x="204" y="315.002" type="curve" smooth="yes"/>
      <point x="204" y="294.335"/>
      <point x="209.333" y="280.002"/>
      <point x="220" y="272.002" type="curve" smooth="yes"/>
      <point x="230.667" y="264.002"/>
      <point x="245.667" y="260.335"/>
      <point x="265" y="261.002" type="curve" smooth="yes"/>
      <point x="273" y="261.002"/>
      <point x="280.333" y="263.002"/>
      <point x="287" y="267.002" type="curve" smooth="yes"/>
      <point x="293.667" y="271.002"/>
      <point x="299.5" y="275.669"/>
      <point x="304.5" y="281.002" type="curve" smooth="yes"/>
      <point x="309.5" y="286.335"/>
      <point x="313.5" y="291.835"/>
      <point x="316.5" y="297.502" type="curve" smooth="yes"/>
      <point x="319.5" y="303.169"/>
      <point x="321" y="308.002"/>
      <point x="321" y="312.002" type="curve" smooth="yes"/>
      <point x="385" y="303.002" type="line"/>
      <point x="385.667" y="285.669"/>
      <point x="382.334" y="270.169"/>
      <point x="375.001" y="256.502" type="curve" smooth="yes"/>
      <point x="367.668" y="242.835"/>
      <point x="358.001" y="231.168"/>
      <point x="346.001" y="221.501" type="curve" smooth="yes"/>
      <point x="334.001" y="211.834"/>
      <point x="320.168" y="204.501"/>
      <point x="304.501" y="199.501" type="curve" smooth="yes"/>
      <point x="288.834" y="194.501"/>
      <point x="272.667" y="191.668"/>
      <point x="256" y="191.001" type="curve" smooth="yes"/>
      <point x="234" y="190.334"/>
      <point x="214.167" y="193.501"/>
      <point x="196.5" y="200.501" type="curve" smooth="yes"/>
      <point x="178.833" y="207.501"/>
      <point x="164.166" y="217.001"/>
      <point x="152.499" y="229.001" type="curve" smooth="yes"/>
      <point x="140.832" y="241.001"/>
      <point x="131.999" y="254.834"/>
      <point x="125.999" y="270.501" type="curve" smooth="yes"/>
      <point x="119.999" y="286.168"/>
      <point x="117.332" y="302.335"/>
      <point x="117.999" y="319.002" type="curve" smooth="yes"/>
      <point x="118.666" y="337.669"/>
      <point x="122.833" y="354.669"/>
      <point x="130.5" y="370.002" type="curve" smooth="yes"/>
      <point x="138.167" y="385.335"/>
      <point x="148" y="398.835"/>
      <point x="160" y="410.502" type="curve" smooth="yes"/>
      <point x="172" y="422.169"/>
      <point x="185.833" y="432.002"/>
      <point x="201.5" y="440.002" type="curve" smooth="yes"/>
      <point x="217.167" y="448.002"/>
      <point x="233.667" y="454.335"/>
      <point x="251" y="459.002" type="curve" smooth="yes"/>
      <point x="276.333" y="465.669"/>
      <point x="299.833" y="472.002"/>
      <point x="321.5" y="478.002" type="curve" smooth="yes"/>
      <point x="343.167" y="484.002"/>
      <point x="362" y="491.002"/>
      <point x="378" y="499.002" type="curve" smooth="yes"/>
      <point x="394" y="507.002"/>
      <point x="406.5" y="516.502"/>
      <point x="415.5" y="527.502" type="curve" smooth="yes"/>
      <point x="424.5" y="538.502"/>
      <point x="429" y="552.669"/>
      <point x="429" y="570.002" type="curve" smooth="yes"/>
      <point x="429" y="591.335"/>
      <point x="423.333" y="609.002"/>
      <point x="412" y="623.002" type="curve" smooth="yes"/>
      <point x="400.667" y="637.002"/>
      <point x="387" y="648.169"/>
      <point x="371" y="656.502" type="curve" smooth="yes"/>
      <point x="355" y="664.835"/>
      <point x="338" y="670.668"/>
      <point x="320" y="674.001" type="curve" smooth="yes"/>
      <point x="302" y="677.334"/>
      <point x="286.667" y="679.001"/>
      <point x="274" y="679.001" type="curve" smooth="yes"/>
      <point x="255.333" y="679.001"/>
      <point x="236.5" y="676.834"/>
      <point x="217.5" y="672.501" type="curve" smooth="yes"/>
      <point x="198.5" y="668.168"/>
      <point x="181.333" y="661.001"/>
      <point x="166" y="651.001" type="curve" smooth="yes"/>
      <point x="150.667" y="641.001"/>
      <point x="137.667" y="627.668"/>
      <point x="127" y="611.001" type="curve" smooth="yes"/>
      <point x="116.333" y="594.334"/>
      <point x="110" y="573.667"/>
      <point x="108" y="549" type="curve"/>
    </contour>
    <contour>
      <point x="168.999" y="68.0049" type="curve" smooth="yes"/>
      <point x="168.999" y="90.6719"/>
      <point x="175.999" y="109.339"/>
      <point x="189.999" y="124.006" type="curve" smooth="yes"/>
      <point x="203.999" y="138.673"/>
      <point x="221.666" y="146.006"/>
      <point x="242.999" y="146.006" type="curve" smooth="yes"/>
      <point x="265.666" y="146.006"/>
      <point x="284.333" y="138.673"/>
      <point x="299" y="124.006" type="curve" smooth="yes"/>
      <point x="313.667" y="109.339"/>
      <point x="321" y="90.6719"/>
      <point x="321" y="68.0049" type="curve" smooth="yes"/>
      <point x="321" y="46.6719"/>
      <point x="313.667" y="29.0049"/>
      <point x="299" y="15.0049" type="curve" smooth="yes"/>
      <point x="284.333" y="1.00488"/>
      <point x="265.666" y="-5.99512"/>
      <point x="242.999" y="-5.99512" type="curve" smooth="yes"/>
      <point x="221.666" y="-5.99512"/>
      <point x="203.999" y="1.00488"/>
      <point x="189.999" y="15.0049" type="curve" smooth="yes"/>
      <point x="175.999" y="29.0049"/>
      <point x="168.999" y="46.6719"/>
    </contour>
  </outline>
</glyph>
<glyph name="at" format="1">
  <advance width="732"/>
  <unicode hex="0040"/>
  <outline>
    <contour>
      <point x="555" y="-32" type="line"/>
      <point x="545.667" y="-41.333"/>
      <point x="533.67" y="-49.8369"/>
      <point x="519.003" y="-57.5039" type="curve" smooth="yes"/>
      <point x="504.336" y="-65.1709"/>
      <point x="488.503" y="-71.6709"/>
      <point x="471.503" y="-77.0039" type="curve" smooth="yes"/>
      <point x="454.503" y="-82.3369"/>
      <point x="436.67" y="-86.5039"/>
      <point x="418.003" y="-89.5039" type="curve" smooth="yes"/>
      <point x="399.336" y="-92.5039"/>
      <point x="381.669" y="-94.0039"/>
      <point x="365.002" y="-94.0039" type="curve" smooth="yes"/>
      <point x="313.669" y="-94.0039"/>
      <point x="268.502" y="-86.6709"/>
      <point x="229.502" y="-72.0039" type="curve" smooth="yes"/>
      <point x="190.502" y="-57.3369"/>
      <point x="157.669" y="-36.1699"/>
      <point x="131.002" y="-8.50293" type="curve" smooth="yes"/>
      <point x="104.335" y="19.1641"/>
      <point x="84.168" y="52.8311"/>
      <point x="70.501" y="92.498" type="curve" smooth="yes"/>
      <point x="56.834" y="132.165"/>
      <point x="50.001" y="176.665"/>
      <point x="50.001" y="225.998" type="curve" smooth="yes"/>
      <point x="50.001" y="280.665"/>
      <point x="57.668" y="329.832"/>
      <point x="73.001" y="373.499" type="curve" smooth="yes"/>
      <point x="88.334" y="417.166"/>
      <point x="110.334" y="454.166"/>
      <point x="139.001" y="484.499" type="curve" smooth="yes"/>
      <point x="167.668" y="514.832"/>
      <point x="202.168" y="537.999"/>
      <point x="242.501" y="553.999" type="curve" smooth="yes"/>
      <point x="282.834" y="569.999"/>
      <point x="327.667" y="577.999"/>
      <point x="377" y="577.999" type="curve" smooth="yes"/>
      <point x="417" y="577.999"/>
      <point x="455" y="572.166"/>
      <point x="491" y="560.499" type="curve" smooth="yes"/>
      <point x="527" y="548.832"/>
      <point x="558.667" y="530.999"/>
      <point x="586" y="506.999" type="curve" smooth="yes"/>
      <point x="613.333" y="482.999"/>
      <point x="635.5" y="452.832"/>
      <point x="652.5" y="416.499" type="curve" smooth="yes"/>
      <point x="669.5" y="380.166"/>
      <point x="679" y="337.666"/>
      <point x="681" y="288.999" type="curve" smooth="yes"/>
      <point x="681.667" y="257.666"/>
      <point x="679.667" y="228.499"/>
      <point x="675" y="201.499" type="curve" smooth="yes"/>
      <point x="670.333" y="174.499"/>
      <point x="662.333" y="150.999"/>
      <point x="651" y="130.999" type="curve" smooth="yes"/>
      <point x="639.667" y="110.999"/>
      <point x="625" y="95.332"/>
      <point x="607" y="83.999" type="curve" smooth="yes"/>
      <point x="589" y="72.666"/>
      <point x="567.333" y="66.666"/>
      <point x="542" y="65.999" type="curve" smooth="yes"/>
      <point x="519.333" y="65.999"/>
      <point x="500" y="72.166"/>
      <point x="484" y="84.499" type="curve" smooth="yes"/>
      <point x="468" y="96.832"/>
      <point x="458.333" y="114.332"/>
      <point x="455" y="136.999" type="curve" smooth="yes"/>
      <point x="454.333" y="136.999"/>
      <point x="453.333" y="137.166"/>
      <point x="452" y="137.499" type="curve" smooth="yes"/>
      <point x="450.667" y="137.832"/>
      <point x="449" y="137.999"/>
      <point x="447" y="137.999" type="curve" smooth="yes"/>
      <point x="435" y="118.666"/>
      <point x="419.333" y="101.666"/>
      <point x="400" y="86.999" type="curve" smooth="yes"/>
      <point x="380.667" y="72.332"/>
      <point x="358.334" y="64.999"/>
      <point x="333.001" y="64.999" type="curve" smooth="yes"/>
      <point x="301.001" y="64.999"/>
      <point x="275.001" y="73.499"/>
      <point x="255.001" y="90.499" type="curve" smooth="yes"/>
      <point x="235.001" y="107.499"/>
      <point x="225.001" y="130.332"/>
      <point x="225.001" y="158.999" type="curve" smooth="yes"/>
      <point x="225.001" y="185.666"/>
      <point x="232.334" y="207.499"/>
      <point x="247.001" y="224.499" type="curve" smooth="yes"/>
      <point x="261.668" y="241.499"/>
      <point x="281.668" y="253.332"/>
      <point x="307.001" y="259.999" type="curve" smooth="yes"/>
      <point x="326.334" y="264.666"/>
      <point x="346.667" y="266.999"/>
      <point x="368" y="266.999" type="curve" smooth="yes"/>
      <point x="389.333" y="266.999"/>
      <point x="409.666" y="265.666"/>
      <point x="428.999" y="262.999" type="curve"/>
      <point x="428.999" y="285.999" type="line" smooth="yes"/>
      <point x="428.999" y="293.332"/>
      <point x="428.332" y="301.332"/>
      <point x="426.999" y="309.999" type="curve" smooth="yes"/>
      <point x="425.666" y="318.666"/>
      <point x="422.833" y="326.499"/>
      <point x="418.5" y="333.499" type="curve" smooth="yes"/>
      <point x="414.167" y="340.499"/>
      <point x="408.167" y="346.332"/>
      <point x="400.5" y="350.999" type="curve" smooth="yes"/>
      <point x="392.833" y="355.666"/>
      <point x="382.666" y="357.999"/>
      <point x="369.999" y="357.999" type="curve" smooth="yes"/>
      <point x="355.999" y="357.999"/>
      <point x="344.999" y="355.999"/>
      <point x="336.999" y="351.999" type="curve" smooth="yes"/>
      <point x="328.999" y="347.999"/>
      <point x="323.166" y="342.999"/>
      <point x="319.499" y="336.999" type="curve" smooth="yes"/>
      <point x="315.832" y="330.999"/>
      <point x="313.832" y="324.999"/>
      <point x="313.499" y="318.999" type="curve" smooth="yes"/>
      <point x="313.166" y="312.999"/>
      <point x="313.999" y="307.999"/>
      <point x="315.999" y="303.999" type="curve" smooth="yes"/>
      <point x="235.999" y="309.999" type="line" smooth="yes"/>
      <point x="234.666" y="313.332"/>
      <point x="233.999" y="315.999"/>
      <point x="233.999" y="317.999" type="curve" smooth="yes"/>
      <point x="233.999" y="323.999" type="line" smooth="yes"/>
      <point x="233.999" y="337.999"/>
      <point x="237.832" y="350.666"/>
      <point x="245.499" y="361.999" type="curve" smooth="yes"/>
      <point x="253.166" y="373.332"/>
      <point x="263.499" y="382.999"/>
      <point x="276.499" y="390.999" type="curve" smooth="yes"/>
      <point x="289.499" y="398.999"/>
      <point x="303.999" y="404.999"/>
      <point x="319.999" y="408.999" type="curve" smooth="yes"/>
      <point x="335.999" y="412.999"/>
      <point x="352.666" y="414.999"/>
      <point x="369.999" y="414.999" type="curve" smooth="yes"/>
      <point x="385.999" y="414.999"/>
      <point x="402.166" y="413.332"/>
      <point x="418.499" y="409.999" type="curve" smooth="yes"/>
      <point x="434.832" y="406.666"/>
      <point x="449.332" y="400.333"/>
      <point x="461.999" y="391" type="curve" smooth="yes"/>
      <point x="474.666" y="381.667"/>
      <point x="484.999" y="368.667"/>
      <point x="492.999" y="352" type="curve" smooth="yes"/>
      <point x="500.999" y="335.333"/>
      <point x="504.999" y="313.666"/>
      <point x="504.999" y="286.999" type="curve" smooth="yes"/>
      <point x="504.999" y="204.999" type="line" smooth="yes"/>
      <point x="504.999" y="174.332"/>
      <point x="508.832" y="153.999"/>
      <point x="516.499" y="143.999" type="curve" smooth="yes"/>
      <point x="524.166" y="133.999"/>
      <point x="535.666" y="128.999"/>
      <point x="550.999" y="128.999" type="curve" smooth="yes"/>
      <point x="574.332" y="128.999"/>
      <point x="589.499" y="140.999"/>
      <point x="596.499" y="164.999" type="curve" smooth="yes"/>
      <point x="603.499" y="188.999"/>
      <point x="606.666" y="227.999"/>
      <point x="605.999" y="281.999" type="curve" smooth="yes"/>
      <point x="604.666" y="357.332"/>
      <point x="583.499" y="412.665"/>
      <point x="542.499" y="447.998" type="curve" smooth="yes"/>
      <point x="501.499" y="483.331"/>
      <point x="446.999" y="500.998"/>
      <point x="378.999" y="500.998" type="curve" smooth="yes"/>
      <point x="288.332" y="500.998"/>
      <point x="223.499" y="478.498"/>
      <point x="184.499" y="433.498" type="curve" smooth="yes"/>
      <point x="145.499" y="388.498"/>
      <point x="125.999" y="322.998"/>
      <point x="125.999" y="236.998" type="curve" smooth="yes"/>
      <point x="125.999" y="147.665"/>
      <point x="145.832" y="82.332"/>
      <point x="185.499" y="40.999" type="curve" smooth="yes"/>
      <point x="225.166" y="-0.333984"/>
      <point x="289.333" y="-21.001"/>
      <point x="378" y="-21.001" type="curve" smooth="yes"/>
      <point x="388" y="-21.001"/>
      <point x="399.167" y="-20.334"/>
      <point x="411.5" y="-19.001" type="curve" smooth="yes"/>
      <point x="423.833" y="-17.668"/>
      <point x="436.833" y="-15.501"/>
      <point x="450.5" y="-12.501" type="curve" smooth="yes"/>
      <point x="464.167" y="-9.50098"/>
      <point x="477.5" y="-5.66797"/>
      <point x="490.5" y="-1.00098" type="curve" smooth="yes"/>
      <point x="503.5" y="3.66602"/>
      <point x="515.667" y="9.33301"/>
      <point x="527" y="16" type="curve"/>
    </contour>
    <contour>
      <point x="305.003" y="162.996" type="curve" smooth="yes"/>
      <point x="305.003" y="151.663"/>
      <point x="308.671" y="143.329"/>
      <point x="316.004" y="137.996" type="curve" smooth="yes"/>
      <point x="323.337" y="132.663"/>
      <point x="332.67" y="129.996"/>
      <point x="344.003" y="129.996" type="curve" smooth="yes"/>
      <point x="357.336" y="129.996"/>
      <point x="371.836" y="133.663"/>
      <point x="387.503" y="140.996" type="curve" smooth="yes"/>
      <point x="403.17" y="148.329"/>
      <point x="417.003" y="160.329"/>
      <point x="429.003" y="176.996" type="curve"/>
      <point x="429.003" y="215.996" type="line"/>
      <point x="377.003" y="213.996" type="line" smooth="yes"/>
      <point x="359.003" y="212.663"/>
      <point x="342.503" y="208.163"/>
      <point x="327.503" y="200.496" type="curve" smooth="yes"/>
      <point x="312.503" y="192.829"/>
      <point x="305.003" y="180.329"/>
    </contour>
  </outline>
</glyph>
<glyph name="A" format="1">
  <advance width="683"/>
  <unicode hex="0041"/>
  <outline>
    <contour>
      <point x="671" y="0" type="line"/>
      <point x="577" y="0" type="line"/>
      <point x="551.667" y="74.667"/>
      <point x="525" y="149.667"/>
      <point x="497" y="225" type="curve"/>
      <point x="198" y="225" type="line"/>
      <point x="119" y="0" type="line"/>
      <point x="24" y="0" type="line"/>
      <point x="296" y="740" type="line"/>
      <point x="397" y="740" type="line"/>
    </contour>
    <contour>
      <point x="347" y="642" type="curve"/>
      <point x="327.667" y="586"/>
      <point x="307.667" y="529.168"/>
      <point x="287" y="471.501" type="curve" smooth="yes"/>
      <point x="266.333" y="413.834"/>
      <point x="245.333" y="355.667"/>
      <point x="224" y="297" type="curve"/>
      <point x="471" y="297" type="line"/>
      <point x="449.667" y="355.667"/>
      <point x="428.5" y="413.667"/>
      <point x="407.5" y="471" type="curve" smooth="yes"/>
      <point x="386.5" y="528.333"/>
      <point x="366.333" y="585.333"/>
    </contour>
  </outline>
</glyph>
<glyph name="B" format="1">
  <advance width="623"/>
  <unicode hex="0042"/>
  <outline>
    <contour>
      <point x="67" y="740" type="line"/>
      <point x="313.999" y="739.999" type="line" smooth="yes"/>
      <point x="359.999" y="739.999"/>
      <point x="398.499" y="736.832"/>
      <point x="429.499" y="730.499" type="curve" smooth="yes"/>
      <point x="460.499" y="724.166"/>
      <point x="487.332" y="711.333"/>
      <point x="509.999" y="692" type="curve" smooth="yes"/>
      <point x="527.332" y="678"/>
      <point x="542.332" y="658.5"/>
      <point x="554.999" y="633.5" type="curve" smooth="yes"/>
      <point x="567.666" y="608.5"/>
      <point x="573.999" y="579.667"/>
      <point x="573.999" y="547" type="curve" smooth="yes"/>
      <point x="573.999" y="501.667"/>
      <point x="559.832" y="465.5"/>
      <point x="531.499" y="438.5" type="curve" smooth="yes"/>
      <point x="503.166" y="411.5"/>
      <point x="467.666" y="391.667"/>
      <point x="424.999" y="379" type="curve"/>
      <point x="449.666" y="374.333"/>
      <point x="472.499" y="367.5"/>
      <point x="493.499" y="358.5" type="curve" smooth="yes"/>
      <point x="514.499" y="349.5"/>
      <point x="532.499" y="337.833"/>
      <point x="547.499" y="323.5" type="curve" smooth="yes"/>
      <point x="562.499" y="309.167"/>
      <point x="574.166" y="291.667"/>
      <point x="582.499" y="271" type="curve" smooth="yes"/>
      <point x="590.832" y="250.333"/>
      <point x="594.999" y="226"/>
      <point x="594.999" y="198" type="curve" smooth="yes"/>
      <point x="594.999" y="152"/>
      <point x="587.166" y="116.667"/>
      <point x="571.499" y="92" type="curve" smooth="yes"/>
      <point x="555.832" y="67.333"/>
      <point x="534.999" y="47.333"/>
      <point x="508.999" y="32" type="curve" smooth="yes"/>
      <point x="482.332" y="16"/>
      <point x="450.832" y="6.66699"/>
      <point x="414.499" y="4" type="curve" smooth="yes"/>
      <point x="378.166" y="1.33301"/>
      <point x="341.333" y="0"/>
      <point x="304" y="0" type="curve" smooth="yes"/>
      <point x="67" y="0" type="line"/>
    </contour>
    <contour>
      <point x="315.999" y="76.999" type="line" smooth="yes"/>
      <point x="342.666" y="76.999"/>
      <point x="367" y="78.5"/>
      <point x="389" y="81.5" type="curve" smooth="yes"/>
      <point x="411" y="84.5"/>
      <point x="429.833" y="90.5"/>
      <point x="445.5" y="99.5" type="curve" smooth="yes"/>
      <point x="461.167" y="108.5"/>
      <point x="473.167" y="120.833"/>
      <point x="481.5" y="136.5" type="curve" smooth="yes"/>
      <point x="489.833" y="152.167"/>
      <point x="494" y="172.667"/>
      <point x="494" y="198" type="curve" smooth="yes"/>
      <point x="494" y="217.333"/>
      <point x="489.667" y="236.166"/>
      <point x="481" y="254.499" type="curve" smooth="yes"/>
      <point x="472.333" y="272.832"/>
      <point x="461" y="287.332"/>
      <point x="447" y="297.999" type="curve" smooth="yes"/>
      <point x="431" y="309.999"/>
      <point x="411.667" y="318.499"/>
      <point x="389" y="323.499" type="curve" smooth="yes"/>
      <point x="366.333" y="328.499"/>
      <point x="338.666" y="330.999"/>
      <point x="305.999" y="330.999" type="curve" smooth="yes"/>
      <point x="159.999" y="330.999" type="line"/>
      <point x="159.999" y="76.999" type="line"/>
    </contour>
    <contour>
      <point x="284" y="410" type="line" smooth="yes"/>
      <point x="310.667" y="410"/>
      <point x="335.667" y="412.332"/>
      <point x="359" y="416.999" type="curve" smooth="yes"/>
      <point x="382.333" y="421.666"/>
      <point x="402.5" y="428.999"/>
      <point x="419.5" y="438.999" type="curve" smooth="yes"/>
      <point x="436.5" y="448.999"/>
      <point x="449.833" y="461.999"/>
      <point x="459.5" y="477.999" type="curve" smooth="yes"/>
      <point x="469.167" y="493.999"/>
      <point x="474" y="513.332"/>
      <point x="474" y="535.999" type="curve" smooth="yes"/>
      <point x="474" y="561.332"/>
      <point x="469.667" y="582.332"/>
      <point x="461" y="598.999" type="curve" smooth="yes"/>
      <point x="452.333" y="615.666"/>
      <point x="440.666" y="628.833"/>
      <point x="425.999" y="638.5" type="curve" smooth="yes"/>
      <point x="411.332" y="648.167"/>
      <point x="394.332" y="655"/>
      <point x="374.999" y="659" type="curve" smooth="yes"/>
      <point x="355.666" y="663"/>
      <point x="335.333" y="665"/>
      <point x="314" y="665" type="curve" smooth="yes"/>
      <point x="160" y="665" type="line"/>
      <point x="160" y="410" type="line"/>
    </contour>
  </outline>
</glyph>
<glyph name="C" format="1">
  <advance width="772"/>
  <unicode hex="0043"/>
  <outline>
    <contour>
      <point x="735" y="258" type="line"/>
      <point x="732.333" y="216"/>
      <point x="721.999" y="178.327"/>
      <point x="703.999" y="144.994" type="curve" smooth="yes"/>
      <point x="685.999" y="111.661"/>
      <point x="662.666" y="83.6611"/>
      <point x="633.999" y="60.9941" type="curve" smooth="yes"/>
      <point x="603.999" y="36.9941"/>
      <point x="569.499" y="18.9941"/>
      <point x="530.499" y="6.99414" type="curve" smooth="yes"/>
      <point x="491.499" y="-5.00586"/>
      <point x="451.666" y="-11.0059"/>
      <point x="410.999" y="-11.0059" type="curve" smooth="yes"/>
      <point x="354.332" y="-11.0059"/>
      <point x="303.999" y="-2.17285"/>
      <point x="259.999" y="15.4941" type="curve" smooth="yes"/>
      <point x="215.999" y="33.1611"/>
      <point x="178.832" y="58.3281"/>
      <point x="148.499" y="90.9951" type="curve" smooth="yes"/>
      <point x="118.166" y="123.662"/>
      <point x="95.166" y="162.829"/>
      <point x="79.499" y="208.496" type="curve" smooth="yes"/>
      <point x="63.832" y="254.163"/>
      <point x="55.999" y="304.663"/>
      <point x="55.999" y="359.996" type="curve" smooth="yes"/>
      <point x="55.999" y="417.329"/>
      <point x="64.666" y="469.829"/>
      <point x="81.999" y="517.496" type="curve" smooth="yes"/>
      <point x="99.332" y="565.163"/>
      <point x="123.999" y="606.33"/>
      <point x="155.999" y="640.997" type="curve" smooth="yes"/>
      <point x="187.999" y="675.664"/>
      <point x="226.332" y="702.497"/>
      <point x="270.999" y="721.497" type="curve" smooth="yes"/>
      <point x="315.666" y="740.497"/>
      <point x="365.333" y="749.997"/>
      <point x="420" y="749.997" type="curve" smooth="yes"/>
      <point x="466" y="749.997"/>
      <point x="508.833" y="742.83"/>
      <point x="548.5" y="728.497" type="curve" smooth="yes"/>
      <point x="588.167" y="714.164"/>
      <point x="621.667" y="694.331"/>
      <point x="649" y="668.998" type="curve" smooth="yes"/>
      <point x="672.333" y="646.998"/>
      <point x="690.666" y="620.165"/>
      <point x="703.999" y="588.498" type="curve" smooth="yes"/>
      <point x="717.332" y="556.831"/>
      <point x="724.665" y="520.998"/>
      <point x="725.998" y="480.998" type="curve"/>
      <point x="717.998" y="480.331"/>
      <point x="709.998" y="479.498"/>
      <point x="701.998" y="478.498" type="curve" smooth="yes"/>
      <point x="693.998" y="477.498"/>
      <point x="685.998" y="476.665"/>
      <point x="677.998" y="475.998" type="curve" smooth="yes"/>
      <point x="675.998" y="475.998"/>
      <point x="673.998" y="475.831"/>
      <point x="671.998" y="475.498" type="curve" smooth="yes"/>
      <point x="669.998" y="475.165"/>
      <point x="667.998" y="474.998"/>
      <point x="665.998" y="474.998" type="curve" smooth="yes"/>
      <point x="628.998" y="470.998" type="line"/>
      <point x="627.665" y="502.998"/>
      <point x="621.332" y="531.498"/>
      <point x="609.999" y="556.498" type="curve" smooth="yes"/>
      <point x="598.666" y="581.498"/>
      <point x="583.333" y="602.665"/>
      <point x="564" y="619.998" type="curve" smooth="yes"/>
      <point x="544.667" y="637.331"/>
      <point x="522.5" y="650.498"/>
      <point x="497.5" y="659.498" type="curve" smooth="yes"/>
      <point x="472.5" y="668.498"/>
      <point x="446" y="672.998"/>
      <point x="418" y="672.998" type="curve" smooth="yes"/>
      <point x="377.333" y="672.998"/>
      <point x="341" y="665.331"/>
      <point x="309" y="649.998" type="curve" smooth="yes"/>
      <point x="277" y="634.665"/>
      <point x="249.833" y="613.332"/>
      <point x="227.5" y="585.999" type="curve" smooth="yes"/>
      <point x="205.167" y="558.666"/>
      <point x="188.167" y="526.499"/>
      <point x="176.5" y="489.499" type="curve" smooth="yes"/>
      <point x="164.833" y="452.499"/>
      <point x="159" y="412.666"/>
      <point x="159" y="369.999" type="curve" smooth="yes"/>
      <point x="159" y="324.666"/>
      <point x="165" y="283.499"/>
      <point x="177" y="246.499" type="curve" smooth="yes"/>
      <point x="189" y="209.499"/>
      <point x="206.167" y="177.999"/>
      <point x="228.5" y="151.999" type="curve" smooth="yes"/>
      <point x="250.833" y="125.999"/>
      <point x="278" y="105.999"/>
      <point x="310" y="91.999" type="curve" smooth="yes"/>
      <point x="342" y="77.999"/>
      <point x="378" y="70.999"/>
      <point x="418" y="70.999" type="curve" smooth="yes"/>
      <point x="448" y="70.999"/>
      <point x="475.833" y="74.999"/>
      <point x="501.5" y="82.999" type="curve" smooth="yes"/>
      <point x="527.167" y="90.999"/>
      <point x="549.667" y="103.332"/>
      <point x="569" y="119.999" type="curve" smooth="yes"/>
      <point x="588.333" y="136.666"/>
      <point x="604" y="157.333"/>
      <point x="616" y="182" type="curve" smooth="yes"/>
      <point x="628" y="206.667"/>
      <point x="635.333" y="235.667"/>
      <point x="638" y="269" type="curve"/>
    </contour>
  </outline>
</glyph>
<glyph name="D" format="1">
  <advance width="687"/>
  <unicode hex="0044"/>
  <outline>
    <contour>
      <point x="67" y="740" type="line"/>
      <point x="293" y="740" type="line" smooth="yes"/>
      <point x="308.333" y="740"/>
      <point x="324.833" y="738.833"/>
      <point x="342.5" y="736.5" type="curve" smooth="yes"/>
      <point x="360.167" y="734.167"/>
      <point x="377.834" y="730.834"/>
      <point x="395.501" y="726.501" type="curve" smooth="yes"/>
      <point x="413.168" y="722.168"/>
      <point x="430.168" y="717.001"/>
      <point x="446.501" y="711.001" type="curve" smooth="yes"/>
      <point x="462.834" y="705.001"/>
      <point x="477.667" y="698.334"/>
      <point x="491" y="691.001" type="curve" smooth="yes"/>
      <point x="513" y="675.001"/>
      <point x="533.333" y="655.501"/>
      <point x="552" y="632.501" type="curve" smooth="yes"/>
      <point x="570.667" y="609.501"/>
      <point x="586.834" y="584.168"/>
      <point x="600.501" y="556.501" type="curve" smooth="yes"/>
      <point x="614.168" y="528.834"/>
      <point x="624.835" y="499.167"/>
      <point x="632.502" y="467.5" type="curve" smooth="yes"/>
      <point x="640.169" y="435.833"/>
      <point x="644.002" y="403.333"/>
      <point x="644.002" y="370" type="curve" smooth="yes"/>
      <point x="644.002" y="336.667"/>
      <point x="640.169" y="304.167"/>
      <point x="632.502" y="272.5" type="curve" smooth="yes"/>
      <point x="624.835" y="240.833"/>
      <point x="614.168" y="211.166"/>
      <point x="600.501" y="183.499" type="curve" smooth="yes"/>
      <point x="586.834" y="155.832"/>
      <point x="570.667" y="130.499"/>
      <point x="552" y="107.499" type="curve" smooth="yes"/>
      <point x="533.333" y="84.499"/>
      <point x="513" y="64.999"/>
      <point x="491" y="48.999" type="curve" smooth="yes"/>
      <point x="477.667" y="41.666"/>
      <point x="462.834" y="34.999"/>
      <point x="446.501" y="28.999" type="curve" smooth="yes"/>
      <point x="430.168" y="22.999"/>
      <point x="413.168" y="17.832"/>
      <point x="395.501" y="13.499" type="curve" smooth="yes"/>
      <point x="377.834" y="9.16602"/>
      <point x="360.167" y="5.83301"/>
      <point x="342.5" y="3.5" type="curve" smooth="yes"/>
      <point x="324.833" y="1.16699"/>
      <point x="308.333" y="0"/>
      <point x="293" y="0" type="curve" smooth="yes"/>
      <point x="67" y="0" type="line"/>
    </contour>
    <contour>
      <point x="268" y="78" type="line" smooth="yes"/>
      <point x="310" y="78"/>
      <point x="345.167" y="82.333"/>
      <point x="373.5" y="91" type="curve" smooth="yes"/>
      <point x="401.833" y="99.667"/>
      <point x="426.666" y="111.334"/>
      <point x="447.999" y="126.001" type="curve" smooth="yes"/>
      <point x="479.999" y="151.334"/>
      <point x="504.999" y="185.667"/>
      <point x="522.999" y="229" type="curve" smooth="yes"/>
      <point x="540.999" y="272.333"/>
      <point x="549.999" y="319.333"/>
      <point x="549.999" y="370" type="curve" smooth="yes"/>
      <point x="549.999" y="420.667"/>
      <point x="540.999" y="467.667"/>
      <point x="522.999" y="511" type="curve" smooth="yes"/>
      <point x="504.999" y="554.333"/>
      <point x="479.999" y="588.666"/>
      <point x="447.999" y="613.999" type="curve" smooth="yes"/>
      <point x="426.666" y="628.666"/>
      <point x="401.833" y="640.333"/>
      <point x="373.5" y="649" type="curve" smooth="yes"/>
      <point x="345.167" y="657.667"/>
      <point x="310" y="662"/>
      <point x="268" y="662" type="curve" smooth="yes"/>
      <point x="159" y="662" type="line"/>
      <point x="159" y="78" type="line"/>
    </contour>
  </outline>
</glyph>
<glyph name="G" format="1">
  <advance width="820"/>
  <unicode hex="0047"/>
  <outline>
    <contour>
      <point x="417" y="370" type="line"/>
      <point x="747.005" y="369.994" type="line"/>
      <point x="747.005" y="-7.00586" type="line"/>
      <point x="658.005" y="-7.00586" type="line"/>
      <point x="658.005" y="102.994" type="line"/>
      <point x="644.672" y="84.9941"/>
      <point x="630.339" y="69.9941"/>
      <point x="615.006" y="57.9941" type="curve" smooth="yes"/>
      <point x="585.006" y="33.9941"/>
      <point x="552.673" y="16.4941"/>
      <point x="518.006" y="5.49414" type="curve" smooth="yes"/>
      <point x="483.339" y="-5.50586"/>
      <point x="445.672" y="-11.0059"/>
      <point x="405.005" y="-11.0059" type="curve" smooth="yes"/>
      <point x="351.005" y="-11.0059"/>
      <point x="302.672" y="-2.17285"/>
      <point x="260.005" y="15.4941" type="curve" smooth="yes"/>
      <point x="217.338" y="33.1611"/>
      <point x="181.171" y="58.3281"/>
      <point x="151.504" y="90.9951" type="curve" smooth="yes"/>
      <point x="121.837" y="123.662"/>
      <point x="99.1699" y="162.829"/>
      <point x="83.5029" y="208.496" type="curve" smooth="yes"/>
      <point x="67.8359" y="254.163"/>
      <point x="60.0029" y="304.663"/>
      <point x="60.0029" y="359.996" type="curve" smooth="yes"/>
      <point x="60.0029" y="417.329"/>
      <point x="68.6699" y="469.829"/>
      <point x="86.0029" y="517.496" type="curve" smooth="yes"/>
      <point x="103.336" y="565.163"/>
      <point x="127.669" y="606.33"/>
      <point x="159.002" y="640.997" type="curve" smooth="yes"/>
      <point x="190.335" y="675.664"/>
      <point x="227.668" y="702.497"/>
      <point x="271.001" y="721.497" type="curve" smooth="yes"/>
      <point x="314.334" y="740.497"/>
      <point x="362.001" y="749.997"/>
      <point x="414.001" y="749.997" type="curve" smooth="yes"/>
      <point x="460.001" y="749.997"/>
      <point x="503.501" y="744.497"/>
      <point x="544.501" y="733.497" type="curve" smooth="yes"/>
      <point x="585.501" y="722.497"/>
      <point x="619.668" y="704.33"/>
      <point x="647.001" y="678.997" type="curve" smooth="yes"/>
      <point x="671.668" y="656.33"/>
      <point x="690.168" y="631.83"/>
      <point x="702.501" y="605.497" type="curve" smooth="yes"/>
      <point x="714.834" y="579.164"/>
      <point x="724.334" y="546.997"/>
      <point x="731.001" y="508.997" type="curve"/>
      <point x="680.001" y="500.997" type="line" smooth="yes"/>
      <point x="670.668" y="499.664"/>
      <point x="662.001" y="498.331"/>
      <point x="654.001" y="496.998" type="curve" smooth="yes"/>
      <point x="646.001" y="495.665"/>
      <point x="637.334" y="494.332"/>
      <point x="628.001" y="492.999" type="curve"/>
      <point x="625.334" y="518.999"/>
      <point x="618.667" y="542.999"/>
      <point x="608" y="564.999" type="curve" smooth="yes"/>
      <point x="597.333" y="586.999"/>
      <point x="583" y="605.999"/>
      <point x="565" y="621.999" type="curve" smooth="yes"/>
      <point x="547" y="637.999"/>
      <point x="525.667" y="650.499"/>
      <point x="501" y="659.499" type="curve" smooth="yes"/>
      <point x="476.333" y="668.499"/>
      <point x="449" y="672.999"/>
      <point x="419" y="672.999" type="curve" smooth="yes"/>
      <point x="375.667" y="672.999"/>
      <point x="338.167" y="665.332"/>
      <point x="306.5" y="649.999" type="curve" smooth="yes"/>
      <point x="274.833" y="634.666"/>
      <point x="248.5" y="613.333"/>
      <point x="227.5" y="586" type="curve" smooth="yes"/>
      <point x="206.5" y="558.667"/>
      <point x="191" y="526.5"/>
      <point x="181" y="489.5" type="curve" smooth="yes"/>
      <point x="171" y="452.5"/>
      <point x="166" y="412.667"/>
      <point x="166" y="370" type="curve" smooth="yes"/>
      <point x="166" y="326.667"/>
      <point x="171" y="286.667"/>
      <point x="181" y="250" type="curve" smooth="yes"/>
      <point x="191" y="213.333"/>
      <point x="206.5" y="181.5"/>
      <point x="227.5" y="154.5" type="curve" smooth="yes"/>
      <point x="248.5" y="127.5"/>
      <point x="274.833" y="106.333"/>
      <point x="306.5" y="91" type="curve" smooth="yes"/>
      <point x="338.167" y="75.667"/>
      <point x="375.667" y="68"/>
      <point x="419" y="68" type="curve" smooth="yes"/>
      <point x="452.333" y="68"/>
      <point x="482.833" y="73.333"/>
      <point x="510.5" y="84" type="curve" smooth="yes"/>
      <point x="538.167" y="94.667"/>
      <point x="562.167" y="109.5"/>
      <point x="582.5" y="128.5" type="curve" smooth="yes"/>
      <point x="602.833" y="147.5"/>
      <point x="619.5" y="169.833"/>
      <point x="632.5" y="195.5" type="curve" smooth="yes"/>
      <point x="645.5" y="221.167"/>
      <point x="654" y="249"/>
      <point x="658" y="279" type="curve"/>
      <point x="658" y="300" type="line"/>
      <point x="417" y="300" type="line"/>
    </contour>
  </outline>
</glyph>
<glyph name="J" format="1">
  <advance width="348"/>
  <unicode hex="004A"/>
  <outline>
    <contour>
      <point x="153" y="740" type="line"/>
      <point x="246.002" y="740.001" type="line"/>
      <point x="246.002" y="269.001" type="line" smooth="yes"/>
      <point x="246.002" y="251.668"/>
      <point x="245.835" y="234.168"/>
      <point x="245.502" y="216.501" type="curve" smooth="yes"/>
      <point x="245.169" y="198.834"/>
      <point x="244.336" y="181.834"/>
      <point x="243.003" y="165.501" type="curve" smooth="yes"/>
      <point x="241.67" y="149.168"/>
      <point x="239.67" y="133.835"/>
      <point x="237.003" y="119.502" type="curve" smooth="yes"/>
      <point x="234.336" y="105.169"/>
      <point x="230.669" y="92.6689"/>
      <point x="226.002" y="82.002" type="curve" smooth="yes"/>
      <point x="217.335" y="67.335"/>
      <point x="206.502" y="54.668"/>
      <point x="193.502" y="44.001" type="curve" smooth="yes"/>
      <point x="180.502" y="33.334"/>
      <point x="166.169" y="24.667"/>
      <point x="150.502" y="18" type="curve" smooth="yes"/>
      <point x="134.835" y="11.333"/>
      <point x="118.502" y="6.5"/>
      <point x="101.502" y="3.5" type="curve" smooth="yes"/>
      <point x="84.502" y="0.5"/>
      <point x="68.002" y="-1"/>
      <point x="52.002" y="-1" type="curve" smooth="yes"/>
      <point x="46.002" y="-1"/>
      <point x="40.1689" y="-0.833008"/>
      <point x="34.502" y="-0.5" type="curve" smooth="yes"/>
      <point x="28.835" y="-0.166992"/>
      <point x="23.002" y="0.333008"/>
      <point x="17.002" y="1" type="curve" smooth="yes"/>
      <point x="14.002" y="1" type="line"/>
      <point x="17.002" y="85" type="line"/>
      <point x="22.335" y="84.333"/>
      <point x="27.335" y="83.833"/>
      <point x="32.002" y="83.5" type="curve" smooth="yes"/>
      <point x="36.6689" y="83.167"/>
      <point x="41.3359" y="83"/>
      <point x="46.0029" y="83" type="curve" smooth="yes"/>
      <point x="63.3359" y="83"/>
      <point x="79.1689" y="85.5"/>
      <point x="93.502" y="90.5" type="curve" smooth="yes"/>
      <point x="107.835" y="95.5"/>
      <point x="119.668" y="104.333"/>
      <point x="129.001" y="117" type="curve" smooth="yes"/>
      <point x="138.334" y="130.333"/>
      <point x="144.667" y="149.5"/>
      <point x="148" y="174.5" type="curve" smooth="yes"/>
      <point x="151.333" y="199.5"/>
      <point x="153" y="229.667"/>
      <point x="153" y="265" type="curve" smooth="yes"/>
    </contour>
  </outline>
</glyph>
<glyph name="K" format="1">
  <advance width="712"/>
  <unicode hex="004B"/>
  <outline>
    <contour>
      <point x="210" y="395" type="line"/>
      <point x="209" y="394.001" type="line"/>
      <point x="534" y="740.001" type="line"/>
      <point x="645" y="740.001" type="line"/>
      <point x="328" y="402.001" type="line"/>
      <point x="381.333" y="334.668"/>
      <point x="434.333" y="268.001"/>
      <point x="487" y="202.001" type="curve" smooth="yes"/>
      <point x="539.667" y="136.001"/>
      <point x="592.667" y="68.668"/>
      <point x="646" y="0.000976562" type="curve"/>
      <point x="528" y="0.000976562" type="line"/>
      <point x="504.667" y="29.334"/>
      <point x="480.667" y="59.667"/>
      <point x="456" y="91" type="curve" smooth="yes"/>
      <point x="431.333" y="122.333"/>
      <point x="406.333" y="154"/>
      <point x="381" y="186" type="curve" smooth="yes"/>
      <point x="264" y="334" type="line"/>
      <point x="208" y="274" type="line"/>
    </contour>
    <contour>
      <point x="116" y="740.001" type="line"/>
      <point x="207" y="740.001" type="line"/>
      <point x="207" y="0.000976562" type="line"/>
      <point x="116" y="0.000976562" type="line"/>
    </contour>
  </outline>
</glyph>
<glyph name="M" format="1">
  <advance width="901"/>
  <unicode hex="004D"/>
  <outline>
    <contour>
      <point x="418" y="10" type="line"/>
      <point x="173" y="612" type="line"/>
      <point x="173" y="0" type="line"/>
      <point x="81" y="0" type="line"/>
      <point x="81" y="740" type="line"/>
      <point x="212" y="740" type="line"/>
      <point x="457" y="135" type="line"/>
      <point x="704" y="740" type="line"/>
      <point x="833" y="740" type="line"/>
      <point x="833" y="0" type="line"/>
      <point x="743" y="0" type="line"/>
      <point x="743" y="617" type="line"/>
      <point x="496" y="10" type="line"/>
    </contour>
  </outline>
</glyph>
<glyph name="N" format="1">
  <advance width="780"/>
  <unicode hex="004E"/>
  <outline>
    <contour>
      <point x="591" y="740" type="line"/>
      <point x="683.001" y="739.999" type="line"/>
      <point x="683.001" y="-0.000976562" type="line"/>
      <point x="577.001" y="-0.000976562" type="line"/>
      <point x="193.001" y="606.999" type="line"/>
      <point x="193.001" y="-0.000976562" type="line"/>
      <point x="101.001" y="-0.000976562" type="line"/>
      <point x="101.001" y="739.999" type="line"/>
      <point x="213.001" y="739.999" type="line"/>
      <point x="273.001" y="644.666"/>
      <point x="335.668" y="545.333"/>
      <point x="401.001" y="442" type="curve" smooth="yes"/>
      <point x="466.334" y="338.667"/>
      <point x="529.667" y="238"/>
      <point x="591" y="140" type="curve"/>
    </contour>
  </outline>
</glyph>
<glyph name="P" format="1">
  <advance width="598"/>
  <unicode hex="0050"/>
  <outline>
    <contour>
      <point x="63" y="740" type="line"/>
      <point x="282" y="740" type="line" smooth="yes"/>
      <point x="323.333" y="740"/>
      <point x="361.5" y="736.333"/>
      <point x="396.5" y="729" type="curve" smooth="yes"/>
      <point x="431.5" y="721.667"/>
      <point x="461.833" y="709.334"/>
      <point x="487.5" y="692.001" type="curve" smooth="yes"/>
      <point x="513.167" y="674.668"/>
      <point x="533.167" y="651.668"/>
      <point x="547.5" y="623.001" type="curve" smooth="yes"/>
      <point x="561.833" y="594.334"/>
      <point x="569" y="558.667"/>
      <point x="569" y="516" type="curve" smooth="yes"/>
      <point x="569" y="472.667"/>
      <point x="560.833" y="436.667"/>
      <point x="544.5" y="408" type="curve" smooth="yes"/>
      <point x="528.167" y="379.333"/>
      <point x="506.5" y="356.333"/>
      <point x="479.5" y="339" type="curve" smooth="yes"/>
      <point x="452.5" y="321.667"/>
      <point x="421.833" y="309.5"/>
      <point x="387.5" y="302.5" type="curve" smooth="yes"/>
      <point x="353.167" y="295.5"/>
      <point x="318" y="292"/>
      <point x="282" y="292" type="curve" smooth="yes"/>
      <point x="160" y="292" type="line"/>
      <point x="160" y="0" type="line"/>
      <point x="63" y="0" type="line"/>
    </contour>
    <contour>
      <point x="282" y="370" type="line" smooth="yes"/>
      <point x="309.333" y="370"/>
      <point x="334.667" y="372"/>
      <point x="358" y="376" type="curve" smooth="yes"/>
      <point x="381.333" y="380"/>
      <point x="401.5" y="387.5"/>
      <point x="418.5" y="398.5" type="curve" smooth="yes"/>
      <point x="435.5" y="409.5"/>
      <point x="448.833" y="424.5"/>
      <point x="458.5" y="443.5" type="curve" smooth="yes"/>
      <point x="468.167" y="462.5"/>
      <point x="473" y="486.667"/>
      <point x="473" y="516" type="curve" smooth="yes"/>
      <point x="473" y="544"/>
      <point x="468.833" y="567.5"/>
      <point x="460.5" y="586.5" type="curve" smooth="yes"/>
      <point x="452.167" y="605.5"/>
      <point x="440" y="620.5"/>
      <point x="424" y="631.5" type="curve" smooth="yes"/>
      <point x="408" y="642.5"/>
      <point x="388" y="650.333"/>
      <point x="364" y="655" type="curve" smooth="yes"/>
      <point x="340" y="659.667"/>
      <point x="312.667" y="662"/>
      <point x="282" y="662" type="curve" smooth="yes"/>
      <point x="160" y="662" type="line"/>
      <point x="160" y="370" type="line"/>
    </contour>
  </outline>
</glyph>
<glyph name="Q" format="1">
  <advance width="833"/>
  <unicode hex="0051"/>
  <outline>
    <contour>
      <point x="393" y="750" type="curve" smooth="yes"/>
      <point x="449.667" y="750"/>
      <point x="501" y="740.497"/>
      <point x="547" y="721.497" type="curve" smooth="yes"/>
      <point x="593" y="702.497"/>
      <point x="632.167" y="676.33"/>
      <point x="664.5" y="642.997" type="curve" smooth="yes"/>
      <point x="696.833" y="609.664"/>
      <point x="721.833" y="569.664"/>
      <point x="739.5" y="522.997" type="curve" smooth="yes"/>
      <point x="757.167" y="476.33"/>
      <point x="766" y="425.663"/>
      <point x="766" y="370.996" type="curve" smooth="yes"/>
      <point x="766" y="296.996"/>
      <point x="750.833" y="231.829"/>
      <point x="720.5" y="175.496" type="curve" smooth="yes"/>
      <point x="690.167" y="119.163"/>
      <point x="648" y="74.9961"/>
      <point x="594" y="42.9961" type="curve"/>
      <point x="602" y="24.3291"/>
      <point x="613.333" y="11.3291"/>
      <point x="628" y="3.99609" type="curve" smooth="yes"/>
      <point x="642.667" y="-3.33691"/>
      <point x="657.667" y="-5.33691"/>
      <point x="673" y="-2.00391" type="curve" smooth="yes"/>
      <point x="681" y="-0.00390625"/>
      <point x="689.333" y="4.16309"/>
      <point x="698" y="10.4961" type="curve" smooth="yes"/>
      <point x="706.667" y="16.8291"/>
      <point x="713.667" y="23.3291"/>
      <point x="719" y="29.9961" type="curve"/>
      <point x="773" y="-7.00391" type="line"/>
      <point x="766.333" y="-22.3369"/>
      <point x="754.833" y="-36.6699"/>
      <point x="738.5" y="-50.0029" type="curve" smooth="yes"/>
      <point x="722.167" y="-63.3359"/>
      <point x="705" y="-72.3359"/>
      <point x="687" y="-77.0029" type="curve" smooth="yes"/>
      <point x="680.333" y="-79.0029"/>
      <point x="673.5" y="-80.3359"/>
      <point x="666.5" y="-81.0029" type="curve" smooth="yes"/>
      <point x="659.5" y="-81.6699"/>
      <point x="653" y="-82.0029"/>
      <point x="647" y="-82.0029" type="curve" smooth="yes"/>
      <point x="619" y="-82.0029"/>
      <point x="593.5" y="-73.6699"/>
      <point x="570.5" y="-57.0029" type="curve" smooth="yes"/>
      <point x="547.5" y="-40.3359"/>
      <point x="530.333" y="-18.3359"/>
      <point x="519" y="8.99707" type="curve"/>
      <point x="499.667" y="2.99707"/>
      <point x="479.5" y="-1.66992"/>
      <point x="458.5" y="-5.00293" type="curve" smooth="yes"/>
      <point x="437.5" y="-8.33594"/>
      <point x="415.667" y="-10.0029"/>
      <point x="393" y="-10.0029" type="curve" smooth="yes"/>
      <point x="337.667" y="-10.0029"/>
      <point x="287.5" y="-0.669922"/>
      <point x="242.5" y="17.9971" type="curve" smooth="yes"/>
      <point x="197.5" y="36.6641"/>
      <point x="159" y="62.8311"/>
      <point x="127" y="96.498" type="curve" smooth="yes"/>
      <point x="95" y="130.165"/>
      <point x="70.167" y="170.332"/>
      <point x="52.5" y="216.999" type="curve" smooth="yes"/>
      <point x="34.833" y="263.666"/>
      <point x="26" y="314.999"/>
      <point x="26" y="370.999" type="curve" smooth="yes"/>
      <point x="26" y="425.666"/>
      <point x="34.5" y="476.333"/>
      <point x="51.5" y="523" type="curve" smooth="yes"/>
      <point x="68.5" y="569.667"/>
      <point x="93" y="609.667"/>
      <point x="125" y="643" type="curve" smooth="yes"/>
      <point x="157" y="676.333"/>
      <point x="195.667" y="702.5"/>
      <point x="241" y="721.5" type="curve" smooth="yes"/>
      <point x="286.333" y="740.5"/>
      <point x="337" y="750"/>
    </contour>
    <contour>
      <point x="393" y="667.997" type="curve" smooth="yes"/>
      <point x="349.667" y="667.997"/>
      <point x="311.334" y="660.664"/>
      <point x="278.001" y="645.997" type="curve" smooth="yes"/>
      <point x="244.668" y="631.33"/>
      <point x="216.668" y="610.83"/>
      <point x="194.001" y="584.497" type="curve" smooth="yes"/>
      <point x="171.334" y="558.164"/>
      <point x="154.334" y="526.831"/>
      <point x="143.001" y="490.498" type="curve" smooth="yes"/>
      <point x="131.668" y="454.165"/>
      <point x="126.001" y="414.332"/>
      <point x="126.001" y="370.999" type="curve" smooth="yes"/>
      <point x="126.001" y="326.999"/>
      <point x="131.668" y="286.666"/>
      <point x="143.001" y="249.999" type="curve" smooth="yes"/>
      <point x="154.334" y="213.332"/>
      <point x="171.334" y="181.832"/>
      <point x="194.001" y="155.499" type="curve" smooth="yes"/>
      <point x="216.668" y="129.166"/>
      <point x="244.668" y="108.666"/>
      <point x="278.001" y="93.999" type="curve" smooth="yes"/>
      <point x="311.334" y="79.332"/>
      <point x="349.667" y="71.999"/>
      <point x="393" y="71.999" type="curve" smooth="yes"/>
      <point x="437.667" y="71.999"/>
      <point x="477.167" y="79.332"/>
      <point x="511.5" y="93.999" type="curve" smooth="yes"/>
      <point x="545.833" y="108.666"/>
      <point x="574.666" y="129.166"/>
      <point x="597.999" y="155.499" type="curve" smooth="yes"/>
      <point x="621.332" y="181.832"/>
      <point x="638.832" y="213.332"/>
      <point x="650.499" y="249.999" type="curve" smooth="yes"/>
      <point x="662.166" y="286.666"/>
      <point x="667.999" y="326.999"/>
      <point x="667.999" y="370.999" type="curve" smooth="yes"/>
      <point x="667.999" y="414.332"/>
      <point x="662.166" y="454.165"/>
      <point x="650.499" y="490.498" type="curve" smooth="yes"/>
      <point x="638.832" y="526.831"/>
      <point x="621.332" y="558.164"/>
      <point x="597.999" y="584.497" type="curve" smooth="yes"/>
      <point x="574.666" y="610.83"/>
      <point x="545.833" y="631.33"/>
      <point x="511.5" y="645.997" type="curve" smooth="yes"/>
      <point x="477.167" y="660.664"/>
      <point x="437.667" y="667.997"/>
    </contour>
  </outline>
</glyph>
<glyph name="R" format="1">
  <advance width="634"/>
  <unicode hex="0052"/>
  <outline>
    <contour>
      <point x="52" y="740" type="line"/>
      <point x="328.999" y="740.003" type="line" smooth="yes"/>
      <point x="376.332" y="740.003"/>
      <point x="415.832" y="735.67"/>
      <point x="447.499" y="727.003" type="curve" smooth="yes"/>
      <point x="479.166" y="718.336"/>
      <point x="507.333" y="705.003"/>
      <point x="532" y="687.003" type="curve"/>
      <point x="532" y="688.003" type="line"/>
      <point x="549.333" y="671.336"/>
      <point x="564.166" y="650.003"/>
      <point x="576.499" y="624.003" type="curve" smooth="yes"/>
      <point x="588.832" y="598.003"/>
      <point x="594.999" y="569.003"/>
      <point x="594.999" y="537.003" type="curve" smooth="yes"/>
      <point x="594.999" y="502.336"/>
      <point x="589.166" y="472.169"/>
      <point x="577.499" y="446.502" type="curve" smooth="yes"/>
      <point x="565.832" y="420.835"/>
      <point x="549.665" y="399.668"/>
      <point x="528.998" y="383.001" type="curve" smooth="yes"/>
      <point x="513.665" y="371.001"/>
      <point x="496.832" y="361.001"/>
      <point x="478.499" y="353.001" type="curve" smooth="yes"/>
      <point x="460.166" y="345.001"/>
      <point x="440.666" y="338.668"/>
      <point x="419.999" y="334.001" type="curve"/>
      <point x="431.999" y="327.334"/>
      <point x="442.832" y="319.167"/>
      <point x="452.499" y="309.5" type="curve" smooth="yes"/>
      <point x="462.166" y="299.833"/>
      <point x="471.666" y="287"/>
      <point x="480.999" y="271" type="curve" smooth="yes"/>
      <point x="490.332" y="255"/>
      <point x="499.832" y="234.833"/>
      <point x="509.499" y="210.5" type="curve" smooth="yes"/>
      <point x="519.166" y="186.167"/>
      <point x="529.999" y="156"/>
      <point x="541.999" y="120" type="curve" smooth="yes"/>
      <point x="549.332" y="99.333"/>
      <point x="556.832" y="77.833"/>
      <point x="564.499" y="55.5" type="curve" smooth="yes"/>
      <point x="572.166" y="33.167"/>
      <point x="579.999" y="14.667"/>
      <point x="587.999" y="0" type="curve"/>
      <point x="482.999" y="0" type="line"/>
      <point x="450.999" y="95" type="line" smooth="yes"/>
      <point x="444.332" y="113.667"/>
      <point x="437.499" y="134"/>
      <point x="430.499" y="156" type="curve" smooth="yes"/>
      <point x="423.499" y="178"/>
      <point x="415.499" y="199.5"/>
      <point x="406.499" y="220.5" type="curve" smooth="yes"/>
      <point x="397.499" y="241.5"/>
      <point x="387.332" y="260.833"/>
      <point x="375.999" y="278.5" type="curve" smooth="yes"/>
      <point x="364.666" y="296.167"/>
      <point x="351.999" y="310.667"/>
      <point x="337.999" y="322" type="curve"/>
      <point x="330.666" y="321.333"/>
      <point x="323.833" y="321"/>
      <point x="317.5" y="321" type="curve" smooth="yes"/>
      <point x="299" y="321" type="line"/>
      <point x="145" y="321" type="line"/>
      <point x="145" y="0" type="line"/>
      <point x="52" y="0" type="line"/>
    </contour>
    <contour>
      <point x="308.999" y="397.003" type="line" smooth="yes"/>
      <point x="340.999" y="397.003"/>
      <point x="368.667" y="399.003"/>
      <point x="392" y="403.003" type="curve" smooth="yes"/>
      <point x="415.333" y="407.003"/>
      <point x="435.666" y="414.67"/>
      <point x="452.999" y="426.003" type="curve" smooth="yes"/>
      <point x="482.999" y="446.003"/>
      <point x="497.999" y="479.67"/>
      <point x="497.999" y="527.003" type="curve" smooth="yes"/>
      <point x="497.999" y="555.003"/>
      <point x="493.499" y="577.836"/>
      <point x="484.499" y="595.503" type="curve" smooth="yes"/>
      <point x="475.499" y="613.17"/>
      <point x="463.166" y="627.17"/>
      <point x="447.499" y="637.503" type="curve" smooth="yes"/>
      <point x="431.832" y="647.836"/>
      <point x="413.832" y="655.003"/>
      <point x="393.499" y="659.003" type="curve" smooth="yes"/>
      <point x="373.166" y="663.003"/>
      <point x="351.666" y="665.003"/>
      <point x="328.999" y="665.003" type="curve" smooth="yes"/>
      <point x="144.999" y="665.003" type="line"/>
      <point x="144.999" y="397.003" type="line"/>
    </contour>
  </outline>
</glyph>
<glyph name="S" format="1">
  <advance width="650"/>
  <unicode hex="0053"/>
  <outline>
    <contour>
      <point x="507" y="542" type="line"/>
      <point x="505" y="566"/>
      <point x="498.001" y="586.172"/>
      <point x="486.001" y="602.505" type="curve" smooth="yes"/>
      <point x="474.001" y="618.838"/>
      <point x="459.334" y="632.338"/>
      <point x="442.001" y="643.005" type="curve" smooth="yes"/>
      <point x="424.668" y="653.672"/>
      <point x="405.668" y="661.339"/>
      <point x="385.001" y="666.006" type="curve" smooth="yes"/>
      <point x="364.334" y="670.673"/>
      <point x="343.667" y="673.006"/>
      <point x="323" y="673.006" type="curve" smooth="yes"/>
      <point x="301.667" y="673.006"/>
      <point x="280.834" y="671.173"/>
      <point x="260.501" y="667.506" type="curve" smooth="yes"/>
      <point x="240.168" y="663.839"/>
      <point x="222.001" y="657.339"/>
      <point x="206.001" y="648.006" type="curve" smooth="yes"/>
      <point x="190.001" y="638.673"/>
      <point x="177.168" y="626.006"/>
      <point x="167.501" y="610.006" type="curve" smooth="yes"/>
      <point x="157.834" y="594.006"/>
      <point x="153.001" y="574.006"/>
      <point x="153.001" y="550.006" type="curve" smooth="yes"/>
      <point x="153.001" y="534.006"/>
      <point x="156.001" y="519.006"/>
      <point x="162.001" y="505.006" type="curve" smooth="yes"/>
      <point x="168.001" y="491.006"/>
      <point x="178.834" y="478.339"/>
      <point x="194.501" y="467.006" type="curve" smooth="yes"/>
      <point x="210.168" y="455.673"/>
      <point x="231.501" y="446.006"/>
      <point x="258.501" y="438.006" type="curve" smooth="yes"/>
      <point x="285.501" y="430.006"/>
      <point x="319.668" y="424.006"/>
      <point x="361.001" y="420.006" type="curve" smooth="yes"/>
      <point x="403.001" y="415.339"/>
      <point x="439.334" y="408.172"/>
      <point x="470.001" y="398.505" type="curve" smooth="yes"/>
      <point x="500.668" y="388.838"/>
      <point x="526.168" y="375.838"/>
      <point x="546.501" y="359.505" type="curve" smooth="yes"/>
      <point x="566.834" y="343.172"/>
      <point x="582.001" y="323.005"/>
      <point x="592.001" y="299.005" type="curve" smooth="yes"/>
      <point x="602.001" y="275.005"/>
      <point x="607.001" y="246.672"/>
      <point x="607.001" y="214.005" type="curve" smooth="yes"/>
      <point x="607.001" y="184.672"/>
      <point x="601.001" y="156.672"/>
      <point x="589.001" y="130.005" type="curve" smooth="yes"/>
      <point x="577.001" y="103.338"/>
      <point x="559.001" y="79.5049"/>
      <point x="535.001" y="58.5049" type="curve" smooth="yes"/>
      <point x="511.001" y="37.5049"/>
      <point x="480.668" y="20.8379"/>
      <point x="444.001" y="8.50488" type="curve" smooth="yes"/>
      <point x="407.334" y="-3.82812"/>
      <point x="364.001" y="-9.99512"/>
      <point x="314.001" y="-9.99512" type="curve" smooth="yes"/>
      <point x="274.668" y="-9.99512"/>
      <point x="238.501" y="-5.16211"/>
      <point x="205.501" y="4.50488" type="curve" smooth="yes"/>
      <point x="172.501" y="14.1719"/>
      <point x="143.668" y="28.1719"/>
      <point x="119.001" y="46.5049" type="curve" smooth="yes"/>
      <point x="94.334" y="64.8379"/>
      <point x="74.667" y="87.0049"/>
      <point x="60" y="113.005" type="curve" smooth="yes"/>
      <point x="45.333" y="139.005"/>
      <point x="36.666" y="168.338"/>
      <point x="33.999" y="201.005" type="curve"/>
      <point x="40.666" y="202.338"/>
      <point x="46.999" y="203.671"/>
      <point x="52.999" y="205.004" type="curve" smooth="yes"/>
      <point x="58.999" y="206.337"/>
      <point x="65.666" y="207.67"/>
      <point x="72.999" y="209.003" type="curve" smooth="yes"/>
      <point x="79.666" y="210.336"/>
      <point x="85.833" y="211.669"/>
      <point x="91.5" y="213.002" type="curve" smooth="yes"/>
      <point x="97.167" y="214.335"/>
      <point x="103.667" y="215.668"/>
      <point x="111" y="217.001" type="curve"/>
      <point x="121.667" y="181.001"/>
      <point x="135.667" y="153.001"/>
      <point x="153" y="133.001" type="curve" smooth="yes"/>
      <point x="170.333" y="113.001"/>
      <point x="189.333" y="98.168"/>
      <point x="210" y="88.501" type="curve" smooth="yes"/>
      <point x="230.667" y="78.834"/>
      <point x="251.834" y="73.001"/>
      <point x="273.501" y="71.001" type="curve" smooth="yes"/>
      <point x="295.168" y="69.001"/>
      <point x="315.668" y="68.001"/>
      <point x="335.001" y="68.001" type="curve" smooth="yes"/>
      <point x="357.001" y="68.001"/>
      <point x="379.001" y="70.501"/>
      <point x="401.001" y="75.501" type="curve" smooth="yes"/>
      <point x="423.001" y="80.501"/>
      <point x="442.668" y="88.668"/>
      <point x="460.001" y="100.001" type="curve" smooth="yes"/>
      <point x="477.334" y="111.334"/>
      <point x="491.501" y="126.001"/>
      <point x="502.501" y="144.001" type="curve" smooth="yes"/>
      <point x="513.501" y="162.001"/>
      <point x="519.001" y="184.001"/>
      <point x="519.001" y="210.001" type="curve" smooth="yes"/>
      <point x="519.001" y="235.334"/>
      <point x="513.501" y="256.334"/>
      <point x="502.501" y="273.001" type="curve" smooth="yes"/>
      <point x="491.501" y="289.668"/>
      <point x="475.834" y="303.001"/>
      <point x="455.501" y="313.001" type="curve" smooth="yes"/>
      <point x="435.168" y="323.001"/>
      <point x="410.668" y="330.668"/>
      <point x="382.001" y="336.001" type="curve" smooth="yes"/>
      <point x="353.334" y="341.334"/>
      <point x="321.667" y="345.667"/>
      <point x="287" y="349" type="curve" smooth="yes"/>
      <point x="237.667" y="354.333"/>
      <point x="198.334" y="364.833"/>
      <point x="169.001" y="380.5" type="curve" smooth="yes"/>
      <point x="139.668" y="396.167"/>
      <point x="117.168" y="413.834"/>
      <point x="101.501" y="433.501" type="curve" smooth="yes"/>
      <point x="85.834" y="453.168"/>
      <point x="75.501" y="472.668"/>
      <point x="70.501" y="492.001" type="curve" smooth="yes"/>
      <point x="65.501" y="511.334"/>
      <point x="63.001" y="527.667"/>
      <point x="63.001" y="541" type="curve" smooth="yes"/>
      <point x="63.001" y="565"/>
      <point x="67.334" y="589.333"/>
      <point x="76.001" y="614" type="curve" smooth="yes"/>
      <point x="84.668" y="638.667"/>
      <point x="98.668" y="661.167"/>
      <point x="118.001" y="681.5" type="curve" smooth="yes"/>
      <point x="137.334" y="701.833"/>
      <point x="162.501" y="718.333"/>
      <point x="193.501" y="731" type="curve" smooth="yes"/>
      <point x="224.501" y="743.667"/>
      <point x="262.668" y="750"/>
      <point x="308.001" y="750" type="curve" smooth="yes"/>
      <point x="398.001" y="750"/>
      <point x="466.668" y="733.667"/>
      <point x="514.001" y="701" type="curve" smooth="yes"/>
      <point x="561.334" y="668.333"/>
      <point x="585.667" y="621"/>
      <point x="587" y="559" type="curve"/>
    </contour>
  </outline>
</glyph>
<glyph name="U" format="1">
  <advance width="751"/>
  <unicode hex="0055"/>
  <outline>
    <contour>
      <point x="378" y="-10" type="curve" smooth="yes"/>
      <point x="320.667" y="-10"/>
      <point x="272.498" y="-1.33301"/>
      <point x="233.498" y="16" type="curve" smooth="yes"/>
      <point x="194.498" y="33.333"/>
      <point x="163.165" y="56.166"/>
      <point x="139.498" y="84.499" type="curve" smooth="yes"/>
      <point x="115.831" y="112.832"/>
      <point x="98.8311" y="144.999"/>
      <point x="88.498" y="180.999" type="curve" smooth="yes"/>
      <point x="78.165" y="216.999"/>
      <point x="72.998" y="253.666"/>
      <point x="72.998" y="290.999" type="curve" smooth="yes"/>
      <point x="72.998" y="739.999" type="line"/>
      <point x="163.998" y="739.999" type="line"/>
      <point x="163.998" y="290.999" type="line" smooth="yes"/>
      <point x="163.998" y="247.666"/>
      <point x="170.165" y="212.166"/>
      <point x="182.498" y="184.499" type="curve" smooth="yes"/>
      <point x="194.831" y="156.832"/>
      <point x="210.998" y="134.665"/>
      <point x="230.998" y="117.998" type="curve" smooth="yes"/>
      <point x="250.998" y="101.331"/>
      <point x="273.831" y="89.8311"/>
      <point x="299.498" y="83.498" type="curve" smooth="yes"/>
      <point x="325.165" y="77.165"/>
      <point x="351.332" y="73.998"/>
      <point x="377.999" y="73.998" type="curve" smooth="yes"/>
      <point x="404.666" y="73.998"/>
      <point x="430.833" y="77.165"/>
      <point x="456.5" y="83.498" type="curve" smooth="yes"/>
      <point x="482.167" y="89.8311"/>
      <point x="505.167" y="101.331"/>
      <point x="525.5" y="117.998" type="curve" smooth="yes"/>
      <point x="545.833" y="134.665"/>
      <point x="562.166" y="156.832"/>
      <point x="574.499" y="184.499" type="curve" smooth="yes"/>
      <point x="586.832" y="212.166"/>
      <point x="592.999" y="247.666"/>
      <point x="592.999" y="290.999" type="curve" smooth="yes"/>
      <point x="592.999" y="739.999" type="line"/>
      <point x="684.999" y="739.999" type="line"/>
      <point x="684.999" y="290.999" type="line" smooth="yes"/>
      <point x="684.999" y="253.666"/>
      <point x="679.832" y="216.999"/>
      <point x="669.499" y="180.999" type="curve" smooth="yes"/>
      <point x="659.166" y="144.999"/>
      <point x="641.999" y="112.832"/>
      <point x="617.999" y="84.499" type="curve" smooth="yes"/>
      <point x="593.999" y="56.166"/>
      <point x="562.332" y="33.333"/>
      <point x="522.999" y="16" type="curve" smooth="yes"/>
      <point x="483.666" y="-1.33301"/>
      <point x="435.333" y="-10"/>
    </contour>
  </outline>
</glyph>
<glyph name="V" format="1">
  <advance width="655"/>
  <unicode hex="0056"/>
  <outline>
    <contour>
      <point x="32" y="740" type="line"/>
      <point x="126" y="740" type="line"/>
      <point x="334" y="155" type="line"/>
      <point x="543" y="740" type="line"/>
      <point x="637" y="740" type="line"/>
      <point x="362" y="0" type="line"/>
      <point x="307" y="0" type="line"/>
    </contour>
  </outline>
</glyph>
<glyph name="W" format="1">
  <advance width="1053"/>
  <unicode hex="0057"/>
  <outline>
    <contour>
      <point x="48" y="740" type="line"/>
      <point x="138" y="739.998" type="line"/>
      <point x="153.333" y="690.665"/>
      <point x="168.833" y="641.332"/>
      <point x="184.5" y="591.999" type="curve" smooth="yes"/>
      <point x="200.167" y="542.666"/>
      <point x="216" y="492.666"/>
      <point x="232" y="441.999" type="curve" smooth="yes"/>
      <point x="312" y="184.999" type="line"/>
      <point x="325.333" y="226.999"/>
      <point x="338.833" y="269.499"/>
      <point x="352.5" y="312.499" type="curve" smooth="yes"/>
      <point x="366.167" y="355.499"/>
      <point x="380" y="398.666"/>
      <point x="394" y="441.999" type="curve" smooth="yes"/>
      <point x="487" y="739.999" type="line"/>
      <point x="571" y="739.999" type="line"/>
      <point x="595" y="659.999"/>
      <point x="620" y="578.832"/>
      <point x="646" y="496.499" type="curve" smooth="yes"/>
      <point x="672" y="414.166"/>
      <point x="697.667" y="332.333"/>
      <point x="723" y="251" type="curve" smooth="yes"/>
      <point x="745" y="185" type="line"/>
      <point x="767" y="259"/>
      <point x="790" y="333.667"/>
      <point x="814" y="409" type="curve" smooth="yes"/>
      <point x="838" y="484.333"/>
      <point x="861.667" y="559.333"/>
      <point x="885" y="634" type="curve" smooth="yes"/>
      <point x="920" y="740" type="line"/>
      <point x="1010" y="740" type="line"/>
      <point x="783" y="0" type="line"/>
      <point x="727" y="0" type="line"/>
      <point x="529" y="593" type="line"/>
      <point x="330" y="0" type="line"/>
      <point x="275" y="0" type="line"/>
    </contour>
  </outline>
</glyph>
<glyph name="X" format="1">
  <advance width="711"/>
  <unicode hex="0058"/>
  <outline>
    <contour>
      <point x="149" y="740" type="line"/>
      <point x="365" y="436.001" type="line"/>
      <point x="579" y="740.001" type="line"/>
      <point x="676" y="740.001" type="line"/>
      <point x="414" y="367.001" type="line"/>
      <point x="675" y="0.000976562" type="line"/>
      <point x="559" y="0.000976562" type="line"/>
      <point x="350" y="300.001" type="line"/>
      <point x="142" y="0.000976562" type="line"/>
      <point x="41" y="0.000976562" type="line"/>
      <point x="85" y="62.668"/>
      <point x="128.333" y="124.168"/>
      <point x="171" y="184.501" type="curve" smooth="yes"/>
      <point x="213.667" y="244.834"/>
      <point x="257" y="306.667"/>
      <point x="301" y="370" type="curve"/>
      <point x="44" y="740" type="line"/>
    </contour>
  </outline>
</glyph>
<glyph name="Y" format="1">
  <advance width="591"/>
  <unicode hex="0059"/>
  <outline>
    <contour>
      <point x="352" y="397" type="line"/>
      <point x="561.002" y="739.999" type="line"/>
      <point x="662.002" y="739.999" type="line"/>
      <point x="627.335" y="685.332"/>
      <point x="593.168" y="631.665"/>
      <point x="559.501" y="578.998" type="curve" smooth="yes"/>
      <point x="525.834" y="526.331"/>
      <point x="492.001" y="472.998"/>
      <point x="458.001" y="418.998" type="curve" smooth="yes"/>
      <point x="448.001" y="403.665"/>
      <point x="438.001" y="387.832"/>
      <point x="428.001" y="371.499" type="curve" smooth="yes"/>
      <point x="418.001" y="355.166"/>
      <point x="408.001" y="339.333"/>
      <point x="398.001" y="324" type="curve"/>
      <point x="398.001" y="0" type="line"/>
      <point x="307.001" y="0" type="line"/>
      <point x="307.001" y="324" type="line"/>
      <point x="296.334" y="340"/>
      <point x="286.167" y="355.833"/>
      <point x="276.5" y="371.5" type="curve" smooth="yes"/>
      <point x="266.833" y="387.167"/>
      <point x="257" y="403"/>
      <point x="247" y="419" type="curve" smooth="yes"/>
      <point x="43" y="740" type="line"/>
      <point x="144" y="740" type="line"/>
    </contour>
  </outline>
</glyph>
<glyph name="Z" format="1">
  <advance width="664"/>
  <unicode hex="005A"/>
  <outline>
    <contour>
      <point x="36" y="49" type="line"/>
      <point x="55" y="75" type="line"/>
      <point x="482" y="665" type="line"/>
      <point x="46" y="665" type="line"/>
      <point x="46" y="740" type="line"/>
      <point x="604" y="740" type="line"/>
      <point x="604" y="692" type="line"/>
      <point x="599" y="686" type="line"/>
      <point x="600" y="686" type="line"/>
      <point x="160" y="75" type="line"/>
      <point x="604" y="75" type="line"/>
      <point x="604" y="0" type="line"/>
      <point x="36" y="0" type="line"/>
    </contour>
  </outline>
</glyph>
<glyph name="asciicircum" format="1">
  <advance width="379"/>
  <unicode hex="005E"/>
  <outline>
    <contour>
      <point x="369" y="587" type="line"/>
      <point x="319" y="548" type="line"/>
      <point x="190" y="656" type="line"/>
      <point x="60" y="548" type="line"/>
      <point x="10" y="587" type="line"/>
      <point x="190" y="743" type="line"/>
    </contour>
  </outline>
</glyph>
<glyph name="b" format="1">
  <advance width="552"/>
  <unicode hex="0062"/>
  <outline>
    <contour>
      <point x="57" y="750" type="line"/>
      <point x="139.001" y="750" type="line"/>
      <point x="139.001" y="390" type="line"/>
      <point x="155.001" y="415.333"/>
      <point x="176.334" y="436.166"/>
      <point x="203.001" y="452.499" type="curve" smooth="yes"/>
      <point x="229.668" y="468.832"/>
      <point x="261.668" y="476.999"/>
      <point x="299.001" y="476.999" type="curve" smooth="yes"/>
      <point x="329.668" y="476.999"/>
      <point x="358.168" y="471.332"/>
      <point x="384.501" y="459.999" type="curve" smooth="yes"/>
      <point x="410.834" y="448.666"/>
      <point x="433.667" y="432.666"/>
      <point x="453" y="411.999" type="curve" smooth="yes"/>
      <point x="472.333" y="391.332"/>
      <point x="487.5" y="366.332"/>
      <point x="498.5" y="336.999" type="curve" smooth="yes"/>
      <point x="509.5" y="307.666"/>
      <point x="515" y="275.333"/>
      <point x="515" y="240" type="curve" smooth="yes"/>
      <point x="515" y="198.667"/>
      <point x="508.833" y="162.5"/>
      <point x="496.5" y="131.5" type="curve" smooth="yes"/>
      <point x="484.167" y="100.5"/>
      <point x="467.5" y="74.667"/>
      <point x="446.5" y="54" type="curve" smooth="yes"/>
      <point x="425.5" y="33.333"/>
      <point x="401" y="17.833"/>
      <point x="373" y="7.5" type="curve" smooth="yes"/>
      <point x="345" y="-2.83301"/>
      <point x="315" y="-8"/>
      <point x="283" y="-8" type="curve" smooth="yes"/>
      <point x="248.333" y="-8"/>
      <point x="219" y="-0.666992"/>
      <point x="195" y="14" type="curve" smooth="yes"/>
      <point x="171" y="28.667"/>
      <point x="151.333" y="46.667"/>
      <point x="136" y="68" type="curve"/>
      <point x="125" y="63" type="line"/>
      <point x="129" y="0" type="line"/>
      <point x="57" y="0" type="line"/>
    </contour>
    <contour>
      <point x="280.001" y="405" type="curve" smooth="yes"/>
      <point x="239.334" y="405"/>
      <point x="206.001" y="390.834"/>
      <point x="180.001" y="362.501" type="curve" smooth="yes"/>
      <point x="154.001" y="334.168"/>
      <point x="140.334" y="295.668"/>
      <point x="139.001" y="247.001" type="curve" smooth="yes"/>
      <point x="139.001" y="233.001" type="line" smooth="yes"/>
      <point x="139.001" y="209.668"/>
      <point x="142.001" y="187.501"/>
      <point x="148.001" y="166.501" type="curve" smooth="yes"/>
      <point x="154.001" y="145.501"/>
      <point x="163.001" y="127.168"/>
      <point x="175.001" y="111.501" type="curve" smooth="yes"/>
      <point x="187.001" y="95.834"/>
      <point x="202.001" y="83.334"/>
      <point x="220.001" y="74.001" type="curve" smooth="yes"/>
      <point x="238.001" y="64.668"/>
      <point x="258.668" y="60.001"/>
      <point x="282.001" y="60.001" type="curve" smooth="yes"/>
      <point x="298.001" y="60.001"/>
      <point x="314.501" y="62.668"/>
      <point x="331.501" y="68.001" type="curve" smooth="yes"/>
      <point x="348.501" y="73.334"/>
      <point x="363.668" y="82.667"/>
      <point x="377.001" y="96" type="curve" smooth="yes"/>
      <point x="390.334" y="109.333"/>
      <point x="401.334" y="127"/>
      <point x="410.001" y="149" type="curve" smooth="yes"/>
      <point x="418.668" y="171"/>
      <point x="423.001" y="198.667"/>
      <point x="423.001" y="232" type="curve" smooth="yes"/>
      <point x="423.001" y="264.667"/>
      <point x="418.834" y="292"/>
      <point x="410.501" y="314" type="curve" smooth="yes"/>
      <point x="402.168" y="336"/>
      <point x="391.168" y="353.667"/>
      <point x="377.501" y="367" type="curve" smooth="yes"/>
      <point x="363.834" y="380.333"/>
      <point x="348.501" y="390"/>
      <point x="331.501" y="396" type="curve" smooth="yes"/>
      <point x="314.501" y="402"/>
      <point x="297.334" y="405"/>
    </contour>
  </outline>
</glyph>
<glyph name="c" format="1">
  <advance width="493"/>
  <unicode hex="0063"/>
  <outline>
    <contour>
      <point x="466" y="168" type="line"/>
      <point x="468.667" y="140.667"/>
      <point x="463.166" y="115.501"/>
      <point x="449.499" y="92.501" type="curve" smooth="yes"/>
      <point x="435.832" y="69.501"/>
      <point x="419.665" y="50.334"/>
      <point x="400.998" y="35.001" type="curve" smooth="yes"/>
      <point x="380.998" y="19.668"/>
      <point x="358.498" y="8.50098"/>
      <point x="333.498" y="1.50098" type="curve" smooth="yes"/>
      <point x="308.498" y="-5.49902"/>
      <point x="281.665" y="-8.99902"/>
      <point x="252.998" y="-8.99902" type="curve" smooth="yes"/>
      <point x="218.331" y="-8.99902"/>
      <point x="187.831" y="-3.33203"/>
      <point x="161.498" y="8.00098" type="curve" smooth="yes"/>
      <point x="135.165" y="19.334"/>
      <point x="112.998" y="35.334"/>
      <point x="94.998" y="56.001" type="curve" smooth="yes"/>
      <point x="76.998" y="76.668"/>
      <point x="63.498" y="101.501"/>
      <point x="54.498" y="130.501" type="curve" smooth="yes"/>
      <point x="45.498" y="159.501"/>
      <point x="40.998" y="191.668"/>
      <point x="40.998" y="227.001" type="curve" smooth="yes"/>
      <point x="40.998" y="263.668"/>
      <point x="46.498" y="297.335"/>
      <point x="57.498" y="328.002" type="curve" smooth="yes"/>
      <point x="68.498" y="358.669"/>
      <point x="83.998" y="385.169"/>
      <point x="103.998" y="407.502" type="curve" smooth="yes"/>
      <point x="123.998" y="429.835"/>
      <point x="147.831" y="447.335"/>
      <point x="175.498" y="460.002" type="curve" smooth="yes"/>
      <point x="203.165" y="472.669"/>
      <point x="233.332" y="479.002"/>
      <point x="265.999" y="479.002" type="curve" smooth="yes"/>
      <point x="294.666" y="479.002"/>
      <point x="320.833" y="475.502"/>
      <point x="344.5" y="468.502" type="curve" smooth="yes"/>
      <point x="368.167" y="461.502"/>
      <point x="389.667" y="450.002"/>
      <point x="409" y="434.002" type="curve" smooth="yes"/>
      <point x="425.667" y="420.002"/>
      <point x="439.834" y="402.502"/>
      <point x="451.501" y="381.502" type="curve" smooth="yes"/>
      <point x="463.168" y="360.502"/>
      <point x="467.335" y="337.669"/>
      <point x="464.002" y="313.002" type="curve"/>
      <point x="384.002" y="302.002" type="line"/>
      <point x="385.335" y="317.335"/>
      <point x="383.502" y="331.168"/>
      <point x="378.502" y="343.501" type="curve" smooth="yes"/>
      <point x="373.502" y="355.834"/>
      <point x="367.335" y="366.001"/>
      <point x="360.002" y="374.001" type="curve" smooth="yes"/>
      <point x="348.002" y="388.001"/>
      <point x="334.002" y="398.001"/>
      <point x="318.002" y="404.001" type="curve" smooth="yes"/>
      <point x="302.002" y="410.001"/>
      <point x="285.335" y="413.001"/>
      <point x="268.002" y="413.001" type="curve" smooth="yes"/>
      <point x="246.002" y="413.001"/>
      <point x="226.335" y="408.001"/>
      <point x="209.002" y="398.001" type="curve" smooth="yes"/>
      <point x="191.669" y="388.001"/>
      <point x="177.002" y="374.668"/>
      <point x="165.002" y="358.001" type="curve" smooth="yes"/>
      <point x="153.002" y="341.334"/>
      <point x="143.835" y="322.167"/>
      <point x="137.502" y="300.5" type="curve" smooth="yes"/>
      <point x="131.169" y="278.833"/>
      <point x="128.002" y="256.666"/>
      <point x="128.002" y="233.999" type="curve" smooth="yes"/>
      <point x="128.002" y="210.666"/>
      <point x="130.669" y="188.333"/>
      <point x="136.002" y="167" type="curve" smooth="yes"/>
      <point x="141.335" y="145.667"/>
      <point x="149.668" y="127"/>
      <point x="161.001" y="111" type="curve" smooth="yes"/>
      <point x="172.334" y="95"/>
      <point x="186.667" y="82.167"/>
      <point x="204" y="72.5" type="curve" smooth="yes"/>
      <point x="221.333" y="62.833"/>
      <point x="242.333" y="58"/>
      <point x="267" y="58" type="curve" smooth="yes"/>
      <point x="301.667" y="58"/>
      <point x="331.334" y="70.333"/>
      <point x="356.001" y="95" type="curve" smooth="yes"/>
      <point x="365.334" y="104.333"/>
      <point x="372.167" y="116.333"/>
      <point x="376.5" y="131" type="curve" smooth="yes"/>
      <point x="380.833" y="145.667"/>
      <point x="383" y="161.667"/>
      <point x="383" y="179" type="curve"/>
    </contour>
  </outline>
</glyph>
<glyph name="d" format="1">
  <advance width="567"/>
  <unicode hex="0064"/>
  <outline>
    <contour>
      <point x="415" y="74" type="line"/>
      <point x="398.333" y="48.667"/>
      <point x="376.669" y="28.834"/>
      <point x="350.002" y="14.501" type="curve" smooth="yes"/>
      <point x="323.335" y="0.167969"/>
      <point x="291.002" y="-6.99902"/>
      <point x="253.002" y="-6.99902" type="curve" smooth="yes"/>
      <point x="222.335" y="-6.99902"/>
      <point x="193.835" y="-1.33203"/>
      <point x="167.502" y="10.001" type="curve" smooth="yes"/>
      <point x="141.169" y="21.334"/>
      <point x="118.169" y="37.334"/>
      <point x="98.502" y="58.001" type="curve" smooth="yes"/>
      <point x="78.835" y="78.668"/>
      <point x="63.502" y="103.668"/>
      <point x="52.502" y="133.001" type="curve" smooth="yes"/>
      <point x="41.502" y="162.334"/>
      <point x="36.002" y="194.667"/>
      <point x="36.002" y="230" type="curve" smooth="yes"/>
      <point x="36.002" y="271.333"/>
      <point x="42.1689" y="307.5"/>
      <point x="54.502" y="338.5" type="curve" smooth="yes"/>
      <point x="66.835" y="369.5"/>
      <point x="83.668" y="395.333"/>
      <point x="105.001" y="416" type="curve" smooth="yes"/>
      <point x="126.334" y="436.667"/>
      <point x="151.001" y="452.167"/>
      <point x="179.001" y="462.5" type="curve" smooth="yes"/>
      <point x="207.001" y="472.833"/>
      <point x="237.001" y="478"/>
      <point x="269.001" y="478" type="curve" smooth="yes"/>
      <point x="303.001" y="478"/>
      <point x="331.668" y="471.667"/>
      <point x="355.001" y="459" type="curve" smooth="yes"/>
      <point x="378.334" y="446.333"/>
      <point x="397.667" y="430"/>
      <point x="413" y="410" type="curve"/>
      <point x="413" y="750" type="line"/>
      <point x="496" y="750" type="line"/>
      <point x="496" y="0" type="line"/>
      <point x="425" y="0" type="line"/>
      <point x="428" y="70" type="line"/>
    </contour>
    <contour>
      <point x="272.003" y="65" type="curve" smooth="yes"/>
      <point x="314.003" y="65"/>
      <point x="348.003" y="79.832"/>
      <point x="374.003" y="109.499" type="curve" smooth="yes"/>
      <point x="400.003" y="139.166"/>
      <point x="413.003" y="179.333"/>
      <point x="413.003" y="230" type="curve" smooth="yes"/>
      <point x="413.003" y="237" type="line" smooth="yes"/>
      <point x="413.003" y="260.333"/>
      <point x="410.003" y="282.5"/>
      <point x="404.003" y="303.5" type="curve" smooth="yes"/>
      <point x="398.003" y="324.5"/>
      <point x="389.003" y="342.833"/>
      <point x="377.003" y="358.5" type="curve" smooth="yes"/>
      <point x="365.003" y="374.167"/>
      <point x="350.003" y="386.667"/>
      <point x="332.003" y="396" type="curve" smooth="yes"/>
      <point x="314.003" y="405.333"/>
      <point x="293.336" y="410"/>
      <point x="270.003" y="410" type="curve" smooth="yes"/>
      <point x="254.003" y="410"/>
      <point x="237.503" y="407.333"/>
      <point x="220.503" y="402" type="curve" smooth="yes"/>
      <point x="203.503" y="396.667"/>
      <point x="188.336" y="387.334"/>
      <point x="175.003" y="374.001" type="curve" smooth="yes"/>
      <point x="161.67" y="360.668"/>
      <point x="150.67" y="343.001"/>
      <point x="142.003" y="321.001" type="curve" smooth="yes"/>
      <point x="133.336" y="299.001"/>
      <point x="129.003" y="271.334"/>
      <point x="129.003" y="238.001" type="curve" smooth="yes"/>
      <point x="129.003" y="205.334"/>
      <point x="133.17" y="178.001"/>
      <point x="141.503" y="156.001" type="curve" smooth="yes"/>
      <point x="149.836" y="134.001"/>
      <point x="160.836" y="116.168"/>
      <point x="174.503" y="102.501" type="curve" smooth="yes"/>
      <point x="188.17" y="88.834"/>
      <point x="203.503" y="79.167"/>
      <point x="220.503" y="73.5" type="curve" smooth="yes"/>
      <point x="237.503" y="67.833"/>
      <point x="254.67" y="65"/>
    </contour>
  </outline>
</glyph>
<glyph name="f" format="1">
  <advance width="296"/>
  <unicode hex="0066"/>
  <outline>
    <contour>
      <point x="185" y="404" type="line"/>
      <point x="185.001" y="0.00195312" type="line"/>
      <point x="103.001" y="0.00195312" type="line"/>
      <point x="103.001" y="404.002" type="line"/>
      <point x="15.001" y="404.002" type="line"/>
      <point x="15.001" y="470.002" type="line"/>
      <point x="103.001" y="470.002" type="line"/>
      <point x="102.334" y="486.002"/>
      <point x="100.501" y="500.835"/>
      <point x="97.501" y="514.502" type="curve" smooth="yes"/>
      <point x="94.501" y="528.169"/>
      <point x="91.168" y="541.169"/>
      <point x="87.501" y="553.502" type="curve" smooth="yes"/>
      <point x="83.834" y="565.835"/>
      <point x="80.501" y="578.168"/>
      <point x="77.501" y="590.501" type="curve" smooth="yes"/>
      <point x="74.501" y="602.834"/>
      <point x="73.001" y="615.667"/>
      <point x="73.001" y="629" type="curve" smooth="yes"/>
      <point x="73.001" y="649"/>
      <point x="77.501" y="666.667"/>
      <point x="86.501" y="682" type="curve" smooth="yes"/>
      <point x="95.501" y="697.333"/>
      <point x="106.834" y="710"/>
      <point x="120.501" y="720" type="curve" smooth="yes"/>
      <point x="134.168" y="730"/>
      <point x="149.168" y="737.5"/>
      <point x="165.501" y="742.5" type="curve" smooth="yes"/>
      <point x="181.834" y="747.5"/>
      <point x="197.001" y="750"/>
      <point x="211.001" y="750" type="curve" smooth="yes"/>
      <point x="247.668" y="750"/>
      <point x="279.168" y="743.667"/>
      <point x="305.501" y="731" type="curve" smooth="yes"/>
      <point x="331.834" y="718.333"/>
      <point x="349.001" y="696"/>
      <point x="357.001" y="664" type="curve" smooth="yes"/>
      <point x="360.334" y="650"/>
      <point x="360.001" y="635"/>
      <point x="356.001" y="619" type="curve"/>
      <point x="276.001" y="602" type="line"/>
      <point x="277.334" y="613.333"/>
      <point x="277.334" y="624"/>
      <point x="276.001" y="634" type="curve" smooth="yes"/>
      <point x="274.668" y="644"/>
      <point x="271.501" y="652.833"/>
      <point x="266.501" y="660.5" type="curve" smooth="yes"/>
      <point x="261.501" y="668.167"/>
      <point x="254.168" y="674.167"/>
      <point x="244.501" y="678.5" type="curve" smooth="yes"/>
      <point x="234.834" y="682.833"/>
      <point x="222.001" y="685"/>
      <point x="206.001" y="685" type="curve" smooth="yes"/>
      <point x="192.668" y="685"/>
      <point x="181.001" y="680"/>
      <point x="171.001" y="670" type="curve" smooth="yes"/>
      <point x="161.001" y="660"/>
      <point x="156.001" y="646.333"/>
      <point x="156.001" y="629" type="curve" smooth="yes"/>
      <point x="156.001" y="615.667"/>
      <point x="157.168" y="603.5"/>
      <point x="159.501" y="592.5" type="curve" smooth="yes"/>
      <point x="161.834" y="581.5"/>
      <point x="164.501" y="570"/>
      <point x="167.501" y="558" type="curve" smooth="yes"/>
      <point x="170.501" y="546"/>
      <point x="173.668" y="533"/>
      <point x="177.001" y="519" type="curve" smooth="yes"/>
      <point x="180.334" y="505"/>
      <point x="182.667" y="488.667"/>
      <point x="184" y="470" type="curve"/>
      <point x="297" y="470" type="line"/>
      <point x="297" y="404" type="line"/>
    </contour>
  </outline>
</glyph>
<glyph name="g" format="1">
  <advance width="521"/>
  <unicode hex="0067"/>
  <outline>
    <contour>
      <point x="61" y="304" type="curve" smooth="yes"/>
      <point x="61" y="326.667"/>
      <point x="65.168" y="348.329"/>
      <point x="73.501" y="368.996" type="curve" smooth="yes"/>
      <point x="81.834" y="389.663"/>
      <point x="94.501" y="407.83"/>
      <point x="111.501" y="423.497" type="curve" smooth="yes"/>
      <point x="128.501" y="439.164"/>
      <point x="149.501" y="451.664"/>
      <point x="174.501" y="460.997" type="curve" smooth="yes"/>
      <point x="199.501" y="470.33"/>
      <point x="229.001" y="474.997"/>
      <point x="263.001" y="474.997" type="curve" smooth="yes"/>
      <point x="275.668" y="474.997"/>
      <point x="288.001" y="473.997"/>
      <point x="300.001" y="471.997" type="curve"/>
      <point x="298.001" y="477.33"/>
      <point x="296.834" y="482.663"/>
      <point x="296.501" y="487.996" type="curve" smooth="yes"/>
      <point x="296.168" y="493.329"/>
      <point x="296.001" y="499.329"/>
      <point x="296.001" y="505.996" type="curve" smooth="yes"/>
      <point x="296.001" y="521.329"/>
      <point x="299.334" y="534.996"/>
      <point x="306.001" y="546.996" type="curve" smooth="yes"/>
      <point x="312.668" y="558.996"/>
      <point x="321.335" y="568.996"/>
      <point x="332.002" y="576.996" type="curve" smooth="yes"/>
      <point x="342.669" y="584.996"/>
      <point x="355.002" y="591.163"/>
      <point x="369.002" y="595.496" type="curve" smooth="yes"/>
      <point x="383.002" y="599.829"/>
      <point x="397.335" y="601.996"/>
      <point x="412.002" y="601.996" type="curve" smooth="yes"/>
      <point x="438.669" y="601.996"/>
      <point x="461.502" y="597.663"/>
      <point x="480.502" y="588.996" type="curve" smooth="yes"/>
      <point x="499.502" y="580.329"/>
      <point x="514.335" y="566.329"/>
      <point x="525.002" y="546.996" type="curve"/>
      <point x="480.002" y="504.996" type="line"/>
      <point x="470.669" y="516.996"/>
      <point x="460.002" y="525.329"/>
      <point x="448.002" y="529.996" type="curve" smooth="yes"/>
      <point x="436.002" y="534.663"/>
      <point x="422.335" y="536.663"/>
      <point x="407.002" y="535.996" type="curve" smooth="yes"/>
      <point x="392.335" y="535.329"/>
      <point x="381.335" y="529.829"/>
      <point x="374.002" y="519.496" type="curve" smooth="yes"/>
      <point x="366.669" y="509.163"/>
      <point x="363.002" y="499.33"/>
      <point x="363.002" y="489.997" type="curve" smooth="yes"/>
      <point x="363.002" y="478.664"/>
      <point x="364.169" y="470.331"/>
      <point x="366.502" y="464.998" type="curve" smooth="yes"/>
      <point x="368.835" y="459.665"/>
      <point x="373.668" y="453.665"/>
      <point x="381.001" y="446.998" type="curve" smooth="yes"/>
      <point x="409.001" y="431.665"/>
      <point x="430.001" y="411.332"/>
      <point x="444.001" y="385.999" type="curve" smooth="yes"/>
      <point x="458.001" y="360.666"/>
      <point x="465.001" y="333.333"/>
      <point x="465.001" y="304" type="curve" smooth="yes"/>
      <point x="465.001" y="282"/>
      <point x="460.834" y="260.667"/>
      <point x="452.501" y="240" type="curve" smooth="yes"/>
      <point x="444.168" y="219.333"/>
      <point x="431.668" y="201.333"/>
      <point x="415.001" y="186" type="curve" smooth="yes"/>
      <point x="398.334" y="170.667"/>
      <point x="377.334" y="158.334"/>
      <point x="352.001" y="149.001" type="curve" smooth="yes"/>
      <point x="326.668" y="139.668"/>
      <point x="297.001" y="135.001"/>
      <point x="263.001" y="135.001" type="curve" smooth="yes"/>
      <point x="235.001" y="135.001"/>
      <point x="210.001" y="138.001"/>
      <point x="188.001" y="144.001" type="curve"/>
      <point x="170.668" y="138.668"/>
      <point x="158.335" y="132.001"/>
      <point x="151.002" y="124.001" type="curve" smooth="yes"/>
      <point x="143.669" y="116.001"/>
      <point x="140.002" y="108.001"/>
      <point x="140.002" y="100.001" type="curve" smooth="yes"/>
      <point x="140.002" y="90.001"/>
      <point x="142.002" y="82.001"/>
      <point x="146.002" y="76.001" type="curve" smooth="yes"/>
      <point x="150.002" y="70.001"/>
      <point x="158.169" y="65.501"/>
      <point x="170.502" y="62.501" type="curve" smooth="yes"/>
      <point x="182.835" y="59.501"/>
      <point x="200.168" y="57.668"/>
      <point x="222.501" y="57.001" type="curve" smooth="yes"/>
      <point x="244.834" y="56.334"/>
      <point x="274.334" y="56.001"/>
      <point x="311.001" y="56.001" type="curve" smooth="yes"/>
      <point x="337.668" y="56.001"/>
      <point x="363.168" y="53.501"/>
      <point x="387.501" y="48.501" type="curve" smooth="yes"/>
      <point x="411.834" y="43.501"/>
      <point x="433.501" y="35.501"/>
      <point x="452.501" y="24.501" type="curve" smooth="yes"/>
      <point x="471.501" y="13.501"/>
      <point x="486.668" y="-0.332031"/>
      <point x="498.001" y="-16.999" type="curve" smooth="yes"/>
      <point x="509.334" y="-33.666"/>
      <point x="515.001" y="-53.999"/>
      <point x="515.001" y="-77.999" type="curve" smooth="yes"/>
      <point x="515.001" y="-111.332"/>
      <point x="506.001" y="-138.999"/>
      <point x="488.001" y="-160.999" type="curve" smooth="yes"/>
      <point x="470.001" y="-182.999"/>
      <point x="447.668" y="-200.499"/>
      <point x="421.001" y="-213.499" type="curve" smooth="yes"/>
      <point x="394.334" y="-226.499"/>
      <point x="365.834" y="-235.832"/>
      <point x="335.501" y="-241.499" type="curve" smooth="yes"/>
      <point x="305.168" y="-247.166"/>
      <point x="277.668" y="-249.999"/>
      <point x="253.001" y="-249.999" type="curve" smooth="yes"/>
      <point x="182.334" y="-249.999"/>
      <point x="128.167" y="-237.499"/>
      <point x="90.5" y="-212.499" type="curve" smooth="yes"/>
      <point x="52.833" y="-187.499"/>
      <point x="34" y="-153.332"/>
      <point x="34" y="-109.999" type="curve" smooth="yes"/>
      <point x="34" y="-95.999"/>
      <point x="37.833" y="-83.166"/>
      <point x="45.5" y="-71.499" type="curve" smooth="yes"/>
      <point x="53.167" y="-59.832"/>
      <point x="62.5" y="-49.499"/>
      <point x="73.5" y="-40.499" type="curve" smooth="yes"/>
      <point x="84.5" y="-31.499"/>
      <point x="96" y="-24.166"/>
      <point x="108" y="-18.499" type="curve" smooth="yes"/>
      <point x="120" y="-12.832"/>
      <point x="130.667" y="-9.33203"/>
      <point x="140" y="-7.99902" type="curve"/>
      <point x="114.667" y="-2.66602"/>
      <point x="94.167" y="7.33398"/>
      <point x="78.5" y="22.001" type="curve" smooth="yes"/>
      <point x="62.833" y="36.668"/>
      <point x="55" y="56.668"/>
      <point x="55" y="82.001" type="curve" smooth="yes"/>
      <point x="55" y="98.668"/>
      <point x="60.333" y="115.001"/>
      <point x="71" y="131.001" type="curve" smooth="yes"/>
      <point x="81.667" y="147.001"/>
      <point x="101" y="160.668"/>
      <point x="129" y="172.001" type="curve"/>
      <point x="105.667" y="187.334"/>
      <point x="88.5" y="206.667"/>
      <point x="77.5" y="230" type="curve" smooth="yes"/>
      <point x="66.5" y="253.333"/>
      <point x="61" y="278"/>
    </contour>
    <contour>
      <point x="122.001" y="-99.0049" type="curve" smooth="yes"/>
      <point x="122.001" y="-113.005"/>
      <point x="125.833" y="-125.005"/>
      <point x="133.5" y="-135.005" type="curve" smooth="yes"/>
      <point x="141.167" y="-145.005"/>
      <point x="151.167" y="-153.172"/>
      <point x="163.5" y="-159.505" type="curve" smooth="yes"/>
      <point x="175.833" y="-165.838"/>
      <point x="190" y="-170.671"/>
      <point x="206" y="-174.004" type="curve" smooth="yes"/>
      <point x="222" y="-177.337"/>
      <point x="238.333" y="-179.004"/>
      <point x="255" y="-179.004" type="curve" smooth="yes"/>
      <point x="277" y="-179.004"/>
      <point x="298.5" y="-177.004"/>
      <point x="319.5" y="-173.004" type="curve" smooth="yes"/>
      <point x="340.5" y="-169.004"/>
      <point x="359.167" y="-163.171"/>
      <point x="375.5" y="-155.504" type="curve" smooth="yes"/>
      <point x="391.833" y="-147.837"/>
      <point x="405" y="-138.504"/>
      <point x="415" y="-127.504" type="curve" smooth="yes"/>
      <point x="425" y="-116.504"/>
      <point x="430" y="-104.004"/>
      <point x="430" y="-90.0039" type="curve" smooth="yes"/>
      <point x="430" y="-80.0039"/>
      <point x="427.5" y="-70.5039"/>
      <point x="422.5" y="-61.5039" type="curve" smooth="yes"/>
      <point x="417.5" y="-52.5039"/>
      <point x="409" y="-44.5039"/>
      <point x="397" y="-37.5039" type="curve" smooth="yes"/>
      <point x="385" y="-30.5039"/>
      <point x="369.167" y="-25.0039"/>
      <point x="349.5" y="-21.0039" type="curve" smooth="yes"/>
      <point x="329.833" y="-17.0039"/>
      <point x="305.333" y="-15.3369"/>
      <point x="276" y="-16.0039" type="curve" smooth="yes"/>
      <point x="264.667" y="-16.0039"/>
      <point x="255.834" y="-16.1709"/>
      <point x="249.501" y="-16.5039" type="curve" smooth="yes"/>
      <point x="243.168" y="-16.8369"/>
      <point x="237.335" y="-17.0039"/>
      <point x="232.002" y="-17.0039" type="curve" smooth="yes"/>
      <point x="221.002" y="-17.0039" type="line" smooth="yes"/>
      <point x="208.335" y="-20.3369"/>
      <point x="196.168" y="-24.3369"/>
      <point x="184.501" y="-29.0039" type="curve" smooth="yes"/>
      <point x="172.834" y="-33.6709"/>
      <point x="162.334" y="-39.3379"/>
      <point x="153.001" y="-46.0049" type="curve" smooth="yes"/>
      <point x="143.668" y="-52.6719"/>
      <point x="136.168" y="-60.5049"/>
      <point x="130.501" y="-69.5049" type="curve" smooth="yes"/>
      <point x="124.834" y="-78.5049"/>
      <point x="122.001" y="-88.3379"/>
    </contour>
    <contour>
      <point x="148" y="303.995" type="curve" smooth="yes"/>
      <point x="148" y="273.995"/>
      <point x="158.167" y="248.495"/>
      <point x="178.5" y="227.495" type="curve" smooth="yes"/>
      <point x="198.833" y="206.495"/>
      <point x="227" y="195.995"/>
      <point x="263" y="195.995" type="curve" smooth="yes"/>
      <point x="299.667" y="195.995"/>
      <point x="328.167" y="206.495"/>
      <point x="348.5" y="227.495" type="curve" smooth="yes"/>
      <point x="368.833" y="248.495"/>
      <point x="379" y="273.995"/>
      <point x="379" y="303.995" type="curve" smooth="yes"/>
      <point x="379" y="335.328"/>
      <point x="368.833" y="361.495"/>
      <point x="348.5" y="382.495" type="curve" smooth="yes"/>
      <point x="328.167" y="403.495"/>
      <point x="299.667" y="413.995"/>
      <point x="263" y="413.995" type="curve" smooth="yes"/>
      <point x="227" y="413.995"/>
      <point x="198.833" y="403.495"/>
      <point x="178.5" y="382.495" type="curve" smooth="yes"/>
      <point x="158.167" y="361.495"/>
      <point x="148" y="335.328"/>
    </contour>
  </outline>
</glyph>
<glyph name="h" format="1">
  <advance width="496"/>
  <unicode hex="0068"/>
  <outline>
    <contour>
      <point x="366" y="274" type="line" smooth="yes"/>
      <point x="366" y="319.333"/>
      <point x="356.167" y="351.333"/>
      <point x="336.5" y="370" type="curve" smooth="yes"/>
      <point x="316.833" y="388.667"/>
      <point x="292" y="398"/>
      <point x="262" y="398" type="curve" smooth="yes"/>
      <point x="250.667" y="398"/>
      <point x="238" y="396"/>
      <point x="224" y="392" type="curve" smooth="yes"/>
      <point x="210" y="388"/>
      <point x="196.833" y="380.833"/>
      <point x="184.5" y="370.5" type="curve" smooth="yes"/>
      <point x="172.167" y="360.167"/>
      <point x="161.667" y="346.334"/>
      <point x="153" y="329.001" type="curve" smooth="yes"/>
      <point x="144.333" y="311.668"/>
      <point x="139.666" y="289.668"/>
      <point x="138.999" y="263.001" type="curve" smooth="yes"/>
      <point x="138.999" y="0.000976562" type="line"/>
      <point x="56.999" y="0.000976562" type="line"/>
      <point x="56.999" y="750.001" type="line"/>
      <point x="138.999" y="750.001" type="line"/>
      <point x="138.999" y="395.001" type="line"/>
      <point x="152.999" y="418.334"/>
      <point x="172.332" y="437.501"/>
      <point x="196.999" y="452.501" type="curve" smooth="yes"/>
      <point x="221.666" y="467.501"/>
      <point x="249.333" y="475.001"/>
      <point x="280" y="475.001" type="curve" smooth="yes"/>
      <point x="338" y="475.001"/>
      <point x="380.5" y="458.168"/>
      <point x="407.5" y="424.501" type="curve" smooth="yes"/>
      <point x="434.5" y="390.834"/>
      <point x="448" y="346.667"/>
      <point x="448" y="292" type="curve" smooth="yes"/>
      <point x="448" y="0" type="line"/>
      <point x="366" y="0" type="line"/>
    </contour>
  </outline>
</glyph>
<glyph name="i" format="1">
  <advance width="235"/>
  <unicode hex="0069"/>
  <outline>
    <contour>
      <point x="75" y="470" type="line"/>
      <point x="157" y="470" type="line"/>
      <point x="157" y="0" type="line"/>
      <point x="75" y="0" type="line"/>
    </contour>
    <contour>
      <point x="61" y="655" type="curve" smooth="yes"/>
      <point x="61" y="671.667"/>
      <point x="66" y="684.667"/>
      <point x="76" y="694" type="curve" smooth="yes"/>
      <point x="86" y="703.333"/>
      <point x="99.667" y="708"/>
      <point x="117" y="708" type="curve" smooth="yes"/>
      <point x="134.333" y="708"/>
      <point x="147.833" y="703.333"/>
      <point x="157.5" y="694" type="curve" smooth="yes"/>
      <point x="167.167" y="684.667"/>
      <point x="172" y="671.667"/>
      <point x="172" y="655" type="curve" smooth="yes"/>
      <point x="172" y="638.333"/>
      <point x="167.167" y="625.333"/>
      <point x="157.5" y="616" type="curve" smooth="yes"/>
      <point x="147.833" y="606.667"/>
      <point x="134.333" y="602"/>
      <point x="117" y="602" type="curve" smooth="yes"/>
      <point x="99.667" y="602"/>
      <point x="86" y="606.667"/>
      <point x="76" y="616" type="curve" smooth="yes"/>
      <point x="66" y="625.333"/>
      <point x="61" y="638.333"/>
    </contour>
  </outline>
</glyph>
<glyph name="j" format="1">
  <advance width="271"/>
  <unicode hex="006A"/>
  <outline>
    <contour>
      <point x="99" y="470" type="line"/>
      <point x="181.001" y="470" type="line"/>
      <point x="181.001" y="-40" type="line" smooth="yes"/>
      <point x="181.001" y="-90"/>
      <point x="176.668" y="-130.167"/>
      <point x="168.001" y="-160.5" type="curve" smooth="yes"/>
      <point x="159.334" y="-190.833"/>
      <point x="142.667" y="-214.333"/>
      <point x="118" y="-231" type="curve" smooth="yes"/>
      <point x="108.667" y="-237"/>
      <point x="97.834" y="-241.5"/>
      <point x="85.501" y="-244.5" type="curve" smooth="yes"/>
      <point x="73.168" y="-247.5"/>
      <point x="60.168" y="-249.167"/>
      <point x="46.501" y="-249.5" type="curve" smooth="yes"/>
      <point x="32.834" y="-249.833"/>
      <point x="19.001" y="-249.166"/>
      <point x="5.00098" y="-247.499" type="curve" smooth="yes"/>
      <point x="-8.99902" y="-245.832"/>
      <point x="-22.332" y="-243.332"/>
      <point x="-34.999" y="-239.999" type="curve"/>
      <point x="-30.999" y="-169.999" type="line"/>
      <point x="-16.999" y="-175.332"/>
      <point x="-4.66602" y="-178.499"/>
      <point x="6.00098" y="-179.499" type="curve" smooth="yes"/>
      <point x="16.668" y="-180.499"/>
      <point x="25.668" y="-180.999"/>
      <point x="33.001" y="-180.999" type="curve" smooth="yes"/>
      <point x="59.001" y="-180.999"/>
      <point x="76.668" y="-169.332"/>
      <point x="86.001" y="-145.999" type="curve" smooth="yes"/>
      <point x="95.334" y="-122.666"/>
      <point x="99.667" y="-88.333"/>
      <point x="99" y="-43" type="curve" smooth="yes"/>
    </contour>
    <contour>
      <point x="88.001" y="655" type="curve" smooth="yes"/>
      <point x="88.001" y="671.667"/>
      <point x="93.001" y="684.667"/>
      <point x="103.001" y="694" type="curve" smooth="yes"/>
      <point x="113.001" y="703.333"/>
      <point x="126.668" y="708"/>
      <point x="144.001" y="708" type="curve" smooth="yes"/>
      <point x="161.334" y="708"/>
      <point x="174.834" y="703.333"/>
      <point x="184.501" y="694" type="curve" smooth="yes"/>
      <point x="194.168" y="684.667"/>
      <point x="199.001" y="671.667"/>
      <point x="199.001" y="655" type="curve" smooth="yes"/>
      <point x="199.001" y="638.333"/>
      <point x="194.168" y="625.333"/>
      <point x="184.501" y="616" type="curve" smooth="yes"/>
      <point x="174.834" y="606.667"/>
      <point x="161.334" y="602"/>
      <point x="144.001" y="602" type="curve" smooth="yes"/>
      <point x="126.668" y="602"/>
      <point x="113.001" y="606.667"/>
      <point x="103.001" y="616" type="curve" smooth="yes"/>
      <point x="93.001" y="625.333"/>
      <point x="88.001" y="638.333"/>
    </contour>
  </outline>
</glyph>
<glyph name="k" format="1">
  <advance width="478"/>
  <unicode hex="006B"/>
  <outline>
    <contour>
      <point x="77" y="750" type="line"/>
      <point x="159" y="750" type="line"/>
      <point x="159" y="266" type="line"/>
      <point x="364" y="469" type="line"/>
      <point x="469" y="469" type="line"/>
      <point x="280" y="285" type="line"/>
      <point x="483" y="0" type="line"/>
      <point x="380" y="0" type="line"/>
      <point x="219" y="225" type="line"/>
      <point x="159" y="166" type="line"/>
      <point x="159" y="0" type="line"/>
      <point x="77" y="0" type="line"/>
    </contour>
  </outline>
</glyph>
<glyph name="m" format="1">
  <advance width="823"/>
  <unicode hex="006D"/>
  <outline>
    <contour>
      <point x="365" y="274" type="line" smooth="yes"/>
      <point x="365" y="296.667"/>
      <point x="362.167" y="315.832"/>
      <point x="356.5" y="331.499" type="curve" smooth="yes"/>
      <point x="350.833" y="347.166"/>
      <point x="343.166" y="359.999"/>
      <point x="333.499" y="369.999" type="curve" smooth="yes"/>
      <point x="323.832" y="379.999"/>
      <point x="312.832" y="387.166"/>
      <point x="300.499" y="391.499" type="curve" smooth="yes"/>
      <point x="288.166" y="395.832"/>
      <point x="275.333" y="397.999"/>
      <point x="262" y="397.999" type="curve" smooth="yes"/>
      <point x="250.667" y="397.999"/>
      <point x="238" y="395.999"/>
      <point x="224" y="391.999" type="curve" smooth="yes"/>
      <point x="210" y="387.999"/>
      <point x="196.833" y="380.832"/>
      <point x="184.5" y="370.499" type="curve" smooth="yes"/>
      <point x="172.167" y="360.166"/>
      <point x="161.667" y="346.333"/>
      <point x="153" y="329" type="curve" smooth="yes"/>
      <point x="144.333" y="311.667"/>
      <point x="139.666" y="289.667"/>
      <point x="138.999" y="263" type="curve" smooth="yes"/>
      <point x="138.999" y="0" type="line"/>
      <point x="56.999" y="0" type="line"/>
      <point x="56.999" y="470" type="line"/>
      <point x="130.999" y="470" type="line"/>
      <point x="130.999" y="381" type="line"/>
      <point x="144.332" y="409"/>
      <point x="163.999" y="431.667"/>
      <point x="189.999" y="449" type="curve" smooth="yes"/>
      <point x="215.999" y="466.333"/>
      <point x="245.999" y="475"/>
      <point x="279.999" y="475" type="curve" smooth="yes"/>
      <point x="319.332" y="475"/>
      <point x="351.832" y="466"/>
      <point x="377.499" y="448" type="curve" smooth="yes"/>
      <point x="403.166" y="430"/>
      <point x="421.666" y="405.667"/>
      <point x="432.999" y="375" type="curve"/>
      <point x="444.332" y="405"/>
      <point x="463.999" y="429.167"/>
      <point x="491.999" y="447.5" type="curve" smooth="yes"/>
      <point x="519.999" y="465.833"/>
      <point x="551.999" y="475"/>
      <point x="587.999" y="475" type="curve" smooth="yes"/>
      <point x="642.666" y="475"/>
      <point x="684.166" y="458.167"/>
      <point x="712.499" y="424.5" type="curve" smooth="yes"/>
      <point x="740.832" y="390.833"/>
      <point x="754.999" y="346.666"/>
      <point x="754.999" y="291.999" type="curve" smooth="yes"/>
      <point x="754.999" y="-0.000976562" type="line"/>
      <point x="672.999" y="-0.000976562" type="line"/>
      <point x="672.999" y="273.999" type="line" smooth="yes"/>
      <point x="672.999" y="296.666"/>
      <point x="670.166" y="315.833"/>
      <point x="664.499" y="331.5" type="curve" smooth="yes"/>
      <point x="658.832" y="347.167"/>
      <point x="651.165" y="360"/>
      <point x="641.498" y="370" type="curve" smooth="yes"/>
      <point x="631.831" y="380"/>
      <point x="620.831" y="387.167"/>
      <point x="608.498" y="391.5" type="curve" smooth="yes"/>
      <point x="596.165" y="395.833"/>
      <point x="583.332" y="398"/>
      <point x="569.999" y="398" type="curve" smooth="yes"/>
      <point x="558.666" y="398"/>
      <point x="545.833" y="395.833"/>
      <point x="531.5" y="391.5" type="curve" smooth="yes"/>
      <point x="517.167" y="387.167"/>
      <point x="503.667" y="379.667"/>
      <point x="491" y="369" type="curve" smooth="yes"/>
      <point x="478.333" y="358.333"/>
      <point x="467.833" y="343.833"/>
      <point x="459.5" y="325.5" type="curve" smooth="yes"/>
      <point x="451.167" y="307.167"/>
      <point x="447" y="283.667"/>
      <point x="447" y="255" type="curve" smooth="yes"/>
      <point x="447" y="0" type="line"/>
      <point x="365" y="0" type="line"/>
    </contour>
  </outline>
</glyph>
<glyph name="n" format="1">
  <advance width="535"/>
  <unicode hex="006E"/>
  <outline>
    <contour>
      <point x="391" y="274" type="line" smooth="yes"/>
      <point x="391" y="319.333"/>
      <point x="381.168" y="351.333"/>
      <point x="361.501" y="370" type="curve" smooth="yes"/>
      <point x="341.834" y="388.667"/>
      <point x="317.001" y="398"/>
      <point x="287.001" y="398" type="curve" smooth="yes"/>
      <point x="275.668" y="398"/>
      <point x="263.001" y="396"/>
      <point x="249.001" y="392" type="curve" smooth="yes"/>
      <point x="235.001" y="388"/>
      <point x="221.834" y="380.833"/>
      <point x="209.501" y="370.5" type="curve" smooth="yes"/>
      <point x="197.168" y="360.167"/>
      <point x="186.668" y="346.334"/>
      <point x="178.001" y="329.001" type="curve" smooth="yes"/>
      <point x="169.334" y="311.668"/>
      <point x="164.667" y="289.668"/>
      <point x="164" y="263.001" type="curve" smooth="yes"/>
      <point x="164" y="0.000976562" type="line"/>
      <point x="82" y="0.000976562" type="line"/>
      <point x="82" y="470.001" type="line"/>
      <point x="156" y="470.001" type="line"/>
      <point x="156" y="381.001" type="line"/>
      <point x="169.333" y="409.001"/>
      <point x="189" y="431.668"/>
      <point x="215" y="449.001" type="curve" smooth="yes"/>
      <point x="241" y="466.334"/>
      <point x="271" y="475.001"/>
      <point x="305" y="475.001" type="curve" smooth="yes"/>
      <point x="363" y="475.001"/>
      <point x="405.5" y="458.168"/>
      <point x="432.5" y="424.501" type="curve" smooth="yes"/>
      <point x="459.5" y="390.834"/>
      <point x="473" y="346.667"/>
      <point x="473" y="292" type="curve" smooth="yes"/>
      <point x="473" y="0" type="line"/>
      <point x="391" y="0" type="line"/>
    </contour>
  </outline>
</glyph>
<glyph name="p" format="1">
  <advance width="552"/>
  <unicode hex="0070"/>
  <outline>
    <contour>
      <point x="123" y="400" type="line"/>
      <point x="137.001" y="396" type="line"/>
      <point x="153.668" y="421.333"/>
      <point x="175.335" y="441.166"/>
      <point x="202.002" y="455.499" type="curve" smooth="yes"/>
      <point x="228.669" y="469.832"/>
      <point x="261.002" y="476.999"/>
      <point x="299.002" y="476.999" type="curve" smooth="yes"/>
      <point x="329.669" y="476.999"/>
      <point x="358.169" y="471.332"/>
      <point x="384.502" y="459.999" type="curve" smooth="yes"/>
      <point x="410.835" y="448.666"/>
      <point x="433.668" y="432.666"/>
      <point x="453.001" y="411.999" type="curve" smooth="yes"/>
      <point x="472.334" y="391.332"/>
      <point x="487.501" y="366.332"/>
      <point x="498.501" y="336.999" type="curve" smooth="yes"/>
      <point x="509.501" y="307.666"/>
      <point x="515.001" y="275.333"/>
      <point x="515.001" y="240" type="curve" smooth="yes"/>
      <point x="515.001" y="198.667"/>
      <point x="508.834" y="162.5"/>
      <point x="496.501" y="131.5" type="curve" smooth="yes"/>
      <point x="484.168" y="100.5"/>
      <point x="467.501" y="74.667"/>
      <point x="446.501" y="54" type="curve" smooth="yes"/>
      <point x="425.501" y="33.333"/>
      <point x="401.001" y="17.833"/>
      <point x="373.001" y="7.5" type="curve" smooth="yes"/>
      <point x="345.001" y="-2.83301"/>
      <point x="315.001" y="-8"/>
      <point x="283.001" y="-8" type="curve" smooth="yes"/>
      <point x="249.001" y="-8"/>
      <point x="220.168" y="-1.66699"/>
      <point x="196.501" y="11" type="curve" smooth="yes"/>
      <point x="172.834" y="23.667"/>
      <point x="153.667" y="40"/>
      <point x="139" y="60" type="curve"/>
      <point x="139" y="-250" type="line"/>
      <point x="57" y="-250" type="line"/>
      <point x="57" y="470" type="line"/>
      <point x="127" y="470" type="line"/>
    </contour>
    <contour>
      <point x="280.001" y="405" type="curve" smooth="yes"/>
      <point x="238.001" y="405"/>
      <point x="204.002" y="390.169"/>
      <point x="178.002" y="360.502" type="curve" smooth="yes"/>
      <point x="152.002" y="330.835"/>
      <point x="139.002" y="290.668"/>
      <point x="139.002" y="240.001" type="curve" smooth="yes"/>
      <point x="139.002" y="226.001" type="line" smooth="yes"/>
      <point x="139.669" y="203.334"/>
      <point x="143.169" y="181.834"/>
      <point x="149.502" y="161.501" type="curve" smooth="yes"/>
      <point x="155.835" y="141.168"/>
      <point x="165.002" y="123.501"/>
      <point x="177.002" y="108.501" type="curve" smooth="yes"/>
      <point x="189.002" y="93.501"/>
      <point x="203.669" y="81.668"/>
      <point x="221.002" y="73.001" type="curve" smooth="yes"/>
      <point x="238.335" y="64.334"/>
      <point x="258.668" y="60.001"/>
      <point x="282.001" y="60.001" type="curve" smooth="yes"/>
      <point x="298.001" y="60.001"/>
      <point x="314.501" y="62.668"/>
      <point x="331.501" y="68.001" type="curve" smooth="yes"/>
      <point x="348.501" y="73.334"/>
      <point x="363.668" y="82.667"/>
      <point x="377.001" y="96" type="curve" smooth="yes"/>
      <point x="390.334" y="109.333"/>
      <point x="401.334" y="127"/>
      <point x="410.001" y="149" type="curve" smooth="yes"/>
      <point x="418.668" y="171"/>
      <point x="423.001" y="198.667"/>
      <point x="423.001" y="232" type="curve" smooth="yes"/>
      <point x="423.001" y="264.667"/>
      <point x="418.834" y="292"/>
      <point x="410.501" y="314" type="curve" smooth="yes"/>
      <point x="402.168" y="336"/>
      <point x="391.168" y="353.667"/>
      <point x="377.501" y="367" type="curve" smooth="yes"/>
      <point x="363.834" y="380.333"/>
      <point x="348.501" y="390"/>
      <point x="331.501" y="396" type="curve" smooth="yes"/>
      <point x="314.501" y="402"/>
      <point x="297.334" y="405"/>
    </contour>
  </outline>
</glyph>
<glyph name="q" format="1">
  <advance width="571"/>
  <unicode hex="0071"/>
  <outline>
    <contour>
      <point x="495" y="-250" type="line"/>
      <point x="413.001" y="-249.999" type="line"/>
      <point x="413.001" y="70.001" type="line"/>
      <point x="396.334" y="46.001"/>
      <point x="374.667" y="27.001"/>
      <point x="348" y="13.001" type="curve" smooth="yes"/>
      <point x="321.333" y="-0.999023"/>
      <point x="289.666" y="-7.99902"/>
      <point x="252.999" y="-7.99902" type="curve" smooth="yes"/>
      <point x="222.332" y="-7.99902"/>
      <point x="193.832" y="-2.33203"/>
      <point x="167.499" y="9.00098" type="curve" smooth="yes"/>
      <point x="141.166" y="20.334"/>
      <point x="118.333" y="36.334"/>
      <point x="99" y="57.001" type="curve" smooth="yes"/>
      <point x="79.667" y="77.668"/>
      <point x="64.5" y="102.668"/>
      <point x="53.5" y="132.001" type="curve" smooth="yes"/>
      <point x="42.5" y="161.334"/>
      <point x="37" y="193.667"/>
      <point x="37" y="229" type="curve" smooth="yes"/>
      <point x="37" y="270.333"/>
      <point x="43.167" y="306.5"/>
      <point x="55.5" y="337.5" type="curve" smooth="yes"/>
      <point x="67.833" y="368.5"/>
      <point x="84.5" y="394.333"/>
      <point x="105.5" y="415" type="curve" smooth="yes"/>
      <point x="126.5" y="435.667"/>
      <point x="151" y="451.167"/>
      <point x="179" y="461.5" type="curve" smooth="yes"/>
      <point x="207" y="471.833"/>
      <point x="237" y="477"/>
      <point x="269" y="477" type="curve" smooth="yes"/>
      <point x="303" y="477"/>
      <point x="332" y="470.5"/>
      <point x="356" y="457.5" type="curve" smooth="yes"/>
      <point x="380" y="444.5"/>
      <point x="399.333" y="427.667"/>
      <point x="414" y="407" type="curve"/>
      <point x="429" y="411" type="line"/>
      <point x="428" y="470" type="line"/>
      <point x="495" y="470" type="line"/>
    </contour>
    <contour>
      <point x="272.001" y="64.001" type="curve" smooth="yes"/>
      <point x="314.001" y="64.001"/>
      <point x="348.002" y="78.833"/>
      <point x="374.002" y="108.5" type="curve" smooth="yes"/>
      <point x="400.002" y="138.167"/>
      <point x="413.002" y="178.334"/>
      <point x="413.002" y="229.001" type="curve" smooth="yes"/>
      <point x="413.002" y="243.001" type="line" smooth="yes"/>
      <point x="412.335" y="265.668"/>
      <point x="408.668" y="287.168"/>
      <point x="402.001" y="307.501" type="curve" smooth="yes"/>
      <point x="395.334" y="327.834"/>
      <point x="386.001" y="345.501"/>
      <point x="374.001" y="360.501" type="curve" smooth="yes"/>
      <point x="362.001" y="375.501"/>
      <point x="347.334" y="387.334"/>
      <point x="330.001" y="396.001" type="curve" smooth="yes"/>
      <point x="312.668" y="404.668"/>
      <point x="292.668" y="409.001"/>
      <point x="270.001" y="409.001" type="curve" smooth="yes"/>
      <point x="254.001" y="409.001"/>
      <point x="237.501" y="406.334"/>
      <point x="220.501" y="401.001" type="curve" smooth="yes"/>
      <point x="203.501" y="395.668"/>
      <point x="188.334" y="386.335"/>
      <point x="175.001" y="373.002" type="curve" smooth="yes"/>
      <point x="161.668" y="359.669"/>
      <point x="150.668" y="342.002"/>
      <point x="142.001" y="320.002" type="curve" smooth="yes"/>
      <point x="133.334" y="298.002"/>
      <point x="129.001" y="270.335"/>
      <point x="129.001" y="237.002" type="curve" smooth="yes"/>
      <point x="129.001" y="204.335"/>
      <point x="133.168" y="177.002"/>
      <point x="141.501" y="155.002" type="curve" smooth="yes"/>
      <point x="149.834" y="133.002"/>
      <point x="160.834" y="115.169"/>
      <point x="174.501" y="101.502" type="curve" smooth="yes"/>
      <point x="188.168" y="87.835"/>
      <point x="203.501" y="78.168"/>
      <point x="220.501" y="72.501" type="curve" smooth="yes"/>
      <point x="237.501" y="66.834"/>
      <point x="254.668" y="64.001"/>
    </contour>
  </outline>
</glyph>
<glyph name="r" format="1">
  <advance width="400"/>
  <unicode hex="0072"/>
  <outline>
    <contour>
      <point x="61" y="470" type="line"/>
      <point x="134.997" y="470.001" type="line"/>
      <point x="134.997" y="381.001" type="line"/>
      <point x="147.664" y="409.668"/>
      <point x="164.997" y="432.501"/>
      <point x="186.997" y="449.501" type="curve" smooth="yes"/>
      <point x="208.997" y="466.501"/>
      <point x="232.664" y="475.001"/>
      <point x="257.997" y="475.001" type="curve" smooth="yes"/>
      <point x="298.664" y="475.001"/>
      <point x="331.664" y="465.001"/>
      <point x="356.997" y="445.001" type="curve" smooth="yes"/>
      <point x="382.33" y="425.001"/>
      <point x="394.997" y="393.334"/>
      <point x="394.997" y="350.001" type="curve" smooth="yes"/>
      <point x="394.997" y="344.668"/>
      <point x="394.83" y="339.168"/>
      <point x="394.497" y="333.501" type="curve" smooth="yes"/>
      <point x="394.164" y="327.834"/>
      <point x="393.664" y="322.001"/>
      <point x="392.997" y="316.001" type="curve"/>
      <point x="306.997" y="302.001" type="line"/>
      <point x="308.33" y="311.334"/>
      <point x="308.83" y="321.334"/>
      <point x="308.497" y="332.001" type="curve" smooth="yes"/>
      <point x="308.164" y="342.668"/>
      <point x="307.331" y="350.668"/>
      <point x="305.998" y="356.001" type="curve" smooth="yes"/>
      <point x="302.665" y="368.001"/>
      <point x="298.332" y="377.168"/>
      <point x="292.999" y="383.501" type="curve" smooth="yes"/>
      <point x="287.666" y="389.834"/>
      <point x="281.999" y="394.667"/>
      <point x="275.999" y="398" type="curve" smooth="yes"/>
      <point x="269.999" y="401.333"/>
      <point x="263.832" y="403.333"/>
      <point x="257.499" y="404" type="curve" smooth="yes"/>
      <point x="251.166" y="404.667"/>
      <point x="245.333" y="405"/>
      <point x="240" y="405" type="curve" smooth="yes"/>
      <point x="226" y="405"/>
      <point x="213.5" y="400.5"/>
      <point x="202.5" y="391.5" type="curve" smooth="yes"/>
      <point x="191.5" y="382.5"/>
      <point x="182.333" y="371.667"/>
      <point x="175" y="359" type="curve" smooth="yes"/>
      <point x="167" y="347.667"/>
      <point x="160" y="330.5"/>
      <point x="154" y="307.5" type="curve" smooth="yes"/>
      <point x="148" y="284.5"/>
      <point x="144.333" y="257.333"/>
      <point x="143" y="226" type="curve" smooth="yes"/>
      <point x="143" y="0" type="line"/>
      <point x="61" y="0" type="line"/>
    </contour>
  </outline>
</glyph>
<glyph name="s" format="1">
  <advance width="441"/>
  <unicode hex="0073"/>
  <outline>
    <contour>
      <point x="312" y="338" type="line"/>
      <point x="311.333" y="352"/>
      <point x="307.669" y="363.503"/>
      <point x="301.002" y="372.503" type="curve" smooth="yes"/>
      <point x="294.335" y="381.503"/>
      <point x="286.002" y="388.836"/>
      <point x="276.002" y="394.503" type="curve" smooth="yes"/>
      <point x="266.002" y="400.17"/>
      <point x="255.002" y="404.17"/>
      <point x="243.002" y="406.503" type="curve" smooth="yes"/>
      <point x="231.002" y="408.836"/>
      <point x="219.335" y="410.003"/>
      <point x="208.002" y="410.003" type="curve" smooth="yes"/>
      <point x="182.002" y="410.003"/>
      <point x="161.169" y="404.336"/>
      <point x="145.502" y="393.003" type="curve" smooth="yes"/>
      <point x="129.835" y="381.67"/>
      <point x="122.002" y="367.337"/>
      <point x="122.002" y="350.004" type="curve" smooth="yes"/>
      <point x="122.002" y="340.671"/>
      <point x="123.669" y="332.671"/>
      <point x="127.002" y="326.004" type="curve" smooth="yes"/>
      <point x="130.335" y="319.337"/>
      <point x="136.168" y="313.17"/>
      <point x="144.501" y="307.503" type="curve" smooth="yes"/>
      <point x="152.834" y="301.836"/>
      <point x="164.501" y="296.503"/>
      <point x="179.501" y="291.503" type="curve" smooth="yes"/>
      <point x="194.501" y="286.503"/>
      <point x="214.001" y="281.336"/>
      <point x="238.001" y="276.003" type="curve" smooth="yes"/>
      <point x="290.001" y="264.67"/>
      <point x="329.668" y="248.837"/>
      <point x="357.001" y="228.504" type="curve" smooth="yes"/>
      <point x="384.334" y="208.171"/>
      <point x="398.001" y="177.671"/>
      <point x="398.001" y="137.004" type="curve" smooth="yes"/>
      <point x="398.001" y="117.671"/>
      <point x="394.168" y="99.1709"/>
      <point x="386.501" y="81.5039" type="curve" smooth="yes"/>
      <point x="378.834" y="63.8369"/>
      <point x="367.167" y="48.3369"/>
      <point x="351.5" y="35.0039" type="curve" smooth="yes"/>
      <point x="335.833" y="21.6709"/>
      <point x="315.833" y="11.0039"/>
      <point x="291.5" y="3.00391" type="curve" smooth="yes"/>
      <point x="267.167" y="-4.99609"/>
      <point x="238.334" y="-8.99609"/>
      <point x="205.001" y="-8.99609" type="curve" smooth="yes"/>
      <point x="183.668" y="-8.99609"/>
      <point x="162.335" y="-6.16309"/>
      <point x="141.002" y="-0.496094" type="curve" smooth="yes"/>
      <point x="119.669" y="5.1709"/>
      <point x="100.669" y="13.6709"/>
      <point x="84.002" y="25.0039" type="curve" smooth="yes"/>
      <point x="67.335" y="36.3369"/>
      <point x="54.002" y="50.8369"/>
      <point x="44.002" y="68.5039" type="curve" smooth="yes"/>
      <point x="34.002" y="86.1709"/>
      <point x="29.6689" y="106.671"/>
      <point x="31.002" y="130.004" type="curve"/>
      <point x="103.002" y="148.004" type="line"/>
      <point x="113.002" y="86.6709"/>
      <point x="151.002" y="56.0039"/>
      <point x="217.002" y="56.0039" type="curve" smooth="yes"/>
      <point x="249.002" y="56.0039"/>
      <point x="273.502" y="62.1709"/>
      <point x="290.502" y="74.5039" type="curve" smooth="yes"/>
      <point x="307.502" y="86.8369"/>
      <point x="316.002" y="102.67"/>
      <point x="316.002" y="122.003" type="curve" smooth="yes"/>
      <point x="316.002" y="145.336"/>
      <point x="305.335" y="162.169"/>
      <point x="284.002" y="172.502" type="curve" smooth="yes"/>
      <point x="262.669" y="182.835"/>
      <point x="234.002" y="192.335"/>
      <point x="198.002" y="201.002" type="curve" smooth="yes"/>
      <point x="140.669" y="214.335"/>
      <point x="100.002" y="232.002"/>
      <point x="76.002" y="254.002" type="curve" smooth="yes"/>
      <point x="63.335" y="266.002"/>
      <point x="54.668" y="279.335"/>
      <point x="50.001" y="294.002" type="curve" smooth="yes"/>
      <point x="45.334" y="308.669"/>
      <point x="43.001" y="323.002"/>
      <point x="43.001" y="337.002" type="curve" smooth="yes"/>
      <point x="43.001" y="352.335"/>
      <point x="46.168" y="368.168"/>
      <point x="52.501" y="384.501" type="curve" smooth="yes"/>
      <point x="58.834" y="400.834"/>
      <point x="69.001" y="415.667"/>
      <point x="83.001" y="429" type="curve" smooth="yes"/>
      <point x="97.001" y="442.333"/>
      <point x="115.001" y="453.333"/>
      <point x="137.001" y="462" type="curve" smooth="yes"/>
      <point x="159.001" y="470.667"/>
      <point x="185.668" y="475"/>
      <point x="217.001" y="475" type="curve" smooth="yes"/>
      <point x="235.668" y="475"/>
      <point x="255.168" y="472.667"/>
      <point x="275.501" y="468" type="curve" smooth="yes"/>
      <point x="295.834" y="463.333"/>
      <point x="314.334" y="456.166"/>
      <point x="331.001" y="446.499" type="curve" smooth="yes"/>
      <point x="347.668" y="436.832"/>
      <point x="361.168" y="424.332"/>
      <point x="371.501" y="408.999" type="curve" smooth="yes"/>
      <point x="381.834" y="393.666"/>
      <point x="386.667" y="375.333"/>
      <point x="386" y="354" type="curve"/>
    </contour>
  </outline>
</glyph>
<glyph name="t" format="1">
  <advance width="319"/>
  <unicode hex="0074"/>
  <outline>
    <contour>
      <point x="176" y="404" type="line"/>
      <point x="176" y="143" type="line" smooth="yes"/>
      <point x="176" y="125.667"/>
      <point x="176.833" y="111.834"/>
      <point x="178.5" y="101.501" type="curve" smooth="yes"/>
      <point x="180.167" y="91.168"/>
      <point x="182.667" y="83.335"/>
      <point x="186" y="78.002" type="curve" smooth="yes"/>
      <point x="189.333" y="72.6689"/>
      <point x="193.5" y="69.1689"/>
      <point x="198.5" y="67.502" type="curve" smooth="yes"/>
      <point x="203.5" y="65.835"/>
      <point x="209.333" y="65.002"/>
      <point x="216" y="65.002" type="curve" smooth="yes"/>
      <point x="224.667" y="65.002"/>
      <point x="235" y="65.835"/>
      <point x="247" y="67.502" type="curve" smooth="yes"/>
      <point x="259" y="69.1689"/>
      <point x="270.667" y="71.6689"/>
      <point x="282" y="75.002" type="curve"/>
      <point x="283" y="9.00195" type="line"/>
      <point x="269" y="4.33496"/>
      <point x="253" y="0.667969"/>
      <point x="235" y="-1.99902" type="curve" smooth="yes"/>
      <point x="217" y="-4.66602"/>
      <point x="199.667" y="-5.99902"/>
      <point x="183" y="-5.99902" type="curve" smooth="yes"/>
      <point x="159.667" y="-5.99902"/>
      <point x="142" y="-2.33203"/>
      <point x="130" y="5.00098" type="curve" smooth="yes"/>
      <point x="118" y="12.334"/>
      <point x="109.333" y="22.667"/>
      <point x="104" y="36" type="curve" smooth="yes"/>
      <point x="98.667" y="49.333"/>
      <point x="95.667" y="65.5"/>
      <point x="95" y="84.5" type="curve" smooth="yes"/>
      <point x="94.333" y="103.5"/>
      <point x="94" y="125"/>
      <point x="94" y="149" type="curve" smooth="yes"/>
      <point x="94" y="404" type="line"/>
      <point x="18" y="404" type="line"/>
      <point x="18" y="467" type="line"/>
      <point x="94" y="467" type="line"/>
      <point x="94" y="635" type="line"/>
      <point x="176" y="665" type="line"/>
      <point x="176" y="467" type="line"/>
      <point x="296" y="467" type="line"/>
      <point x="296" y="404" type="line"/>
    </contour>
  </outline>
</glyph>
<glyph name="w" format="1">
  <advance width="725"/>
  <unicode hex="0077"/>
  <outline>
    <contour>
      <point x="16" y="470" type="line"/>
      <point x="99" y="470" type="line"/>
      <point x="215" y="135" type="line"/>
      <point x="330" y="470" type="line"/>
      <point x="396" y="470" type="line"/>
      <point x="511" y="135" type="line"/>
      <point x="626" y="470" type="line"/>
      <point x="709" y="470" type="line"/>
      <point x="542" y="0" type="line"/>
      <point x="481" y="0" type="line"/>
      <point x="368" y="324" type="line"/>
      <point x="363" y="343" type="line"/>
      <point x="359" y="325" type="line"/>
      <point x="245" y="0" type="line"/>
      <point x="184" y="0" type="line"/>
    </contour>
  </outline>
</glyph>
<glyph name="x" format="1">
  <advance width="464"/>
  <unicode hex="0078"/>
  <outline>
    <contour>
      <point x="347" y="0" type="line"/>
      <point x="229" y="170" type="line"/>
      <point x="116" y="0" type="line"/>
      <point x="22" y="0" type="line"/>
      <point x="182" y="237" type="line"/>
      <point x="20" y="470" type="line"/>
      <point x="117" y="470" type="line"/>
      <point x="235" y="300" type="line"/>
      <point x="348" y="470" type="line"/>
      <point x="442" y="470" type="line"/>
      <point x="282" y="232" type="line"/>
      <point x="444" y="0" type="line"/>
    </contour>
  </outline>
</glyph>
